STARTFONT 2.1
FONT -FontForge-Bungee Shade-Book-R-Normal--8-80-72-72-P-69-ISO10646-1
SIZE 8 72 72
FONTBOUNDINGBOX 21 20 -5 -7
COMMENT "Generated by fontforge, http://fontforge.sourceforge.net"
COMMENT "Copyright 2008 The Bungee Project Authors (david@djr.com)"
STARTPROPERTIES 39
FOUNDRY "FontForge"
FAMILY_NAME "Bungee Shade"
WEIGHT_NAME "Book"
SLANT "R"
SETWIDTH_NAME "Normal"
ADD_STYLE_NAME ""
PIXEL_SIZE 8
POINT_SIZE 80
RESOLUTION_X 72
RESOLUTION_Y 72
SPACING "P"
AVERAGE_WIDTH 69
CHARSET_REGISTRY "ISO10646"
CHARSET_ENCODING "1"
FONTNAME_REGISTRY ""
CHARSET_COLLECTIONS "ISO8859-2 ISO8859-9 ISO8859-4 ISO10646-1"
FONT_NAME "BungeeShade-Regular"
FACE_NAME "Bungee Shade"
COPYRIGHT "Copyright 2008 The Bungee Project Authors (david@djr.com)"
FONT_VERSION "1.000;PS 1.0;hotconv 1.0.72;makeotf.lib2.5.5900"
FONT_ASCENT 7
FONT_DESCENT 1
UNDERLINE_POSITION 0
UNDERLINE_THICKNESS 0
X_HEIGHT 5
CAP_HEIGHT 5
RAW_ASCENT 860
RAW_DESCENT 140
NORM_SPACE 3
RELATIVE_WEIGHT 40
RELATIVE_SETWIDTH 50
SUPERSCRIPT_X 0
SUPERSCRIPT_Y 2
SUPERSCRIPT_SIZE 4
SUBSCRIPT_X 0
SUBSCRIPT_Y 0
SUBSCRIPT_SIZE 4
AVG_LOWERCASE_WIDTH 66
AVG_UPPERCASE_WIDTH 67
ENDPROPERTIES
CHARS 1065
STARTCHAR space
ENCODING 32
SWIDTH 325 0
DWIDTH 3 0
BBX 1 1 0 0
BITMAP
00
ENDCHAR
STARTCHAR exclam
ENCODING 33
SWIDTH 524 0
DWIDTH 4 0
BBX 4 7 0 -1
BITMAP
70
F0
70
50
70
70
E0
ENDCHAR
STARTCHAR quotedbl
ENCODING 34
SWIDTH 746 0
DWIDTH 6 0
BBX 6 4 0 2
BITMAP
7C
BC
BC
F8
ENDCHAR
STARTCHAR numbersign
ENCODING 35
SWIDTH 850 0
DWIDTH 7 0
BBX 7 7 0 -1
BITMAP
3E
5A
BE
D4
BC
F4
78
ENDCHAR
STARTCHAR dollar
ENCODING 36
SWIDTH 750 0
DWIDTH 6 0
BBX 6 9 0 -2
BITMAP
38
54
5C
B8
D4
FC
B4
E8
30
ENDCHAR
STARTCHAR percent
ENCODING 37
SWIDTH 1131 0
DWIDTH 9 0
BBX 9 7 0 -1
BITMAP
7E00
BE00
DF00
AD80
F580
1580
1F00
ENDCHAR
STARTCHAR ampersand
ENCODING 38
SWIDTH 866 0
DWIDTH 7 0
BBX 7 7 0 -1
BITMAP
7C
58
6E
7E
BE
9A
7C
ENDCHAR
STARTCHAR quotesingle
ENCODING 39
SWIDTH 456 0
DWIDTH 4 0
BBX 3 4 0 2
BITMAP
60
A0
A0
E0
ENDCHAR
STARTCHAR parenleft
ENCODING 40
SWIDTH 529 0
DWIDTH 4 0
BBX 4 8 0 -1
BITMAP
10
70
A0
A0
A0
B0
D0
60
ENDCHAR
STARTCHAR parenright
ENCODING 41
SWIDTH 529 0
DWIDTH 4 0
BBX 4 8 0 -1
BITMAP
60
B0
D0
50
50
50
B0
E0
ENDCHAR
STARTCHAR asterisk
ENCODING 42
SWIDTH 818 0
DWIDTH 7 0
BBX 6 6 0 0
BITMAP
38
7C
D4
7C
7C
50
ENDCHAR
STARTCHAR plus
ENCODING 43
SWIDTH 834 0
DWIDTH 7 0
BBX 6 6 0 0
BITMAP
18
74
BC
F4
28
30
ENDCHAR
STARTCHAR comma
ENCODING 44
SWIDTH 484 0
DWIDTH 4 0
BBX 4 5 0 -2
BITMAP
60
B0
F0
A0
C0
ENDCHAR
STARTCHAR hyphen
ENCODING 45
SWIDTH 520 0
DWIDTH 4 0
BBX 4 3 0 1
BITMAP
70
B0
E0
ENDCHAR
STARTCHAR period
ENCODING 46
SWIDTH 484 0
DWIDTH 4 0
BBX 4 4 0 -1
BITMAP
60
B0
90
E0
ENDCHAR
STARTCHAR slash
ENCODING 47
SWIDTH 487 0
DWIDTH 4 0
BBX 4 8 0 -1
BITMAP
30
70
70
60
50
A0
A0
C0
ENDCHAR
STARTCHAR zero
ENCODING 48
SWIDTH 827 0
DWIDTH 7 0
BBX 6 7 0 -1
BITMAP
7C
A4
B4
B4
B4
DC
78
ENDCHAR
STARTCHAR one
ENCODING 49
SWIDTH 701 0
DWIDTH 6 0
BBX 6 7 0 -1
BITMAP
78
A8
D0
50
58
BC
F8
ENDCHAR
STARTCHAR two
ENCODING 50
SWIDTH 739 0
DWIDTH 6 0
BBX 6 7 0 -1
BITMAP
7C
F4
FC
58
BC
BC
F8
ENDCHAR
STARTCHAR three
ENCODING 51
SWIDTH 737 0
DWIDTH 6 0
BBX 6 7 0 -1
BITMAP
78
B4
E8
54
7C
B4
F8
ENDCHAR
STARTCHAR four
ENCODING 52
SWIDTH 809 0
DWIDTH 6 0
BBX 6 7 0 -1
BITMAP
7C
B4
B4
9C
C4
74
18
ENDCHAR
STARTCHAR five
ENCODING 53
SWIDTH 747 0
DWIDTH 6 0
BBX 6 7 0 -1
BITMAP
7C
BC
B8
B4
FC
B4
F8
ENDCHAR
STARTCHAR six
ENCODING 54
SWIDTH 793 0
DWIDTH 6 0
BBX 6 7 0 -1
BITMAP
7C
B8
BC
B4
A4
DC
78
ENDCHAR
STARTCHAR seven
ENCODING 55
SWIDTH 727 0
DWIDTH 6 0
BBX 6 7 0 -1
BITMAP
7C
BC
FC
58
68
50
60
ENDCHAR
STARTCHAR eight
ENCODING 56
SWIDTH 811 0
DWIDTH 6 0
BBX 6 7 0 -1
BITMAP
7C
74
7C
44
B4
DC
78
ENDCHAR
STARTCHAR nine
ENCODING 57
SWIDTH 793 0
DWIDTH 6 0
BBX 6 7 0 -1
BITMAP
7C
A4
B4
9C
F4
5C
78
ENDCHAR
STARTCHAR colon
ENCODING 58
SWIDTH 484 0
DWIDTH 4 0
BBX 4 7 0 -1
BITMAP
60
90
B0
E0
B0
90
E0
ENDCHAR
STARTCHAR semicolon
ENCODING 59
SWIDTH 484 0
DWIDTH 4 0
BBX 4 7 0 -2
BITMAP
70
B0
E0
B0
F0
A0
C0
ENDCHAR
STARTCHAR less
ENCODING 60
SWIDTH 814 0
DWIDTH 7 0
BBX 6 5 0 0
BITMAP
3C
74
F8
DC
7C
ENDCHAR
STARTCHAR equal
ENCODING 61
SWIDTH 834 0
DWIDTH 7 0
BBX 6 5 0 0
BITMAP
3C
C4
FC
BC
FC
ENDCHAR
STARTCHAR greater
ENCODING 62
SWIDTH 814 0
DWIDTH 7 0
BBX 5 6 1 -1
BITMAP
F0
F8
E8
98
F0
80
ENDCHAR
STARTCHAR question
ENCODING 63
SWIDTH 756 0
DWIDTH 6 0
BBX 6 7 0 -1
BITMAP
7C
B4
FC
64
78
70
60
ENDCHAR
STARTCHAR at
ENCODING 64
SWIDTH 967 0
DWIDTH 8 0
BBX 7 8 0 -1
BITMAP
18
7E
FA
AA
AA
BE
DC
7C
ENDCHAR
STARTCHAR A
ENCODING 65
SWIDTH 830 0
DWIDTH 7 0
BBX 6 7 0 -1
BITMAP
3C
5C
54
BC
A4
BC
FC
ENDCHAR
STARTCHAR B
ENCODING 66
SWIDTH 825 0
DWIDTH 7 0
BBX 6 7 0 -1
BITMAP
7C
B4
BC
BC
BC
BC
F8
ENDCHAR
STARTCHAR C
ENCODING 67
SWIDTH 728 0
DWIDTH 6 0
BBX 6 7 0 -1
BITMAP
7C
5C
B8
A0
BC
DC
78
ENDCHAR
STARTCHAR D
ENCODING 68
SWIDTH 846 0
DWIDTH 7 0
BBX 7 7 0 -1
BITMAP
7C
BA
BE
BE
B4
BA
FC
ENDCHAR
STARTCHAR E
ENCODING 69
SWIDTH 754 0
DWIDTH 6 0
BBX 6 7 0 -1
BITMAP
7C
BC
B8
B4
BC
BC
F8
ENDCHAR
STARTCHAR F
ENCODING 70
SWIDTH 718 0
DWIDTH 6 0
BBX 6 7 0 -1
BITMAP
7C
BC
B8
B4
B8
90
E0
ENDCHAR
STARTCHAR G
ENCODING 71
SWIDTH 808 0
DWIDTH 6 0
BBX 6 7 0 -1
BITMAP
7C
5C
AC
B4
B4
DC
7C
ENDCHAR
STARTCHAR H
ENCODING 72
SWIDTH 859 0
DWIDTH 7 0
BBX 7 7 0 -1
BITMAP
7E
AE
BE
BE
BE
9A
EC
ENDCHAR
STARTCHAR I
ENCODING 73
SWIDTH 705 0
DWIDTH 6 0
BBX 5 7 0 -1
BITMAP
78
B8
D0
50
58
B8
F8
ENDCHAR
STARTCHAR J
ENCODING 74
SWIDTH 788 0
DWIDTH 6 0
BBX 6 7 0 -1
BITMAP
1C
1C
7C
BC
BC
D4
78
ENDCHAR
STARTCHAR K
ENCODING 75
SWIDTH 846 0
DWIDTH 7 0
BBX 6 7 0 -1
BITMAP
7C
BC
B4
BC
BC
9C
FC
ENDCHAR
STARTCHAR L
ENCODING 76
SWIDTH 795 0
DWIDTH 6 0
BBX 6 7 0 -1
BITMAP
70
A0
AC
B4
B4
BC
F8
ENDCHAR
STARTCHAR M
ENCODING 77
SWIDTH 949 0
DWIDTH 8 0
BBX 7 7 0 -1
BITMAP
76
AE
B6
AA
BA
9A
EE
ENDCHAR
STARTCHAR N
ENCODING 78
SWIDTH 853 0
DWIDTH 7 0
BBX 6 7 0 -1
BITMAP
7C
AC
B4
BC
B4
9C
FC
ENDCHAR
STARTCHAR O
ENCODING 79
SWIDTH 837 0
DWIDTH 7 0
BBX 6 7 0 -1
BITMAP
7C
A4
BC
BC
BC
D4
78
ENDCHAR
STARTCHAR P
ENCODING 80
SWIDTH 782 0
DWIDTH 6 0
BBX 6 7 0 -1
BITMAP
7C
BC
B4
BC
B8
90
E0
ENDCHAR
STARTCHAR Q
ENCODING 81
SWIDTH 837 0
DWIDTH 7 0
BBX 6 8 0 -2
BITMAP
7C
44
BC
BC
BC
D4
68
30
ENDCHAR
STARTCHAR R
ENCODING 82
SWIDTH 843 0
DWIDTH 7 0
BBX 7 7 0 -1
BITMAP
7C
BA
B4
BA
BE
9A
EC
ENDCHAR
STARTCHAR S
ENCODING 83
SWIDTH 750 0
DWIDTH 6 0
BBX 6 7 0 -1
BITMAP
7C
9C
A8
D4
FC
B4
F8
ENDCHAR
STARTCHAR T
ENCODING 84
SWIDTH 756 0
DWIDTH 6 0
BBX 6 7 0 -1
BITMAP
FC
BC
F8
78
78
68
70
ENDCHAR
STARTCHAR U
ENCODING 85
SWIDTH 846 0
DWIDTH 7 0
BBX 6 7 0 -1
BITMAP
7C
BC
BC
BC
BC
D4
78
ENDCHAR
STARTCHAR V
ENCODING 86
SWIDTH 830 0
DWIDTH 7 0
BBX 6 7 0 -1
BITMAP
7C
BC
BC
D4
FC
54
78
ENDCHAR
STARTCHAR W
ENCODING 87
SWIDTH 931 0
DWIDTH 7 0
BBX 7 7 0 -1
BITMAP
76
AA
BA
AA
D6
EE
7C
ENDCHAR
STARTCHAR X
ENCODING 88
SWIDTH 837 0
DWIDTH 7 0
BBX 6 7 0 -1
BITMAP
7C
BC
EC
5C
74
9C
FC
ENDCHAR
STARTCHAR Y
ENCODING 89
SWIDTH 805 0
DWIDTH 6 0
BBX 6 7 0 -1
BITMAP
7C
B4
BC
D4
78
28
30
ENDCHAR
STARTCHAR Z
ENCODING 90
SWIDTH 760 0
DWIDTH 6 0
BBX 6 7 0 -1
BITMAP
7C
BC
E8
58
6C
BC
F8
ENDCHAR
STARTCHAR bracketleft
ENCODING 91
SWIDTH 529 0
DWIDTH 4 0
BBX 4 8 0 -1
BITMAP
70
B0
A0
A0
A0
B0
B0
E0
ENDCHAR
STARTCHAR backslash
ENCODING 92
SWIDTH 487 0
DWIDTH 4 0
BBX 4 8 0 -1
BITMAP
60
A0
A0
F0
D0
70
50
60
ENDCHAR
STARTCHAR bracketright
ENCODING 93
SWIDTH 529 0
DWIDTH 4 0
BBX 4 8 0 -1
BITMAP
70
90
D0
50
50
50
B0
E0
ENDCHAR
STARTCHAR asciicircum
ENCODING 94
SWIDTH 814 0
DWIDTH 7 0
BBX 6 5 0 1
BITMAP
38
78
5C
94
FC
ENDCHAR
STARTCHAR underscore
ENCODING 95
SWIDTH 834 0
DWIDTH 7 0
BBX 6 3 0 -2
BITMAP
7C
BC
FC
ENDCHAR
STARTCHAR grave
ENCODING 96
SWIDTH 600 0
DWIDTH 5 0
BBX 5 3 0 5
BITMAP
70
A8
F0
ENDCHAR
STARTCHAR a
ENCODING 97
SWIDTH 830 0
DWIDTH 7 0
BBX 6 7 0 -1
BITMAP
3C
5C
54
BC
A4
BC
FC
ENDCHAR
STARTCHAR b
ENCODING 98
SWIDTH 825 0
DWIDTH 7 0
BBX 6 7 0 -1
BITMAP
7C
B4
BC
BC
BC
BC
F8
ENDCHAR
STARTCHAR c
ENCODING 99
SWIDTH 728 0
DWIDTH 6 0
BBX 6 7 0 -1
BITMAP
7C
5C
B8
A0
BC
DC
78
ENDCHAR
STARTCHAR d
ENCODING 100
SWIDTH 846 0
DWIDTH 7 0
BBX 7 7 0 -1
BITMAP
7C
BA
BE
BE
B4
BA
FC
ENDCHAR
STARTCHAR e
ENCODING 101
SWIDTH 754 0
DWIDTH 6 0
BBX 6 7 0 -1
BITMAP
7C
BC
B8
B4
BC
BC
F8
ENDCHAR
STARTCHAR f
ENCODING 102
SWIDTH 718 0
DWIDTH 6 0
BBX 6 7 0 -1
BITMAP
7C
BC
B8
B4
B8
90
E0
ENDCHAR
STARTCHAR g
ENCODING 103
SWIDTH 808 0
DWIDTH 6 0
BBX 6 7 0 -1
BITMAP
7C
5C
AC
B4
B4
DC
7C
ENDCHAR
STARTCHAR h
ENCODING 104
SWIDTH 859 0
DWIDTH 7 0
BBX 7 7 0 -1
BITMAP
7E
AE
BE
BE
BE
9A
EC
ENDCHAR
STARTCHAR i
ENCODING 105
SWIDTH 705 0
DWIDTH 6 0
BBX 5 7 0 -1
BITMAP
78
B8
D0
50
58
B8
F8
ENDCHAR
STARTCHAR j
ENCODING 106
SWIDTH 788 0
DWIDTH 6 0
BBX 6 7 0 -1
BITMAP
1C
1C
7C
BC
BC
D4
78
ENDCHAR
STARTCHAR k
ENCODING 107
SWIDTH 846 0
DWIDTH 7 0
BBX 6 7 0 -1
BITMAP
7C
BC
B4
BC
BC
9C
FC
ENDCHAR
STARTCHAR l
ENCODING 108
SWIDTH 795 0
DWIDTH 6 0
BBX 6 7 0 -1
BITMAP
70
A0
AC
B4
B4
BC
F8
ENDCHAR
STARTCHAR m
ENCODING 109
SWIDTH 949 0
DWIDTH 8 0
BBX 7 7 0 -1
BITMAP
76
AE
B6
AA
BA
9A
EE
ENDCHAR
STARTCHAR n
ENCODING 110
SWIDTH 853 0
DWIDTH 7 0
BBX 6 7 0 -1
BITMAP
7C
AC
B4
BC
B4
9C
FC
ENDCHAR
STARTCHAR o
ENCODING 111
SWIDTH 837 0
DWIDTH 7 0
BBX 6 7 0 -1
BITMAP
7C
A4
BC
BC
BC
D4
78
ENDCHAR
STARTCHAR p
ENCODING 112
SWIDTH 782 0
DWIDTH 6 0
BBX 6 7 0 -1
BITMAP
7C
BC
B4
BC
B8
90
E0
ENDCHAR
STARTCHAR q
ENCODING 113
SWIDTH 837 0
DWIDTH 7 0
BBX 6 8 0 -2
BITMAP
7C
44
BC
BC
BC
D4
68
30
ENDCHAR
STARTCHAR r
ENCODING 114
SWIDTH 843 0
DWIDTH 7 0
BBX 7 7 0 -1
BITMAP
7C
BA
B4
BA
BE
9A
EC
ENDCHAR
STARTCHAR s
ENCODING 115
SWIDTH 750 0
DWIDTH 6 0
BBX 6 7 0 -1
BITMAP
7C
9C
A8
D4
FC
B4
F8
ENDCHAR
STARTCHAR t
ENCODING 116
SWIDTH 756 0
DWIDTH 6 0
BBX 6 7 0 -1
BITMAP
FC
BC
F8
78
78
68
70
ENDCHAR
STARTCHAR u
ENCODING 117
SWIDTH 846 0
DWIDTH 7 0
BBX 6 7 0 -1
BITMAP
7C
BC
BC
BC
BC
D4
78
ENDCHAR
STARTCHAR v
ENCODING 118
SWIDTH 830 0
DWIDTH 7 0
BBX 6 7 0 -1
BITMAP
7C
BC
BC
D4
FC
54
78
ENDCHAR
STARTCHAR w
ENCODING 119
SWIDTH 931 0
DWIDTH 7 0
BBX 7 7 0 -1
BITMAP
76
AA
BA
AA
D6
EE
7C
ENDCHAR
STARTCHAR x
ENCODING 120
SWIDTH 837 0
DWIDTH 7 0
BBX 6 7 0 -1
BITMAP
7C
BC
EC
5C
74
9C
FC
ENDCHAR
STARTCHAR y
ENCODING 121
SWIDTH 805 0
DWIDTH 6 0
BBX 6 7 0 -1
BITMAP
7C
B4
BC
D4
78
28
30
ENDCHAR
STARTCHAR z
ENCODING 122
SWIDTH 760 0
DWIDTH 6 0
BBX 6 7 0 -1
BITMAP
7C
BC
E8
58
6C
BC
F8
ENDCHAR
STARTCHAR braceleft
ENCODING 123
SWIDTH 555 0
DWIDTH 4 0
BBX 4 8 0 -1
BITMAP
10
70
F0
D0
F0
F0
D0
70
ENDCHAR
STARTCHAR bar
ENCODING 124
SWIDTH 447 0
DWIDTH 4 0
BBX 3 8 0 -1
BITMAP
20
A0
A0
A0
A0
A0
A0
E0
ENDCHAR
STARTCHAR braceright
ENCODING 125
SWIDTH 555 0
DWIDTH 4 0
BBX 4 8 0 -1
BITMAP
60
B0
F0
50
70
70
B0
E0
ENDCHAR
STARTCHAR asciitilde
ENCODING 126
SWIDTH 834 0
DWIDTH 7 0
BBX 6 4 0 1
BITMAP
38
64
FC
10
ENDCHAR
STARTCHAR uni00A0
ENCODING 160
SWIDTH 325 0
DWIDTH 3 0
BBX 1 1 0 0
BITMAP
00
ENDCHAR
STARTCHAR exclamdown
ENCODING 161
SWIDTH 523 0
DWIDTH 4 0
BBX 4 7 0 -1
BITMAP
70
F0
E0
70
70
50
E0
ENDCHAR
STARTCHAR cent
ENCODING 162
SWIDTH 728 0
DWIDTH 6 0
BBX 6 8 0 -1
BITMAP
18
3C
44
B8
BC
DC
68
30
ENDCHAR
STARTCHAR sterling
ENCODING 163
SWIDTH 795 0
DWIDTH 6 0
BBX 6 7 0 -1
BITMAP
7C
58
B8
AC
B4
BC
FC
ENDCHAR
STARTCHAR currency
ENCODING 164
SWIDTH 921 0
DWIDTH 7 0
BBX 7 7 0 -1
BITMAP
6E
FE
6C
6C
7E
FE
44
ENDCHAR
STARTCHAR yen
ENCODING 165
SWIDTH 803 0
DWIDTH 6 0
BBX 6 7 0 -1
BITMAP
7C
B4
FC
D4
7C
68
30
ENDCHAR
STARTCHAR brokenbar
ENCODING 166
SWIDTH 447 0
DWIDTH 4 0
BBX 3 8 0 -1
BITMAP
60
A0
A0
A0
E0
A0
A0
E0
ENDCHAR
STARTCHAR section
ENCODING 167
SWIDTH 750 0
DWIDTH 6 0
BBX 6 7 0 -1
BITMAP
7C
B8
B4
DC
F4
7C
F8
ENDCHAR
STARTCHAR dieresis
ENCODING 168
SWIDTH 600 0
DWIDTH 5 0
BBX 5 3 0 5
BITMAP
78
F8
F0
ENDCHAR
STARTCHAR copyright
ENCODING 169
SWIDTH 967 0
DWIDTH 8 0
BBX 7 8 0 -1
BITMAP
18
7E
EA
BE
BE
AA
DE
7C
ENDCHAR
STARTCHAR ordfeminine
ENCODING 170
SWIDTH 620 0
DWIDTH 5 0
BBX 5 7 0 -1
BITMAP
78
78
B8
A8
F8
B8
F0
ENDCHAR
STARTCHAR guillemotleft
ENCODING 171
SWIDTH 912 0
DWIDTH 7 0
BBX 7 5 0 0
BITMAP
3E
4A
B6
CA
7E
ENDCHAR
STARTCHAR logicalnot
ENCODING 172
SWIDTH 834 0
DWIDTH 7 0
BBX 6 5 0 0
BITMAP
7C
BC
FC
0C
0C
ENDCHAR
STARTCHAR uni00AD
ENCODING 173
SWIDTH 520 0
DWIDTH 4 0
BBX 4 3 0 1
BITMAP
70
B0
E0
ENDCHAR
STARTCHAR registered
ENCODING 174
SWIDTH 660 0
DWIDTH 5 0
BBX 5 5 0 1
BITMAP
78
B8
B8
D8
60
ENDCHAR
STARTCHAR macron
ENCODING 175
SWIDTH 600 0
DWIDTH 5 0
BBX 5 3 0 5
BITMAP
78
B8
F0
ENDCHAR
STARTCHAR degree
ENCODING 176
SWIDTH 583 0
DWIDTH 5 0
BBX 5 5 0 1
BITMAP
78
A8
B8
F0
60
ENDCHAR
STARTCHAR plusminus
ENCODING 177
SWIDTH 834 0
DWIDTH 7 0
BBX 6 7 0 -1
BITMAP
38
74
BC
F4
64
BC
FC
ENDCHAR
STARTCHAR twosuperior
ENCODING 178
SWIDTH 585 0
DWIDTH 5 0
BBX 4 5 0 1
BITMAP
70
F0
50
B0
F0
ENDCHAR
STARTCHAR threesuperior
ENCODING 179
SWIDTH 584 0
DWIDTH 5 0
BBX 5 5 0 1
BITMAP
78
E8
78
B8
F0
ENDCHAR
STARTCHAR acute
ENCODING 180
SWIDTH 600 0
DWIDTH 5 0
BBX 5 3 0 5
BITMAP
78
98
F0
ENDCHAR
STARTCHAR mu
ENCODING 181
SWIDTH 813 0
DWIDTH 7 0
BBX 6 7 0 -2
BITMAP
6C
B4
B4
B4
BC
B8
C0
ENDCHAR
STARTCHAR paragraph
ENCODING 182
SWIDTH 782 0
DWIDTH 6 0
BBX 6 7 0 -1
BITMAP
7C
BC
C4
BC
D4
4C
78
ENDCHAR
STARTCHAR periodcentered
ENCODING 183
SWIDTH 464 0
DWIDTH 4 0
BBX 4 4 0 1
BITMAP
60
B0
90
E0
ENDCHAR
STARTCHAR cedilla
ENCODING 184
SWIDTH 600 0
DWIDTH 5 0
BBX 3 3 1 -2
BITMAP
E0
A0
C0
ENDCHAR
STARTCHAR onesuperior
ENCODING 185
SWIDTH 557 0
DWIDTH 4 0
BBX 4 5 0 1
BITMAP
70
90
D0
70
F0
ENDCHAR
STARTCHAR ordmasculine
ENCODING 186
SWIDTH 625 0
DWIDTH 5 0
BBX 5 7 0 -1
BITMAP
78
D8
D8
B8
F8
B8
F0
ENDCHAR
STARTCHAR guillemotright
ENCODING 187
SWIDTH 912 0
DWIDTH 7 0
BBX 7 5 0 0
BITMAP
58
AE
DA
76
FC
ENDCHAR
STARTCHAR onequarter
ENCODING 188
SWIDTH 1303 0
DWIDTH 10 0
BBX 10 7 0 -1
BITMAP
7600
DD40
5BC0
7FC0
FAC0
13C0
1CC0
ENDCHAR
STARTCHAR onehalf
ENCODING 189
SWIDTH 1260 0
DWIDTH 10 0
BBX 10 7 0 -1
BITMAP
7600
DD80
5BC0
7F40
FAC0
13C0
1F80
ENDCHAR
STARTCHAR threequarters
ENCODING 190
SWIDTH 1313 0
DWIDTH 11 0
BBX 10 7 0 -1
BITMAP
7E00
DD40
6AC0
7EC0
FAC0
13C0
1CC0
ENDCHAR
STARTCHAR questiondown
ENCODING 191
SWIDTH 756 0
DWIDTH 6 0
BBX 6 7 0 -1
BITMAP
3C
28
38
74
BC
DC
F8
ENDCHAR
STARTCHAR Agrave
ENCODING 192
SWIDTH 830 0
DWIDTH 7 0
BBX 6 9 0 -1
BITMAP
30
4C
7C
5C
54
BC
A4
BC
FC
ENDCHAR
STARTCHAR Aacute
ENCODING 193
SWIDTH 830 0
DWIDTH 7 0
BBX 6 9 0 -1
BITMAP
3C
5C
64
5C
54
BC
A4
BC
FC
ENDCHAR
STARTCHAR Acircumflex
ENCODING 194
SWIDTH 830 0
DWIDTH 7 0
BBX 6 9 0 -1
BITMAP
10
7C
44
5C
54
BC
A4
BC
FC
ENDCHAR
STARTCHAR Atilde
ENCODING 195
SWIDTH 830 0
DWIDTH 7 0
BBX 6 9 0 -1
BITMAP
24
5C
7C
5C
54
BC
A4
BC
FC
ENDCHAR
STARTCHAR Adieresis
ENCODING 196
SWIDTH 830 0
DWIDTH 7 0
BBX 6 9 0 -1
BITMAP
3C
7C
44
5C
54
BC
A4
BC
FC
ENDCHAR
STARTCHAR Aring
ENCODING 197
SWIDTH 830 0
DWIDTH 7 0
BBX 6 9 0 -1
BITMAP
38
5C
54
5C
54
BC
A4
BC
FC
ENDCHAR
STARTCHAR AE
ENCODING 198
SWIDTH 1105 0
DWIDTH 9 0
BBX 9 7 0 -1
BITMAP
3F80
5F80
5700
BB00
A780
B780
FF00
ENDCHAR
STARTCHAR Ccedilla
ENCODING 199
SWIDTH 728 0
DWIDTH 6 0
BBX 6 8 0 -2
BITMAP
7C
44
B8
A0
BC
DC
78
30
ENDCHAR
STARTCHAR Egrave
ENCODING 200
SWIDTH 754 0
DWIDTH 6 0
BBX 6 9 0 -1
BITMAP
78
74
4C
BC
B8
B4
BC
BC
F8
ENDCHAR
STARTCHAR Eacute
ENCODING 201
SWIDTH 754 0
DWIDTH 6 0
BBX 6 9 0 -1
BITMAP
3C
5C
64
BC
B8
B4
BC
BC
F8
ENDCHAR
STARTCHAR Ecircumflex
ENCODING 202
SWIDTH 754 0
DWIDTH 6 0
BBX 6 9 0 -1
BITMAP
10
7C
44
BC
B8
B4
BC
BC
F8
ENDCHAR
STARTCHAR Edieresis
ENCODING 203
SWIDTH 754 0
DWIDTH 6 0
BBX 6 9 0 -1
BITMAP
28
5C
64
BC
B8
B4
BC
BC
F8
ENDCHAR
STARTCHAR Igrave
ENCODING 204
SWIDTH 705 0
DWIDTH 6 0
BBX 5 9 0 -1
BITMAP
78
78
88
B8
D0
50
58
B8
F8
ENDCHAR
STARTCHAR Iacute
ENCODING 205
SWIDTH 705 0
DWIDTH 6 0
BBX 5 9 0 -1
BITMAP
38
78
88
B8
D0
50
58
B8
F8
ENDCHAR
STARTCHAR Icircumflex
ENCODING 206
SWIDTH 705 0
DWIDTH 6 0
BBX 5 9 0 -1
BITMAP
10
78
88
B8
D0
50
58
B8
F8
ENDCHAR
STARTCHAR Idieresis
ENCODING 207
SWIDTH 705 0
DWIDTH 6 0
BBX 5 9 0 -1
BITMAP
68
B8
C8
B8
D0
50
58
B8
F8
ENDCHAR
STARTCHAR Eth
ENCODING 208
SWIDTH 856 0
DWIDTH 7 0
BBX 7 7 0 -1
BITMAP
7E
FE
DA
AA
DA
FE
FC
ENDCHAR
STARTCHAR Ntilde
ENCODING 209
SWIDTH 853 0
DWIDTH 7 0
BBX 6 9 0 -1
BITMAP
34
4C
7C
AC
B4
BC
B4
9C
FC
ENDCHAR
STARTCHAR Ograve
ENCODING 210
SWIDTH 837 0
DWIDTH 7 0
BBX 6 9 0 -1
BITMAP
7C
64
5C
A4
BC
BC
BC
D4
78
ENDCHAR
STARTCHAR Oacute
ENCODING 211
SWIDTH 837 0
DWIDTH 7 0
BBX 6 9 0 -1
BITMAP
3C
44
7C
A4
BC
BC
BC
D4
78
ENDCHAR
STARTCHAR Ocircumflex
ENCODING 212
SWIDTH 837 0
DWIDTH 7 0
BBX 6 9 0 -1
BITMAP
10
7C
5C
A4
BC
BC
BC
D4
78
ENDCHAR
STARTCHAR Otilde
ENCODING 213
SWIDTH 837 0
DWIDTH 7 0
BBX 6 9 0 -1
BITMAP
34
4C
7C
A4
BC
BC
BC
D4
78
ENDCHAR
STARTCHAR Odieresis
ENCODING 214
SWIDTH 837 0
DWIDTH 7 0
BBX 6 9 0 -1
BITMAP
3C
7C
5C
A4
BC
BC
BC
D4
78
ENDCHAR
STARTCHAR multiply
ENCODING 215
SWIDTH 834 0
DWIDTH 7 0
BBX 6 6 0 0
BITMAP
2C
54
FC
5C
DC
68
ENDCHAR
STARTCHAR Oslash
ENCODING 216
SWIDTH 837 0
DWIDTH 7 0
BBX 6 8 0 -1
BITMAP
04
7C
AC
B4
BC
AC
DC
78
ENDCHAR
STARTCHAR Ugrave
ENCODING 217
SWIDTH 846 0
DWIDTH 7 0
BBX 6 9 0 -1
BITMAP
78
64
5C
BC
BC
BC
BC
D4
78
ENDCHAR
STARTCHAR Uacute
ENCODING 218
SWIDTH 846 0
DWIDTH 7 0
BBX 6 9 0 -1
BITMAP
3C
44
7C
BC
BC
BC
BC
D4
78
ENDCHAR
STARTCHAR Ucircumflex
ENCODING 219
SWIDTH 846 0
DWIDTH 7 0
BBX 6 9 0 -1
BITMAP
10
7C
5C
BC
BC
BC
A4
DC
78
ENDCHAR
STARTCHAR Udieresis
ENCODING 220
SWIDTH 846 0
DWIDTH 7 0
BBX 6 9 0 -1
BITMAP
3C
7C
5C
BC
BC
BC
BC
D4
78
ENDCHAR
STARTCHAR Yacute
ENCODING 221
SWIDTH 805 0
DWIDTH 6 0
BBX 6 9 0 -1
BITMAP
3C
4C
74
B4
BC
D4
78
28
30
ENDCHAR
STARTCHAR Thorn
ENCODING 222
SWIDTH 792 0
DWIDTH 6 0
BBX 6 7 0 -1
BITMAP
70
BC
A4
B4
BC
98
E0
ENDCHAR
STARTCHAR germandbls
ENCODING 223
SWIDTH 859 0
DWIDTH 7 0
BBX 7 7 0 -1
BITMAP
7C
BC
BC
BA
BE
BA
FC
ENDCHAR
STARTCHAR agrave
ENCODING 224
SWIDTH 830 0
DWIDTH 7 0
BBX 6 9 0 -1
BITMAP
30
4C
7C
5C
54
BC
A4
BC
FC
ENDCHAR
STARTCHAR aacute
ENCODING 225
SWIDTH 830 0
DWIDTH 7 0
BBX 6 9 0 -1
BITMAP
3C
5C
64
5C
54
BC
A4
BC
FC
ENDCHAR
STARTCHAR acircumflex
ENCODING 226
SWIDTH 830 0
DWIDTH 7 0
BBX 6 9 0 -1
BITMAP
10
7C
44
5C
54
BC
A4
BC
FC
ENDCHAR
STARTCHAR atilde
ENCODING 227
SWIDTH 830 0
DWIDTH 7 0
BBX 6 9 0 -1
BITMAP
24
5C
7C
5C
54
BC
A4
BC
FC
ENDCHAR
STARTCHAR adieresis
ENCODING 228
SWIDTH 830 0
DWIDTH 7 0
BBX 6 9 0 -1
BITMAP
3C
7C
44
5C
54
BC
A4
BC
FC
ENDCHAR
STARTCHAR aring
ENCODING 229
SWIDTH 830 0
DWIDTH 7 0
BBX 6 9 0 -1
BITMAP
38
5C
54
5C
54
BC
A4
BC
FC
ENDCHAR
STARTCHAR ae
ENCODING 230
SWIDTH 1105 0
DWIDTH 9 0
BBX 9 7 0 -1
BITMAP
3F80
5F80
5700
BB00
A780
B780
FF00
ENDCHAR
STARTCHAR ccedilla
ENCODING 231
SWIDTH 728 0
DWIDTH 6 0
BBX 6 8 0 -2
BITMAP
7C
44
B8
A0
BC
DC
78
30
ENDCHAR
STARTCHAR egrave
ENCODING 232
SWIDTH 754 0
DWIDTH 6 0
BBX 6 9 0 -1
BITMAP
78
74
4C
BC
B8
B4
BC
BC
F8
ENDCHAR
STARTCHAR eacute
ENCODING 233
SWIDTH 754 0
DWIDTH 6 0
BBX 6 9 0 -1
BITMAP
3C
5C
64
BC
B8
B4
BC
BC
F8
ENDCHAR
STARTCHAR ecircumflex
ENCODING 234
SWIDTH 754 0
DWIDTH 6 0
BBX 6 9 0 -1
BITMAP
10
7C
44
BC
B8
B4
BC
BC
F8
ENDCHAR
STARTCHAR edieresis
ENCODING 235
SWIDTH 754 0
DWIDTH 6 0
BBX 6 9 0 -1
BITMAP
28
5C
64
BC
B8
B4
BC
BC
F8
ENDCHAR
STARTCHAR igrave
ENCODING 236
SWIDTH 705 0
DWIDTH 6 0
BBX 5 9 0 -1
BITMAP
78
78
88
B8
D0
50
58
B8
F8
ENDCHAR
STARTCHAR iacute
ENCODING 237
SWIDTH 705 0
DWIDTH 6 0
BBX 5 9 0 -1
BITMAP
38
78
88
B8
D0
50
58
B8
F8
ENDCHAR
STARTCHAR icircumflex
ENCODING 238
SWIDTH 705 0
DWIDTH 6 0
BBX 5 9 0 -1
BITMAP
10
78
88
B8
D0
50
58
B8
F8
ENDCHAR
STARTCHAR idieresis
ENCODING 239
SWIDTH 705 0
DWIDTH 6 0
BBX 5 9 0 -1
BITMAP
68
B8
C8
B8
D0
50
58
B8
F8
ENDCHAR
STARTCHAR eth
ENCODING 240
SWIDTH 856 0
DWIDTH 7 0
BBX 7 7 0 -1
BITMAP
7E
FE
DA
AA
DA
FE
FC
ENDCHAR
STARTCHAR ntilde
ENCODING 241
SWIDTH 853 0
DWIDTH 7 0
BBX 6 9 0 -1
BITMAP
34
4C
7C
AC
B4
BC
B4
9C
FC
ENDCHAR
STARTCHAR ograve
ENCODING 242
SWIDTH 837 0
DWIDTH 7 0
BBX 6 9 0 -1
BITMAP
7C
64
5C
A4
BC
BC
BC
D4
78
ENDCHAR
STARTCHAR oacute
ENCODING 243
SWIDTH 837 0
DWIDTH 7 0
BBX 6 9 0 -1
BITMAP
3C
44
7C
A4
BC
BC
BC
D4
78
ENDCHAR
STARTCHAR ocircumflex
ENCODING 244
SWIDTH 837 0
DWIDTH 7 0
BBX 6 9 0 -1
BITMAP
10
7C
5C
A4
BC
BC
BC
D4
78
ENDCHAR
STARTCHAR otilde
ENCODING 245
SWIDTH 837 0
DWIDTH 7 0
BBX 6 9 0 -1
BITMAP
34
4C
7C
A4
BC
BC
BC
D4
78
ENDCHAR
STARTCHAR odieresis
ENCODING 246
SWIDTH 837 0
DWIDTH 7 0
BBX 6 9 0 -1
BITMAP
3C
7C
5C
A4
BC
BC
BC
D4
78
ENDCHAR
STARTCHAR divide
ENCODING 247
SWIDTH 834 0
DWIDTH 7 0
BBX 6 7 0 -1
BITMAP
18
38
3C
7C
FC
38
30
ENDCHAR
STARTCHAR oslash
ENCODING 248
SWIDTH 837 0
DWIDTH 7 0
BBX 6 8 0 -1
BITMAP
04
7C
AC
B4
BC
AC
DC
78
ENDCHAR
STARTCHAR ugrave
ENCODING 249
SWIDTH 846 0
DWIDTH 7 0
BBX 6 9 0 -1
BITMAP
78
64
5C
BC
BC
BC
BC
D4
78
ENDCHAR
STARTCHAR uacute
ENCODING 250
SWIDTH 846 0
DWIDTH 7 0
BBX 6 9 0 -1
BITMAP
3C
44
7C
BC
BC
BC
BC
D4
78
ENDCHAR
STARTCHAR ucircumflex
ENCODING 251
SWIDTH 846 0
DWIDTH 7 0
BBX 6 9 0 -1
BITMAP
10
7C
5C
BC
BC
BC
A4
DC
78
ENDCHAR
STARTCHAR udieresis
ENCODING 252
SWIDTH 846 0
DWIDTH 7 0
BBX 6 9 0 -1
BITMAP
3C
7C
5C
BC
BC
BC
BC
D4
78
ENDCHAR
STARTCHAR yacute
ENCODING 253
SWIDTH 805 0
DWIDTH 6 0
BBX 6 9 0 -1
BITMAP
3C
4C
74
B4
BC
D4
78
28
30
ENDCHAR
STARTCHAR thorn
ENCODING 254
SWIDTH 792 0
DWIDTH 6 0
BBX 6 7 0 -1
BITMAP
70
BC
A4
B4
BC
98
E0
ENDCHAR
STARTCHAR ydieresis
ENCODING 255
SWIDTH 805 0
DWIDTH 6 0
BBX 6 9 0 -1
BITMAP
2C
5C
74
B4
BC
D4
78
28
30
ENDCHAR
STARTCHAR Amacron
ENCODING 256
SWIDTH 830 0
DWIDTH 7 0
BBX 6 9 0 -1
BITMAP
38
5C
64
5C
54
BC
A4
BC
FC
ENDCHAR
STARTCHAR amacron
ENCODING 257
SWIDTH 830 0
DWIDTH 7 0
BBX 6 9 0 -1
BITMAP
38
5C
64
5C
54
BC
A4
BC
FC
ENDCHAR
STARTCHAR Abreve
ENCODING 258
SWIDTH 830 0
DWIDTH 7 0
BBX 6 9 0 -1
BITMAP
2C
54
6C
5C
54
BC
A4
BC
FC
ENDCHAR
STARTCHAR abreve
ENCODING 259
SWIDTH 830 0
DWIDTH 7 0
BBX 6 9 0 -1
BITMAP
2C
54
6C
5C
54
BC
A4
BC
FC
ENDCHAR
STARTCHAR Aogonek
ENCODING 260
SWIDTH 830 0
DWIDTH 7 0
BBX 6 9 0 -3
BITMAP
3C
5C
54
BC
A4
BC
F4
14
1C
ENDCHAR
STARTCHAR aogonek
ENCODING 261
SWIDTH 830 0
DWIDTH 7 0
BBX 6 9 0 -3
BITMAP
3C
5C
54
BC
A4
BC
F4
14
1C
ENDCHAR
STARTCHAR Cacute
ENCODING 262
SWIDTH 728 0
DWIDTH 6 0
BBX 6 9 0 -1
BITMAP
3C
5C
64
5C
B8
A0
BC
DC
78
ENDCHAR
STARTCHAR cacute
ENCODING 263
SWIDTH 728 0
DWIDTH 6 0
BBX 6 9 0 -1
BITMAP
3C
5C
64
5C
B8
A0
BC
DC
78
ENDCHAR
STARTCHAR Ccircumflex
ENCODING 264
SWIDTH 728 0
DWIDTH 6 0
BBX 6 9 0 -1
BITMAP
10
7C
44
5C
B8
A0
BC
DC
78
ENDCHAR
STARTCHAR ccircumflex
ENCODING 265
SWIDTH 728 0
DWIDTH 6 0
BBX 6 9 0 -1
BITMAP
10
7C
44
5C
B8
A0
BC
DC
78
ENDCHAR
STARTCHAR Cdotaccent
ENCODING 266
SWIDTH 728 0
DWIDTH 6 0
BBX 6 9 0 -1
BITMAP
18
38
44
5C
B8
A0
BC
DC
78
ENDCHAR
STARTCHAR cdotaccent
ENCODING 267
SWIDTH 728 0
DWIDTH 6 0
BBX 6 9 0 -1
BITMAP
18
38
44
5C
B8
A0
BC
DC
78
ENDCHAR
STARTCHAR Ccaron
ENCODING 268
SWIDTH 728 0
DWIDTH 6 0
BBX 6 9 0 -1
BITMAP
7C
7C
44
5C
B8
A0
BC
DC
78
ENDCHAR
STARTCHAR ccaron
ENCODING 269
SWIDTH 728 0
DWIDTH 6 0
BBX 6 9 0 -1
BITMAP
7C
7C
44
5C
B8
A0
BC
DC
78
ENDCHAR
STARTCHAR Dcaron
ENCODING 270
SWIDTH 846 0
DWIDTH 7 0
BBX 7 9 0 -1
BITMAP
7C
7C
42
BA
BE
BE
B4
BA
FC
ENDCHAR
STARTCHAR dcaron
ENCODING 271
SWIDTH 846 0
DWIDTH 7 0
BBX 7 9 0 -1
BITMAP
7C
7C
42
BA
BE
BE
B4
BA
FC
ENDCHAR
STARTCHAR Dcroat
ENCODING 272
SWIDTH 856 0
DWIDTH 7 0
BBX 7 7 0 -1
BITMAP
7E
FE
DA
AA
DA
FE
FC
ENDCHAR
STARTCHAR dcroat
ENCODING 273
SWIDTH 856 0
DWIDTH 7 0
BBX 7 7 0 -1
BITMAP
7E
FE
DA
AA
DA
FE
FC
ENDCHAR
STARTCHAR Emacron
ENCODING 274
SWIDTH 754 0
DWIDTH 6 0
BBX 6 9 0 -1
BITMAP
38
58
64
BC
B8
B4
BC
BC
F8
ENDCHAR
STARTCHAR emacron
ENCODING 275
SWIDTH 754 0
DWIDTH 6 0
BBX 6 9 0 -1
BITMAP
38
58
64
BC
B8
B4
BC
BC
F8
ENDCHAR
STARTCHAR Ebreve
ENCODING 276
SWIDTH 754 0
DWIDTH 6 0
BBX 6 9 0 -1
BITMAP
28
74
4C
BC
B8
B4
BC
BC
F8
ENDCHAR
STARTCHAR ebreve
ENCODING 277
SWIDTH 754 0
DWIDTH 6 0
BBX 6 9 0 -1
BITMAP
28
74
4C
BC
B8
B4
BC
BC
F8
ENDCHAR
STARTCHAR Edotaccent
ENCODING 278
SWIDTH 754 0
DWIDTH 6 0
BBX 6 9 0 -1
BITMAP
10
78
44
BC
B8
B4
BC
BC
F8
ENDCHAR
STARTCHAR edotaccent
ENCODING 279
SWIDTH 754 0
DWIDTH 6 0
BBX 6 9 0 -1
BITMAP
10
78
44
BC
B8
B4
BC
BC
F8
ENDCHAR
STARTCHAR Eogonek
ENCODING 280
SWIDTH 754 0
DWIDTH 6 0
BBX 6 9 0 -3
BITMAP
7C
BC
B8
B4
BC
BC
FC
14
18
ENDCHAR
STARTCHAR eogonek
ENCODING 281
SWIDTH 754 0
DWIDTH 6 0
BBX 6 9 0 -3
BITMAP
7C
BC
B8
B4
BC
BC
FC
14
18
ENDCHAR
STARTCHAR Ecaron
ENCODING 282
SWIDTH 754 0
DWIDTH 6 0
BBX 6 9 0 -1
BITMAP
7C
7C
4C
BC
B8
B4
BC
BC
F8
ENDCHAR
STARTCHAR ecaron
ENCODING 283
SWIDTH 754 0
DWIDTH 6 0
BBX 6 9 0 -1
BITMAP
7C
7C
4C
BC
B8
B4
BC
BC
F8
ENDCHAR
STARTCHAR Gcircumflex
ENCODING 284
SWIDTH 808 0
DWIDTH 6 0
BBX 6 9 0 -1
BITMAP
10
3C
44
5C
AC
B4
B4
DC
7C
ENDCHAR
STARTCHAR gcircumflex
ENCODING 285
SWIDTH 808 0
DWIDTH 6 0
BBX 6 9 0 -1
BITMAP
10
3C
44
5C
AC
B4
B4
DC
7C
ENDCHAR
STARTCHAR Gbreve
ENCODING 286
SWIDTH 808 0
DWIDTH 6 0
BBX 6 9 0 -1
BITMAP
2C
74
4C
5C
AC
B4
B4
DC
7C
ENDCHAR
STARTCHAR gbreve
ENCODING 287
SWIDTH 808 0
DWIDTH 6 0
BBX 6 9 0 -1
BITMAP
2C
74
4C
5C
AC
B4
B4
DC
7C
ENDCHAR
STARTCHAR Gdotaccent
ENCODING 288
SWIDTH 808 0
DWIDTH 6 0
BBX 6 9 0 -1
BITMAP
18
38
44
5C
AC
B4
B4
DC
7C
ENDCHAR
STARTCHAR gdotaccent
ENCODING 289
SWIDTH 808 0
DWIDTH 6 0
BBX 6 9 0 -1
BITMAP
18
38
44
5C
AC
B4
B4
DC
7C
ENDCHAR
STARTCHAR Gcommaaccent
ENCODING 290
SWIDTH 808 0
DWIDTH 6 0
BBX 6 9 0 -3
BITMAP
7C
44
BC
B4
B4
DC
7C
38
38
ENDCHAR
STARTCHAR gcommaaccent
ENCODING 291
SWIDTH 808 0
DWIDTH 6 0
BBX 6 9 0 -3
BITMAP
7C
44
BC
B4
B4
DC
7C
38
38
ENDCHAR
STARTCHAR Hcircumflex
ENCODING 292
SWIDTH 859 0
DWIDTH 7 0
BBX 7 9 0 -1
BITMAP
10
7C
5A
AE
BE
BE
BE
9A
EC
ENDCHAR
STARTCHAR hcircumflex
ENCODING 293
SWIDTH 859 0
DWIDTH 7 0
BBX 7 9 0 -1
BITMAP
10
7C
5A
AE
BE
BE
BE
9A
EC
ENDCHAR
STARTCHAR Hbar
ENCODING 294
SWIDTH 879 0
DWIDTH 7 0
BBX 7 7 0 -1
BITMAP
7E
BE
DE
C6
FE
DA
EC
ENDCHAR
STARTCHAR hbar
ENCODING 295
SWIDTH 879 0
DWIDTH 7 0
BBX 7 7 0 -1
BITMAP
7E
BE
DE
C6
FE
DA
EC
ENDCHAR
STARTCHAR Itilde
ENCODING 296
SWIDTH 705 0
DWIDTH 6 0
BBX 5 9 0 -1
BITMAP
28
78
98
B8
D0
50
58
B8
F8
ENDCHAR
STARTCHAR itilde
ENCODING 297
SWIDTH 705 0
DWIDTH 6 0
BBX 5 9 0 -1
BITMAP
28
78
98
B8
D0
50
58
B8
F8
ENDCHAR
STARTCHAR Imacron
ENCODING 298
SWIDTH 705 0
DWIDTH 6 0
BBX 5 9 0 -1
BITMAP
38
78
88
B8
D0
50
58
B8
F8
ENDCHAR
STARTCHAR imacron
ENCODING 299
SWIDTH 705 0
DWIDTH 6 0
BBX 5 9 0 -1
BITMAP
38
78
88
B8
D0
50
58
B8
F8
ENDCHAR
STARTCHAR Ibreve
ENCODING 300
SWIDTH 705 0
DWIDTH 6 0
BBX 5 9 0 -1
BITMAP
28
58
A8
B8
D0
50
58
B8
F8
ENDCHAR
STARTCHAR ibreve
ENCODING 301
SWIDTH 705 0
DWIDTH 6 0
BBX 5 9 0 -1
BITMAP
28
58
A8
B8
D0
50
58
B8
F8
ENDCHAR
STARTCHAR Iogonek
ENCODING 302
SWIDTH 705 0
DWIDTH 6 0
BBX 5 9 0 -3
BITMAP
78
B8
D0
50
58
B8
E8
28
38
ENDCHAR
STARTCHAR iogonek
ENCODING 303
SWIDTH 705 0
DWIDTH 6 0
BBX 5 9 0 -3
BITMAP
78
B8
D0
50
58
B8
E8
28
38
ENDCHAR
STARTCHAR Idotaccent
ENCODING 304
SWIDTH 705 0
DWIDTH 6 0
BBX 5 9 0 -1
BITMAP
30
50
68
B8
D0
50
58
B8
F8
ENDCHAR
STARTCHAR dotlessi
ENCODING 305
SWIDTH 705 0
DWIDTH 6 0
BBX 5 7 0 -1
BITMAP
78
B8
D0
50
58
B8
F8
ENDCHAR
STARTCHAR IJ
ENCODING 306
SWIDTH 844 0
DWIDTH 7 0
BBX 6 7 0 -1
BITMAP
7C
BC
BC
DC
64
BC
F8
ENDCHAR
STARTCHAR ij
ENCODING 307
SWIDTH 844 0
DWIDTH 7 0
BBX 6 7 0 -1
BITMAP
7C
BC
BC
DC
64
BC
F8
ENDCHAR
STARTCHAR Jcircumflex
ENCODING 308
SWIDTH 788 0
DWIDTH 6 0
BBX 7 9 0 -1
BITMAP
18
2E
34
1C
7C
BC
BC
D4
78
ENDCHAR
STARTCHAR jcircumflex
ENCODING 309
SWIDTH 788 0
DWIDTH 6 0
BBX 7 9 0 -1
BITMAP
18
2E
34
1C
7C
BC
BC
D4
78
ENDCHAR
STARTCHAR Kcommaaccent
ENCODING 310
SWIDTH 846 0
DWIDTH 7 0
BBX 6 9 0 -3
BITMAP
7C
BC
BC
BC
BC
9C
FC
38
38
ENDCHAR
STARTCHAR kcommaaccent
ENCODING 311
SWIDTH 846 0
DWIDTH 7 0
BBX 6 9 0 -3
BITMAP
7C
BC
BC
BC
BC
9C
FC
38
38
ENDCHAR
STARTCHAR kgreenlandic
ENCODING 312
SWIDTH 846 0
DWIDTH 7 0
BBX 6 7 0 -1
BITMAP
7C
BC
B4
BC
BC
9C
FC
ENDCHAR
STARTCHAR Lacute
ENCODING 313
SWIDTH 795 0
DWIDTH 6 0
BBX 6 9 0 -1
BITMAP
18
68
F0
A0
AC
B4
B4
BC
F8
ENDCHAR
STARTCHAR lacute
ENCODING 314
SWIDTH 795 0
DWIDTH 6 0
BBX 6 9 0 -1
BITMAP
18
68
F0
A0
AC
B4
B4
BC
F8
ENDCHAR
STARTCHAR Lcommaaccent
ENCODING 315
SWIDTH 795 0
DWIDTH 6 0
BBX 6 9 0 -3
BITMAP
70
A0
AC
B4
B4
BC
F8
38
38
ENDCHAR
STARTCHAR lcommaaccent
ENCODING 316
SWIDTH 795 0
DWIDTH 6 0
BBX 6 9 0 -3
BITMAP
70
A0
AC
B4
B4
BC
F8
38
38
ENDCHAR
STARTCHAR Lcaron
ENCODING 317
SWIDTH 795 0
DWIDTH 6 0
BBX 6 7 0 -1
BITMAP
7C
B4
BC
B4
B4
BC
F8
ENDCHAR
STARTCHAR lcaron
ENCODING 318
SWIDTH 795 0
DWIDTH 6 0
BBX 6 7 0 -1
BITMAP
7C
B4
BC
B4
B4
BC
F8
ENDCHAR
STARTCHAR Ldot
ENCODING 319
SWIDTH 795 0
DWIDTH 6 0
BBX 6 7 0 -1
BITMAP
70
AC
B4
BC
B4
BC
FC
ENDCHAR
STARTCHAR ldot
ENCODING 320
SWIDTH 795 0
DWIDTH 6 0
BBX 6 7 0 -1
BITMAP
70
AC
B4
BC
B4
BC
FC
ENDCHAR
STARTCHAR Lslash
ENCODING 321
SWIDTH 805 0
DWIDTH 6 0
BBX 6 7 0 -1
BITMAP
70
F0
AC
B4
F4
FC
FC
ENDCHAR
STARTCHAR lslash
ENCODING 322
SWIDTH 805 0
DWIDTH 6 0
BBX 6 7 0 -1
BITMAP
70
F0
AC
B4
F4
FC
FC
ENDCHAR
STARTCHAR Nacute
ENCODING 323
SWIDTH 853 0
DWIDTH 7 0
BBX 6 9 0 -1
BITMAP
3C
44
7C
AC
B4
BC
B4
9C
FC
ENDCHAR
STARTCHAR nacute
ENCODING 324
SWIDTH 853 0
DWIDTH 7 0
BBX 6 9 0 -1
BITMAP
3C
44
7C
AC
B4
BC
B4
9C
FC
ENDCHAR
STARTCHAR Ncommaaccent
ENCODING 325
SWIDTH 853 0
DWIDTH 7 0
BBX 6 9 0 -3
BITMAP
7C
BC
AC
B4
BC
9C
FC
38
38
ENDCHAR
STARTCHAR ncommaaccent
ENCODING 326
SWIDTH 853 0
DWIDTH 7 0
BBX 6 9 0 -3
BITMAP
7C
BC
AC
B4
BC
9C
FC
38
38
ENDCHAR
STARTCHAR Ncaron
ENCODING 327
SWIDTH 853 0
DWIDTH 7 0
BBX 6 9 0 -1
BITMAP
7C
7C
5C
AC
B4
BC
B4
9C
FC
ENDCHAR
STARTCHAR ncaron
ENCODING 328
SWIDTH 853 0
DWIDTH 7 0
BBX 6 9 0 -1
BITMAP
7C
7C
5C
AC
B4
BC
B4
9C
FC
ENDCHAR
STARTCHAR napostrophe
ENCODING 329
SWIDTH 853 0
DWIDTH 7 0
BBX 6 10 0 -1
BITMAP
60
A0
D0
BC
AC
B4
BC
B4
9C
FC
ENDCHAR
STARTCHAR Eng
ENCODING 330
SWIDTH 846 0
DWIDTH 7 0
BBX 6 8 0 -2
BITMAP
7C
54
BC
BC
BC
94
FC
18
ENDCHAR
STARTCHAR eng
ENCODING 331
SWIDTH 846 0
DWIDTH 7 0
BBX 6 8 0 -2
BITMAP
7C
54
BC
BC
BC
94
FC
18
ENDCHAR
STARTCHAR Omacron
ENCODING 332
SWIDTH 837 0
DWIDTH 7 0
BBX 6 9 0 -1
BITMAP
38
5C
7C
A4
BC
BC
BC
D4
78
ENDCHAR
STARTCHAR omacron
ENCODING 333
SWIDTH 837 0
DWIDTH 7 0
BBX 6 9 0 -1
BITMAP
38
5C
7C
A4
BC
BC
BC
D4
78
ENDCHAR
STARTCHAR Obreve
ENCODING 334
SWIDTH 837 0
DWIDTH 7 0
BBX 6 9 0 -1
BITMAP
2C
54
7C
A4
BC
BC
BC
D4
78
ENDCHAR
STARTCHAR obreve
ENCODING 335
SWIDTH 837 0
DWIDTH 7 0
BBX 6 9 0 -1
BITMAP
2C
54
7C
A4
BC
BC
BC
D4
78
ENDCHAR
STARTCHAR Ohungarumlaut
ENCODING 336
SWIDTH 837 0
DWIDTH 7 0
BBX 6 10 0 -1
BITMAP
34
5C
54
7C
A4
BC
BC
BC
D4
78
ENDCHAR
STARTCHAR ohungarumlaut
ENCODING 337
SWIDTH 837 0
DWIDTH 7 0
BBX 6 10 0 -1
BITMAP
34
5C
54
7C
A4
BC
BC
BC
D4
78
ENDCHAR
STARTCHAR OE
ENCODING 338
SWIDTH 1115 0
DWIDTH 9 0
BBX 9 7 0 -1
BITMAP
7F80
9F80
B700
B680
B780
DF80
7F00
ENDCHAR
STARTCHAR oe
ENCODING 339
SWIDTH 1115 0
DWIDTH 9 0
BBX 9 7 0 -1
BITMAP
7F80
9F80
B700
B680
B780
DF80
7F00
ENDCHAR
STARTCHAR Racute
ENCODING 340
SWIDTH 843 0
DWIDTH 7 0
BBX 7 9 0 -1
BITMAP
28
54
7C
BA
B4
BA
BE
9A
EC
ENDCHAR
STARTCHAR racute
ENCODING 341
SWIDTH 843 0
DWIDTH 7 0
BBX 7 9 0 -1
BITMAP
28
54
7C
BA
B4
BA
BE
9A
EC
ENDCHAR
STARTCHAR Rcommaaccent
ENCODING 342
SWIDTH 843 0
DWIDTH 7 0
BBX 7 9 0 -3
BITMAP
7C
B4
A4
BA
BE
9A
FC
38
38
ENDCHAR
STARTCHAR rcommaaccent
ENCODING 343
SWIDTH 843 0
DWIDTH 7 0
BBX 7 9 0 -3
BITMAP
7C
B4
A4
BA
BE
9A
FC
38
38
ENDCHAR
STARTCHAR Rcaron
ENCODING 344
SWIDTH 843 0
DWIDTH 7 0
BBX 7 9 0 -1
BITMAP
7C
5C
6C
BA
B4
BA
BE
9A
EC
ENDCHAR
STARTCHAR rcaron
ENCODING 345
SWIDTH 843 0
DWIDTH 7 0
BBX 7 9 0 -1
BITMAP
7C
5C
6C
BA
B4
BA
BE
9A
EC
ENDCHAR
STARTCHAR Sacute
ENCODING 346
SWIDTH 750 0
DWIDTH 6 0
BBX 6 9 0 -1
BITMAP
3C
5C
64
5C
A8
D4
FC
B4
F8
ENDCHAR
STARTCHAR sacute
ENCODING 347
SWIDTH 750 0
DWIDTH 6 0
BBX 6 9 0 -1
BITMAP
3C
5C
64
5C
A8
D4
FC
B4
F8
ENDCHAR
STARTCHAR Scircumflex
ENCODING 348
SWIDTH 750 0
DWIDTH 6 0
BBX 6 9 0 -1
BITMAP
10
7C
44
5C
A8
D4
FC
B4
F8
ENDCHAR
STARTCHAR scircumflex
ENCODING 349
SWIDTH 750 0
DWIDTH 6 0
BBX 6 9 0 -1
BITMAP
10
7C
44
5C
A8
D4
FC
B4
F8
ENDCHAR
STARTCHAR Scedilla
ENCODING 350
SWIDTH 750 0
DWIDTH 6 0
BBX 6 8 0 -2
BITMAP
7C
9C
A8
D4
FC
B4
D8
60
ENDCHAR
STARTCHAR scedilla
ENCODING 351
SWIDTH 750 0
DWIDTH 6 0
BBX 6 8 0 -2
BITMAP
7C
9C
A8
D4
FC
B4
D8
60
ENDCHAR
STARTCHAR Scaron
ENCODING 352
SWIDTH 750 0
DWIDTH 6 0
BBX 6 9 0 -1
BITMAP
7C
7C
4C
5C
A8
D4
FC
B4
F8
ENDCHAR
STARTCHAR scaron
ENCODING 353
SWIDTH 750 0
DWIDTH 6 0
BBX 6 9 0 -1
BITMAP
7C
7C
4C
5C
A8
D4
FC
B4
F8
ENDCHAR
STARTCHAR Tcommaaccent
ENCODING 354
SWIDTH 756 0
DWIDTH 6 0
BBX 6 9 0 -3
BITMAP
FC
94
F8
78
78
78
70
78
30
ENDCHAR
STARTCHAR tcommaaccent
ENCODING 355
SWIDTH 756 0
DWIDTH 6 0
BBX 6 9 0 -3
BITMAP
FC
94
F8
78
78
78
70
78
30
ENDCHAR
STARTCHAR Tcaron
ENCODING 356
SWIDTH 756 0
DWIDTH 6 0
BBX 6 9 0 -1
BITMAP
7C
78
44
BC
F8
78
78
68
70
ENDCHAR
STARTCHAR tcaron
ENCODING 357
SWIDTH 756 0
DWIDTH 6 0
BBX 6 9 0 -1
BITMAP
7C
78
44
BC
F8
78
78
68
70
ENDCHAR
STARTCHAR Tbar
ENCODING 358
SWIDTH 756 0
DWIDTH 6 0
BBX 6 7 0 -1
BITMAP
FC
FC
78
78
78
68
70
ENDCHAR
STARTCHAR tbar
ENCODING 359
SWIDTH 756 0
DWIDTH 6 0
BBX 6 7 0 -1
BITMAP
FC
FC
78
78
78
68
70
ENDCHAR
STARTCHAR Utilde
ENCODING 360
SWIDTH 846 0
DWIDTH 7 0
BBX 6 9 0 -1
BITMAP
34
4C
7C
BC
BC
BC
BC
D4
78
ENDCHAR
STARTCHAR utilde
ENCODING 361
SWIDTH 846 0
DWIDTH 7 0
BBX 6 9 0 -1
BITMAP
34
4C
7C
BC
BC
BC
BC
D4
78
ENDCHAR
STARTCHAR Umacron
ENCODING 362
SWIDTH 846 0
DWIDTH 7 0
BBX 6 9 0 -1
BITMAP
3C
5C
7C
BC
BC
BC
BC
D4
78
ENDCHAR
STARTCHAR umacron
ENCODING 363
SWIDTH 846 0
DWIDTH 7 0
BBX 6 9 0 -1
BITMAP
3C
5C
7C
BC
BC
BC
BC
D4
78
ENDCHAR
STARTCHAR Ubreve
ENCODING 364
SWIDTH 846 0
DWIDTH 7 0
BBX 6 9 0 -1
BITMAP
2C
74
5C
BC
BC
BC
BC
D4
78
ENDCHAR
STARTCHAR ubreve
ENCODING 365
SWIDTH 846 0
DWIDTH 7 0
BBX 6 9 0 -1
BITMAP
2C
74
5C
BC
BC
BC
BC
D4
78
ENDCHAR
STARTCHAR Uring
ENCODING 366
SWIDTH 846 0
DWIDTH 7 0
BBX 6 11 0 -1
BITMAP
38
5C
54
7C
5C
BC
BC
BC
B4
DC
78
ENDCHAR
STARTCHAR uring
ENCODING 367
SWIDTH 846 0
DWIDTH 7 0
BBX 6 11 0 -1
BITMAP
38
5C
54
7C
5C
BC
BC
BC
B4
DC
78
ENDCHAR
STARTCHAR Uhungarumlaut
ENCODING 368
SWIDTH 846 0
DWIDTH 7 0
BBX 6 10 0 -1
BITMAP
14
2C
54
7C
BC
BC
BC
BC
D4
78
ENDCHAR
STARTCHAR uhungarumlaut
ENCODING 369
SWIDTH 846 0
DWIDTH 7 0
BBX 6 10 0 -1
BITMAP
14
2C
54
7C
BC
BC
BC
BC
D4
78
ENDCHAR
STARTCHAR Uogonek
ENCODING 370
SWIDTH 846 0
DWIDTH 7 0
BBX 6 9 0 -3
BITMAP
7C
BC
BC
BC
BC
D4
7C
24
38
ENDCHAR
STARTCHAR uogonek
ENCODING 371
SWIDTH 846 0
DWIDTH 7 0
BBX 6 9 0 -3
BITMAP
7C
BC
BC
BC
BC
D4
7C
24
38
ENDCHAR
STARTCHAR Wcircumflex
ENCODING 372
SWIDTH 931 0
DWIDTH 7 0
BBX 7 9 0 -1
BITMAP
18
3C
5A
AA
BA
AA
D6
EE
7C
ENDCHAR
STARTCHAR wcircumflex
ENCODING 373
SWIDTH 931 0
DWIDTH 7 0
BBX 7 9 0 -1
BITMAP
18
3C
5A
AA
BA
AA
D6
EE
7C
ENDCHAR
STARTCHAR Ycircumflex
ENCODING 374
SWIDTH 805 0
DWIDTH 6 0
BBX 6 9 0 -1
BITMAP
38
44
7C
B4
BC
D4
78
28
30
ENDCHAR
STARTCHAR ycircumflex
ENCODING 375
SWIDTH 805 0
DWIDTH 6 0
BBX 6 9 0 -1
BITMAP
38
44
7C
B4
BC
D4
78
28
30
ENDCHAR
STARTCHAR Ydieresis
ENCODING 376
SWIDTH 805 0
DWIDTH 6 0
BBX 6 9 0 -1
BITMAP
2C
5C
74
B4
BC
D4
78
28
30
ENDCHAR
STARTCHAR Zacute
ENCODING 377
SWIDTH 760 0
DWIDTH 6 0
BBX 6 9 0 -1
BITMAP
3C
5C
64
BC
E8
58
6C
BC
F8
ENDCHAR
STARTCHAR zacute
ENCODING 378
SWIDTH 760 0
DWIDTH 6 0
BBX 6 9 0 -1
BITMAP
3C
5C
64
BC
E8
58
6C
BC
F8
ENDCHAR
STARTCHAR Zdotaccent
ENCODING 379
SWIDTH 760 0
DWIDTH 6 0
BBX 6 9 0 -1
BITMAP
10
28
54
BC
E8
58
6C
BC
F8
ENDCHAR
STARTCHAR zdotaccent
ENCODING 380
SWIDTH 760 0
DWIDTH 6 0
BBX 6 9 0 -1
BITMAP
10
28
54
BC
E8
58
6C
BC
F8
ENDCHAR
STARTCHAR Zcaron
ENCODING 381
SWIDTH 760 0
DWIDTH 6 0
BBX 6 9 0 -1
BITMAP
7C
7C
4C
BC
E8
58
6C
BC
F8
ENDCHAR
STARTCHAR zcaron
ENCODING 382
SWIDTH 760 0
DWIDTH 6 0
BBX 6 9 0 -1
BITMAP
7C
7C
4C
BC
E8
58
6C
BC
F8
ENDCHAR
STARTCHAR Schwa
ENCODING 399
SWIDTH 815 0
DWIDTH 7 0
BBX 6 7 0 -1
BITMAP
7C
44
74
BC
B4
DC
78
ENDCHAR
STARTCHAR florin
ENCODING 402
SWIDTH 674 0
DWIDTH 5 0
BBX 5 7 0 -1
BITMAP
38
48
58
B8
D0
B0
E0
ENDCHAR
STARTCHAR Ohorn
ENCODING 416
SWIDTH 847 0
DWIDTH 7 0
BBX 7 8 0 -1
BITMAP
06
7A
A4
BA
BA
BA
D4
78
ENDCHAR
STARTCHAR ohorn
ENCODING 417
SWIDTH 847 0
DWIDTH 7 0
BBX 7 8 0 -1
BITMAP
06
7A
A4
BA
BA
BA
D4
78
ENDCHAR
STARTCHAR Uhorn
ENCODING 431
SWIDTH 856 0
DWIDTH 7 0
BBX 7 8 0 -1
BITMAP
06
7A
BC
BC
BC
BC
D6
78
ENDCHAR
STARTCHAR uhorn
ENCODING 432
SWIDTH 856 0
DWIDTH 7 0
BBX 7 8 0 -1
BITMAP
06
7A
BC
BC
BC
BC
D6
78
ENDCHAR
STARTCHAR Acaron
ENCODING 461
SWIDTH 830 0
DWIDTH 7 0
BBX 6 9 0 -1
BITMAP
7C
7C
44
5C
54
BC
A4
BC
FC
ENDCHAR
STARTCHAR acaron
ENCODING 462
SWIDTH 830 0
DWIDTH 7 0
BBX 6 9 0 -1
BITMAP
7C
7C
44
5C
54
BC
A4
BC
FC
ENDCHAR
STARTCHAR Icaron
ENCODING 463
SWIDTH 705 0
DWIDTH 6 0
BBX 5 9 0 -1
BITMAP
78
78
48
B8
D0
50
58
B8
F8
ENDCHAR
STARTCHAR icaron
ENCODING 464
SWIDTH 705 0
DWIDTH 6 0
BBX 5 9 0 -1
BITMAP
78
78
48
B8
D0
50
58
B8
F8
ENDCHAR
STARTCHAR Ocaron
ENCODING 465
SWIDTH 837 0
DWIDTH 7 0
BBX 6 9 0 -1
BITMAP
7C
5C
7C
A4
BC
BC
BC
D4
78
ENDCHAR
STARTCHAR ocaron
ENCODING 466
SWIDTH 837 0
DWIDTH 7 0
BBX 6 9 0 -1
BITMAP
7C
5C
7C
A4
BC
BC
BC
D4
78
ENDCHAR
STARTCHAR Ucaron
ENCODING 467
SWIDTH 846 0
DWIDTH 7 0
BBX 6 9 0 -1
BITMAP
7C
7C
5C
BC
BC
BC
BC
D4
78
ENDCHAR
STARTCHAR ucaron
ENCODING 468
SWIDTH 846 0
DWIDTH 7 0
BBX 6 9 0 -1
BITMAP
7C
7C
5C
BC
BC
BC
BC
D4
78
ENDCHAR
STARTCHAR Udieresismacron
ENCODING 469
SWIDTH 846 0
DWIDTH 7 0
BBX 6 11 0 -1
BITMAP
38
5C
78
7C
5C
BC
BC
BC
BC
D4
78
ENDCHAR
STARTCHAR udieresismacron
ENCODING 470
SWIDTH 846 0
DWIDTH 7 0
BBX 6 11 0 -1
BITMAP
38
5C
78
7C
5C
BC
BC
BC
BC
D4
78
ENDCHAR
STARTCHAR Udieresisacute
ENCODING 471
SWIDTH 846 0
DWIDTH 7 0
BBX 6 11 0 -1
BITMAP
08
38
3C
7C
5C
BC
BC
BC
BC
D4
78
ENDCHAR
STARTCHAR udieresisacute
ENCODING 472
SWIDTH 846 0
DWIDTH 7 0
BBX 6 11 0 -1
BITMAP
08
38
3C
7C
5C
BC
BC
BC
BC
D4
78
ENDCHAR
STARTCHAR Udieresiscaron
ENCODING 473
SWIDTH 846 0
DWIDTH 7 0
BBX 6 11 0 -1
BITMAP
3C
5C
7C
7C
5C
BC
BC
BC
BC
D4
78
ENDCHAR
STARTCHAR udieresiscaron
ENCODING 474
SWIDTH 846 0
DWIDTH 7 0
BBX 6 11 0 -1
BITMAP
3C
5C
7C
7C
5C
BC
BC
BC
BC
D4
78
ENDCHAR
STARTCHAR Udieresisgrave
ENCODING 475
SWIDTH 846 0
DWIDTH 7 0
BBX 6 11 0 -1
BITMAP
10
28
3C
7C
5C
BC
BC
BC
BC
D4
78
ENDCHAR
STARTCHAR udieresisgrave
ENCODING 476
SWIDTH 846 0
DWIDTH 7 0
BBX 6 11 0 -1
BITMAP
10
28
3C
7C
5C
BC
BC
BC
BC
D4
78
ENDCHAR
STARTCHAR Gcaron
ENCODING 486
SWIDTH 808 0
DWIDTH 6 0
BBX 6 9 0 -1
BITMAP
7C
7C
44
5C
AC
B4
B4
DC
7C
ENDCHAR
STARTCHAR gcaron
ENCODING 487
SWIDTH 808 0
DWIDTH 6 0
BBX 6 9 0 -1
BITMAP
7C
7C
44
5C
AC
B4
B4
DC
7C
ENDCHAR
STARTCHAR Scommaaccent
ENCODING 536
SWIDTH 750 0
DWIDTH 6 0
BBX 6 9 0 -3
BITMAP
7C
B8
A4
FC
4C
B4
F8
38
30
ENDCHAR
STARTCHAR scommaaccent
ENCODING 537
SWIDTH 750 0
DWIDTH 6 0
BBX 6 9 0 -3
BITMAP
7C
B8
A4
FC
4C
B4
F8
38
30
ENDCHAR
STARTCHAR uni021A
ENCODING 538
SWIDTH 756 0
DWIDTH 6 0
BBX 6 9 0 -3
BITMAP
FC
94
F8
78
78
78
70
78
30
ENDCHAR
STARTCHAR uni021B
ENCODING 539
SWIDTH 756 0
DWIDTH 6 0
BBX 6 9 0 -3
BITMAP
FC
94
F8
78
78
78
70
78
30
ENDCHAR
STARTCHAR dotlessj
ENCODING 567
SWIDTH 788 0
DWIDTH 6 0
BBX 6 7 0 -1
BITMAP
1C
1C
7C
BC
BC
D4
78
ENDCHAR
STARTCHAR ascript
ENCODING 593
SWIDTH 846 0
DWIDTH 7 0
BBX 6 7 0 -1
BITMAP
7C
44
BC
BC
BC
DC
7C
ENDCHAR
STARTCHAR schwa
ENCODING 601
SWIDTH 815 0
DWIDTH 7 0
BBX 6 7 0 -1
BITMAP
7C
44
74
BC
B4
DC
78
ENDCHAR
STARTCHAR gscript
ENCODING 609
SWIDTH 815 0
DWIDTH 7 0
BBX 6 7 0 -1
BITMAP
7C
A4
B4
DC
74
5C
78
ENDCHAR
STARTCHAR commaturnedmod
ENCODING 699
SWIDTH 600 0
DWIDTH 5 0
BBX 3 4 1 2
BITMAP
60
E0
A0
C0
ENDCHAR
STARTCHAR apostrophemod
ENCODING 700
SWIDTH 600 0
DWIDTH 5 0
BBX 3 3 1 3
BITMAP
60
E0
E0
ENDCHAR
STARTCHAR ringhalfright
ENCODING 702
SWIDTH 412 0
DWIDTH 3 0
BBX 3 4 0 2
BITMAP
E0
E0
A0
C0
ENDCHAR
STARTCHAR ringhalfleft
ENCODING 703
SWIDTH 412 0
DWIDTH 3 0
BBX 3 4 0 2
BITMAP
60
A0
A0
C0
ENDCHAR
STARTCHAR circumflex
ENCODING 710
SWIDTH 600 0
DWIDTH 5 0
BBX 5 4 0 5
BITMAP
30
68
F8
90
ENDCHAR
STARTCHAR caron
ENCODING 711
SWIDTH 600 0
DWIDTH 5 0
BBX 5 3 0 5
BITMAP
F8
B8
F0
ENDCHAR
STARTCHAR verticallinemod
ENCODING 712
SWIDTH 456 0
DWIDTH 4 0
BBX 3 4 0 2
BITMAP
60
A0
A0
E0
ENDCHAR
STARTCHAR firsttonechinese
ENCODING 713
SWIDTH 600 0
DWIDTH 5 0
BBX 5 3 0 5
BITMAP
78
B8
F0
ENDCHAR
STARTCHAR secondtonechinese
ENCODING 714
SWIDTH 600 0
DWIDTH 5 0
BBX 5 3 0 5
BITMAP
78
98
F0
ENDCHAR
STARTCHAR fourthtonechinese
ENCODING 715
SWIDTH 600 0
DWIDTH 5 0
BBX 5 3 0 5
BITMAP
70
A8
F0
ENDCHAR
STARTCHAR verticallinelowmod
ENCODING 716
SWIDTH 456 0
DWIDTH 4 0
BBX 3 4 0 -2
BITMAP
60
A0
A0
E0
ENDCHAR
STARTCHAR breve
ENCODING 728
SWIDTH 600 0
DWIDTH 5 0
BBX 5 3 0 5
BITMAP
58
A8
F0
ENDCHAR
STARTCHAR dotaccent
ENCODING 729
SWIDTH 600 0
DWIDTH 5 0
BBX 3 3 1 5
BITMAP
60
E0
C0
ENDCHAR
STARTCHAR ring
ENCODING 730
SWIDTH 600 0
DWIDTH 5 0
BBX 5 5 0 5
BITMAP
70
B8
A8
B8
F0
ENDCHAR
STARTCHAR ogonek
ENCODING 731
SWIDTH 600 0
DWIDTH 5 0
BBX 3 4 1 -3
BITMAP
60
A0
A0
C0
ENDCHAR
STARTCHAR tilde
ENCODING 732
SWIDTH 600 0
DWIDTH 5 0
BBX 5 3 0 5
BITMAP
68
98
F0
ENDCHAR
STARTCHAR hungarumlaut
ENCODING 733
SWIDTH 600 0
DWIDTH 5 0
BBX 5 4 0 5
BITMAP
78
F8
A8
F0
ENDCHAR
STARTCHAR gravecmb
ENCODING 768
SWIDTH 100 0
DWIDTH 1 0
BBX 5 3 -2 5
BITMAP
70
A8
F0
ENDCHAR
STARTCHAR acutecmb
ENCODING 769
SWIDTH 100 0
DWIDTH 1 0
BBX 5 3 -2 5
BITMAP
78
98
F0
ENDCHAR
STARTCHAR circumflexcmb
ENCODING 770
SWIDTH 100 0
DWIDTH 1 0
BBX 5 4 -2 5
BITMAP
30
68
F8
90
ENDCHAR
STARTCHAR tildecmb
ENCODING 771
SWIDTH 100 0
DWIDTH 1 0
BBX 5 3 -2 5
BITMAP
68
98
F0
ENDCHAR
STARTCHAR uni0304
ENCODING 772
SWIDTH 600 0
DWIDTH 5 0
BBX 5 3 0 5
BITMAP
78
B8
F0
ENDCHAR
STARTCHAR brevecmb
ENCODING 774
SWIDTH 100 0
DWIDTH 1 0
BBX 5 3 -2 5
BITMAP
58
A8
F0
ENDCHAR
STARTCHAR dotaccentcmb
ENCODING 775
SWIDTH 100 0
DWIDTH 1 0
BBX 3 3 -1 5
BITMAP
60
E0
C0
ENDCHAR
STARTCHAR dieresiscmb
ENCODING 776
SWIDTH 100 0
DWIDTH 1 0
BBX 5 3 -2 5
BITMAP
78
F8
F0
ENDCHAR
STARTCHAR hookcmb
ENCODING 777
SWIDTH 100 0
DWIDTH 1 0
BBX 3 3 -1 5
BITMAP
60
A0
E0
ENDCHAR
STARTCHAR ringcmb
ENCODING 778
SWIDTH 100 0
DWIDTH 1 0
BBX 5 5 -2 5
BITMAP
70
B8
A8
B8
F0
ENDCHAR
STARTCHAR hungarumlautcmb
ENCODING 779
SWIDTH 100 0
DWIDTH 1 0
BBX 5 4 -2 5
BITMAP
28
58
A8
F0
ENDCHAR
STARTCHAR caroncmb
ENCODING 780
SWIDTH 100 0
DWIDTH 1 0
BBX 5 3 -2 5
BITMAP
F8
B8
F0
ENDCHAR
STARTCHAR horncmb
ENCODING 795
SWIDTH 100 0
DWIDTH 1 0
BBX 3 3 -1 4
BITMAP
60
A0
C0
ENDCHAR
STARTCHAR dotbelowcmb
ENCODING 803
SWIDTH 100 0
DWIDTH 1 0
BBX 3 3 -1 -3
BITMAP
60
E0
C0
ENDCHAR
STARTCHAR dieresisbelowcmb
ENCODING 804
SWIDTH 100 0
DWIDTH 1 0
BBX 5 3 -2 -3
BITMAP
78
F8
F0
ENDCHAR
STARTCHAR commaaccent
ENCODING 806
SWIDTH 600 0
DWIDTH 5 0
BBX 3 3 1 -3
BITMAP
60
E0
E0
ENDCHAR
STARTCHAR cedillacmb
ENCODING 807
SWIDTH 100 0
DWIDTH 1 0
BBX 3 3 -1 -2
BITMAP
E0
A0
C0
ENDCHAR
STARTCHAR ogonekcmb
ENCODING 808
SWIDTH 100 0
DWIDTH 1 0
BBX 3 4 -1 -3
BITMAP
60
E0
A0
E0
ENDCHAR
STARTCHAR brevebelowcmb
ENCODING 814
SWIDTH 100 0
DWIDTH 1 0
BBX 5 3 -2 -3
BITMAP
58
A8
F0
ENDCHAR
STARTCHAR macronbelowcmb
ENCODING 817
SWIDTH 100 0
DWIDTH 1 0
BBX 5 3 -2 -3
BITMAP
78
B8
F0
ENDCHAR
STARTCHAR uni0394
ENCODING 916
SWIDTH 830 0
DWIDTH 7 0
BBX 6 7 0 -1
BITMAP
3C
7C
5C
74
AC
9C
FC
ENDCHAR
STARTCHAR uni03A9
ENCODING 937
SWIDTH 877 0
DWIDTH 7 0
BBX 7 7 0 -1
BITMAP
3E
66
FE
EE
BE
8A
FC
ENDCHAR
STARTCHAR uni03BC
ENCODING 956
SWIDTH 813 0
DWIDTH 7 0
BBX 6 7 0 -2
BITMAP
6C
B4
B4
B4
BC
B8
C0
ENDCHAR
STARTCHAR pi
ENCODING 960
SWIDTH 821 0
DWIDTH 7 0
BBX 6 6 0 -1
BITMAP
7C
BC
B4
B4
94
FC
ENDCHAR
STARTCHAR Ddotbelow
ENCODING 7692
SWIDTH 846 0
DWIDTH 7 0
BBX 7 9 0 -3
BITMAP
7C
BA
BE
BE
B6
BA
FC
38
30
ENDCHAR
STARTCHAR ddotbelow
ENCODING 7693
SWIDTH 846 0
DWIDTH 7 0
BBX 7 9 0 -3
BITMAP
7C
BA
BE
BE
B6
BA
FC
38
30
ENDCHAR
STARTCHAR Dlinebelow
ENCODING 7694
SWIDTH 846 0
DWIDTH 7 0
BBX 7 9 0 -3
BITMAP
7C
BA
BE
BE
B6
BA
FC
5C
78
ENDCHAR
STARTCHAR dlinebelow
ENCODING 7695
SWIDTH 846 0
DWIDTH 7 0
BBX 7 9 0 -3
BITMAP
7C
BA
BE
BE
B6
BA
FC
5C
78
ENDCHAR
STARTCHAR Gmacron
ENCODING 7712
SWIDTH 808 0
DWIDTH 6 0
BBX 6 9 0 -1
BITMAP
3C
5C
64
5C
AC
B4
B4
DC
7C
ENDCHAR
STARTCHAR gmacron
ENCODING 7713
SWIDTH 808 0
DWIDTH 6 0
BBX 6 9 0 -1
BITMAP
3C
5C
64
5C
AC
B4
B4
DC
7C
ENDCHAR
STARTCHAR Hdotbelow
ENCODING 7716
SWIDTH 859 0
DWIDTH 7 0
BBX 7 9 0 -3
BITMAP
7E
AE
BE
BE
BE
9A
FC
38
30
ENDCHAR
STARTCHAR hdotbelow
ENCODING 7717
SWIDTH 859 0
DWIDTH 7 0
BBX 7 9 0 -3
BITMAP
7E
AE
BE
BE
BE
9A
FC
38
30
ENDCHAR
STARTCHAR Hbrevebelow
ENCODING 7722
SWIDTH 859 0
DWIDTH 7 0
BBX 7 9 0 -3
BITMAP
7E
AE
BE
BE
BE
9A
EC
54
78
ENDCHAR
STARTCHAR hbrevebelow
ENCODING 7723
SWIDTH 859 0
DWIDTH 7 0
BBX 7 9 0 -3
BITMAP
7E
AE
BE
BE
BE
9A
EC
54
78
ENDCHAR
STARTCHAR Ldotbelow
ENCODING 7734
SWIDTH 795 0
DWIDTH 6 0
BBX 6 9 0 -3
BITMAP
70
A0
AC
B4
B4
BC
F8
38
30
ENDCHAR
STARTCHAR ldotbelow
ENCODING 7735
SWIDTH 795 0
DWIDTH 6 0
BBX 6 9 0 -3
BITMAP
70
A0
AC
B4
B4
BC
F8
38
30
ENDCHAR
STARTCHAR Ldotbelowmacron
ENCODING 7736
SWIDTH 795 0
DWIDTH 6 0
BBX 6 11 0 -3
BITMAP
38
58
78
A0
AC
B4
B4
BC
F8
38
30
ENDCHAR
STARTCHAR ldotbelowmacron
ENCODING 7737
SWIDTH 795 0
DWIDTH 6 0
BBX 6 11 0 -3
BITMAP
38
58
78
A0
AC
B4
B4
BC
F8
38
30
ENDCHAR
STARTCHAR Llinebelow
ENCODING 7738
SWIDTH 795 0
DWIDTH 6 0
BBX 6 9 0 -3
BITMAP
70
A0
AC
B4
B4
BC
FC
44
78
ENDCHAR
STARTCHAR llinebelow
ENCODING 7739
SWIDTH 795 0
DWIDTH 6 0
BBX 6 9 0 -3
BITMAP
70
A0
AC
B4
B4
BC
FC
44
78
ENDCHAR
STARTCHAR Mdotbelow
ENCODING 7746
SWIDTH 949 0
DWIDTH 8 0
BBX 7 9 0 -3
BITMAP
76
AE
B6
AA
BA
9A
FE
28
38
ENDCHAR
STARTCHAR mdotbelow
ENCODING 7747
SWIDTH 949 0
DWIDTH 8 0
BBX 7 9 0 -3
BITMAP
76
AE
B6
AA
BA
9A
FE
28
38
ENDCHAR
STARTCHAR Ndotaccent
ENCODING 7748
SWIDTH 853 0
DWIDTH 7 0
BBX 6 9 0 -1
BITMAP
18
38
5C
AC
B4
BC
B4
9C
FC
ENDCHAR
STARTCHAR ndotaccent
ENCODING 7749
SWIDTH 853 0
DWIDTH 7 0
BBX 6 9 0 -1
BITMAP
18
38
5C
AC
B4
BC
B4
9C
FC
ENDCHAR
STARTCHAR Ndotbelow
ENCODING 7750
SWIDTH 853 0
DWIDTH 7 0
BBX 6 9 0 -3
BITMAP
7C
AC
B4
BC
B4
9C
FC
38
30
ENDCHAR
STARTCHAR ndotbelow
ENCODING 7751
SWIDTH 853 0
DWIDTH 7 0
BBX 6 9 0 -3
BITMAP
7C
AC
B4
BC
B4
9C
FC
38
30
ENDCHAR
STARTCHAR Nlinebelow
ENCODING 7752
SWIDTH 853 0
DWIDTH 7 0
BBX 6 9 0 -3
BITMAP
7C
AC
B4
BC
B4
9C
FC
44
78
ENDCHAR
STARTCHAR nlinebelow
ENCODING 7753
SWIDTH 853 0
DWIDTH 7 0
BBX 6 9 0 -3
BITMAP
7C
AC
B4
BC
B4
9C
FC
44
78
ENDCHAR
STARTCHAR Rdotbelow
ENCODING 7770
SWIDTH 843 0
DWIDTH 7 0
BBX 7 9 0 -3
BITMAP
7C
BA
B4
BA
BE
9A
FC
28
30
ENDCHAR
STARTCHAR rdotbelow
ENCODING 7771
SWIDTH 843 0
DWIDTH 7 0
BBX 7 9 0 -3
BITMAP
7C
BA
B4
BA
BE
9A
FC
28
30
ENDCHAR
STARTCHAR Rdotbelowmacron
ENCODING 7772
SWIDTH 843 0
DWIDTH 7 0
BBX 7 11 0 -3
BITMAP
38
58
64
BA
B4
BA
BE
9A
FC
28
30
ENDCHAR
STARTCHAR rdotbelowmacron
ENCODING 7773
SWIDTH 843 0
DWIDTH 7 0
BBX 7 11 0 -3
BITMAP
38
58
64
BA
B4
BA
BE
9A
FC
28
30
ENDCHAR
STARTCHAR Rlinebelow
ENCODING 7774
SWIDTH 843 0
DWIDTH 7 0
BBX 7 9 0 -3
BITMAP
7C
A4
B4
BA
BE
AE
FC
44
78
ENDCHAR
STARTCHAR rlinebelow
ENCODING 7775
SWIDTH 843 0
DWIDTH 7 0
BBX 7 9 0 -3
BITMAP
7C
A4
B4
BA
BE
AE
FC
44
78
ENDCHAR
STARTCHAR Sdotaccent
ENCODING 7776
SWIDTH 750 0
DWIDTH 6 0
BBX 6 9 0 -1
BITMAP
10
28
54
5C
A8
D4
FC
B4
F8
ENDCHAR
STARTCHAR sdotaccent
ENCODING 7777
SWIDTH 750 0
DWIDTH 6 0
BBX 6 9 0 -1
BITMAP
10
28
54
5C
A8
D4
FC
B4
F8
ENDCHAR
STARTCHAR Sdotbelow
ENCODING 7778
SWIDTH 750 0
DWIDTH 6 0
BBX 6 9 0 -3
BITMAP
7C
9C
B8
D4
FC
B4
F8
38
30
ENDCHAR
STARTCHAR sdotbelow
ENCODING 7779
SWIDTH 750 0
DWIDTH 6 0
BBX 6 9 0 -3
BITMAP
7C
9C
B8
D4
FC
B4
F8
38
30
ENDCHAR
STARTCHAR Tdotbelow
ENCODING 7788
SWIDTH 756 0
DWIDTH 6 0
BBX 6 9 0 -3
BITMAP
FC
BC
F8
78
78
78
70
38
30
ENDCHAR
STARTCHAR tdotbelow
ENCODING 7789
SWIDTH 756 0
DWIDTH 6 0
BBX 6 9 0 -3
BITMAP
FC
BC
F8
78
78
78
70
38
30
ENDCHAR
STARTCHAR Tlinebelow
ENCODING 7790
SWIDTH 756 0
DWIDTH 6 0
BBX 6 9 0 -3
BITMAP
FC
94
F8
78
78
78
78
44
78
ENDCHAR
STARTCHAR tlinebelow
ENCODING 7791
SWIDTH 756 0
DWIDTH 6 0
BBX 6 9 0 -3
BITMAP
FC
94
F8
78
78
78
78
44
78
ENDCHAR
STARTCHAR Wgrave
ENCODING 7808
SWIDTH 931 0
DWIDTH 7 0
BBX 7 9 0 -1
BITMAP
3C
64
5A
AA
BA
AA
D6
EE
7C
ENDCHAR
STARTCHAR wgrave
ENCODING 7809
SWIDTH 931 0
DWIDTH 7 0
BBX 7 9 0 -1
BITMAP
3C
64
5A
AA
BA
AA
D6
EE
7C
ENDCHAR
STARTCHAR Wacute
ENCODING 7810
SWIDTH 931 0
DWIDTH 7 0
BBX 7 9 0 -1
BITMAP
1E
24
5A
AA
BA
AA
D6
EE
7C
ENDCHAR
STARTCHAR wacute
ENCODING 7811
SWIDTH 931 0
DWIDTH 7 0
BBX 7 9 0 -1
BITMAP
1E
24
5A
AA
BA
AA
D6
EE
7C
ENDCHAR
STARTCHAR Wdieresis
ENCODING 7812
SWIDTH 931 0
DWIDTH 7 0
BBX 7 9 0 -1
BITMAP
3C
54
7A
AA
BA
AA
B6
EE
7C
ENDCHAR
STARTCHAR wdieresis
ENCODING 7813
SWIDTH 931 0
DWIDTH 7 0
BBX 7 9 0 -1
BITMAP
3C
54
7A
AA
BA
AA
B6
EE
7C
ENDCHAR
STARTCHAR Ydotaccent
ENCODING 7822
SWIDTH 805 0
DWIDTH 6 0
BBX 6 9 0 -1
BITMAP
18
38
54
B4
B4
DC
78
28
30
ENDCHAR
STARTCHAR ydotaccent
ENCODING 7823
SWIDTH 805 0
DWIDTH 6 0
BBX 6 9 0 -1
BITMAP
18
38
54
B4
B4
DC
78
28
30
ENDCHAR
STARTCHAR Zdotbelow
ENCODING 7826
SWIDTH 760 0
DWIDTH 6 0
BBX 6 9 0 -3
BITMAP
7C
BC
E8
38
6C
BC
F8
38
30
ENDCHAR
STARTCHAR zdotbelow
ENCODING 7827
SWIDTH 760 0
DWIDTH 6 0
BBX 6 9 0 -3
BITMAP
7C
BC
E8
38
6C
BC
F8
38
30
ENDCHAR
STARTCHAR tdieresis
ENCODING 7831
SWIDTH 756 0
DWIDTH 6 0
BBX 6 9 0 -1
BITMAP
28
78
84
BC
F8
78
78
68
70
ENDCHAR
STARTCHAR Germandbls
ENCODING 7838
SWIDTH 859 0
DWIDTH 7 0
BBX 7 7 0 -1
BITMAP
7C
BC
BC
BA
BE
BA
FC
ENDCHAR
STARTCHAR Adotbelow
ENCODING 7840
SWIDTH 830 0
DWIDTH 7 0
BBX 6 9 0 -3
BITMAP
3C
5C
54
BC
A4
BC
FC
38
30
ENDCHAR
STARTCHAR adotbelow
ENCODING 7841
SWIDTH 830 0
DWIDTH 7 0
BBX 6 9 0 -3
BITMAP
3C
5C
54
BC
A4
BC
FC
38
30
ENDCHAR
STARTCHAR Ahookabove
ENCODING 7842
SWIDTH 830 0
DWIDTH 7 0
BBX 6 10 0 -1
BITMAP
18
34
3C
2C
5C
54
BC
A4
BC
FC
ENDCHAR
STARTCHAR ahookabove
ENCODING 7843
SWIDTH 830 0
DWIDTH 7 0
BBX 6 10 0 -1
BITMAP
18
34
3C
2C
5C
54
BC
A4
BC
FC
ENDCHAR
STARTCHAR Acircumflexacute
ENCODING 7844
SWIDTH 830 0
DWIDTH 7 0
BBX 6 11 0 -1
BITMAP
0C
14
3C
7C
44
5C
54
BC
A4
BC
FC
ENDCHAR
STARTCHAR acircumflexacute
ENCODING 7845
SWIDTH 830 0
DWIDTH 7 0
BBX 6 11 0 -1
BITMAP
0C
14
3C
7C
44
5C
54
BC
A4
BC
FC
ENDCHAR
STARTCHAR Acircumflexgrave
ENCODING 7846
SWIDTH 830 0
DWIDTH 7 0
BBX 6 11 0 -1
BITMAP
08
14
3C
7C
44
5C
54
BC
A4
BC
FC
ENDCHAR
STARTCHAR acircumflexgrave
ENCODING 7847
SWIDTH 830 0
DWIDTH 7 0
BBX 6 11 0 -1
BITMAP
08
14
3C
7C
44
5C
54
BC
A4
BC
FC
ENDCHAR
STARTCHAR Acircumflexhookabove
ENCODING 7848
SWIDTH 830 0
DWIDTH 7 0
BBX 7 12 0 -1
BITMAP
0C
16
1A
34
7C
44
5C
54
BA
A4
BA
FC
ENDCHAR
STARTCHAR acircumflexhookabove
ENCODING 7849
SWIDTH 830 0
DWIDTH 7 0
BBX 7 12 0 -1
BITMAP
0C
16
1A
34
7C
44
5C
54
BA
A4
BA
FC
ENDCHAR
STARTCHAR Acircumflextilde
ENCODING 7850
SWIDTH 830 0
DWIDTH 7 0
BBX 6 11 0 -1
BITMAP
34
6C
54
7C
44
5C
54
BC
A4
BC
FC
ENDCHAR
STARTCHAR acircumflextilde
ENCODING 7851
SWIDTH 830 0
DWIDTH 7 0
BBX 6 11 0 -1
BITMAP
34
6C
54
7C
44
5C
54
BC
A4
BC
FC
ENDCHAR
STARTCHAR Acircumflexdotbelow
ENCODING 7852
SWIDTH 830 0
DWIDTH 7 0
BBX 6 11 0 -3
BITMAP
10
7C
44
5C
54
BC
A4
BC
FC
38
30
ENDCHAR
STARTCHAR acircumflexdotbelow
ENCODING 7853
SWIDTH 830 0
DWIDTH 7 0
BBX 6 11 0 -3
BITMAP
10
7C
44
5C
54
BC
A4
BC
FC
38
30
ENDCHAR
STARTCHAR Abreveacute
ENCODING 7854
SWIDTH 830 0
DWIDTH 7 0
BBX 6 11 0 -1
BITMAP
08
18
3C
54
6C
5C
54
BC
A4
BC
FC
ENDCHAR
STARTCHAR abreveacute
ENCODING 7855
SWIDTH 830 0
DWIDTH 7 0
BBX 6 11 0 -1
BITMAP
08
18
3C
54
6C
5C
54
BC
A4
BC
FC
ENDCHAR
STARTCHAR Abrevegrave
ENCODING 7856
SWIDTH 830 0
DWIDTH 7 0
BBX 6 11 0 -1
BITMAP
10
28
7C
54
6C
5C
54
BC
A4
BC
FC
ENDCHAR
STARTCHAR abrevegrave
ENCODING 7857
SWIDTH 830 0
DWIDTH 7 0
BBX 6 11 0 -1
BITMAP
10
28
7C
54
6C
5C
54
BC
A4
BC
FC
ENDCHAR
STARTCHAR Abrevehookabove
ENCODING 7858
SWIDTH 830 0
DWIDTH 7 0
BBX 6 12 0 -1
BITMAP
18
38
28
3C
54
6C
5C
54
BC
A4
BC
FC
ENDCHAR
STARTCHAR abrevehookabove
ENCODING 7859
SWIDTH 830 0
DWIDTH 7 0
BBX 6 12 0 -1
BITMAP
18
38
28
3C
54
6C
5C
54
BC
A4
BC
FC
ENDCHAR
STARTCHAR Abrevetilde
ENCODING 7860
SWIDTH 830 0
DWIDTH 7 0
BBX 6 11 0 -1
BITMAP
34
4C
7C
54
6C
5C
54
BC
A4
BC
FC
ENDCHAR
STARTCHAR abrevetilde
ENCODING 7861
SWIDTH 830 0
DWIDTH 7 0
BBX 6 11 0 -1
BITMAP
34
4C
7C
54
6C
5C
54
BC
A4
BC
FC
ENDCHAR
STARTCHAR Abrevedotbelow
ENCODING 7862
SWIDTH 830 0
DWIDTH 7 0
BBX 6 11 0 -3
BITMAP
2C
54
6C
5C
54
BC
A4
BC
FC
38
30
ENDCHAR
STARTCHAR abrevedotbelow
ENCODING 7863
SWIDTH 830 0
DWIDTH 7 0
BBX 6 11 0 -3
BITMAP
2C
54
6C
5C
54
BC
A4
BC
FC
38
30
ENDCHAR
STARTCHAR Edotbelow
ENCODING 7864
SWIDTH 754 0
DWIDTH 6 0
BBX 6 9 0 -3
BITMAP
7C
BC
B8
B4
BC
BC
F8
38
30
ENDCHAR
STARTCHAR edotbelow
ENCODING 7865
SWIDTH 754 0
DWIDTH 6 0
BBX 6 9 0 -3
BITMAP
7C
BC
B8
B4
BC
BC
F8
38
30
ENDCHAR
STARTCHAR Ehookabove
ENCODING 7866
SWIDTH 754 0
DWIDTH 6 0
BBX 6 10 0 -1
BITMAP
30
58
68
54
BC
B8
B4
BC
BC
F8
ENDCHAR
STARTCHAR ehookabove
ENCODING 7867
SWIDTH 754 0
DWIDTH 6 0
BBX 6 10 0 -1
BITMAP
30
58
68
54
BC
B8
B4
BC
BC
F8
ENDCHAR
STARTCHAR Etilde
ENCODING 7868
SWIDTH 754 0
DWIDTH 6 0
BBX 6 9 0 -1
BITMAP
24
7C
4C
BC
B8
B4
BC
BC
F8
ENDCHAR
STARTCHAR etilde
ENCODING 7869
SWIDTH 754 0
DWIDTH 6 0
BBX 6 9 0 -1
BITMAP
24
7C
4C
BC
B8
B4
BC
BC
F8
ENDCHAR
STARTCHAR Ecircumflexacute
ENCODING 7870
SWIDTH 754 0
DWIDTH 6 0
BBX 6 11 0 -1
BITMAP
0C
14
3C
7C
44
BC
B8
B4
BC
BC
F8
ENDCHAR
STARTCHAR ecircumflexacute
ENCODING 7871
SWIDTH 754 0
DWIDTH 6 0
BBX 6 11 0 -1
BITMAP
0C
14
3C
7C
44
BC
B8
B4
BC
BC
F8
ENDCHAR
STARTCHAR Ecircumflexgrave
ENCODING 7872
SWIDTH 754 0
DWIDTH 6 0
BBX 6 11 0 -1
BITMAP
08
14
3C
7C
44
BC
B8
B4
BC
BC
F8
ENDCHAR
STARTCHAR ecircumflexgrave
ENCODING 7873
SWIDTH 754 0
DWIDTH 6 0
BBX 6 11 0 -1
BITMAP
08
14
3C
7C
44
BC
B8
B4
BC
BC
F8
ENDCHAR
STARTCHAR Ecircumflexhookabove
ENCODING 7874
SWIDTH 754 0
DWIDTH 6 0
BBX 6 12 0 -1
BITMAP
0C
1C
1C
74
7C
44
BC
B8
B4
BC
BC
F8
ENDCHAR
STARTCHAR ecircumflexhookabove
ENCODING 7875
SWIDTH 754 0
DWIDTH 6 0
BBX 6 12 0 -1
BITMAP
0C
1C
1C
74
7C
44
BC
B8
B4
BC
BC
F8
ENDCHAR
STARTCHAR Ecircumflextilde
ENCODING 7876
SWIDTH 754 0
DWIDTH 6 0
BBX 6 11 0 -1
BITMAP
24
7C
54
7C
44
BC
B8
B4
BC
BC
F8
ENDCHAR
STARTCHAR ecircumflextilde
ENCODING 7877
SWIDTH 754 0
DWIDTH 6 0
BBX 6 11 0 -1
BITMAP
24
7C
54
7C
44
BC
B8
B4
BC
BC
F8
ENDCHAR
STARTCHAR Ecircumflexdotbelow
ENCODING 7878
SWIDTH 754 0
DWIDTH 6 0
BBX 6 11 0 -3
BITMAP
10
7C
44
BC
B8
B4
BC
BC
F8
38
70
ENDCHAR
STARTCHAR ecircumflexdotbelow
ENCODING 7879
SWIDTH 754 0
DWIDTH 6 0
BBX 6 11 0 -3
BITMAP
10
7C
44
BC
B8
B4
BC
BC
F8
38
70
ENDCHAR
STARTCHAR Ihookabove
ENCODING 7880
SWIDTH 705 0
DWIDTH 6 0
BBX 5 10 0 -1
BITMAP
30
58
68
58
B8
D0
50
58
B8
F8
ENDCHAR
STARTCHAR ihookabove
ENCODING 7881
SWIDTH 705 0
DWIDTH 6 0
BBX 5 10 0 -1
BITMAP
30
58
68
58
B8
D0
50
58
B8
F8
ENDCHAR
STARTCHAR Idotbelow
ENCODING 7882
SWIDTH 705 0
DWIDTH 6 0
BBX 5 9 0 -3
BITMAP
78
B8
D0
50
58
B8
F8
50
70
ENDCHAR
STARTCHAR idotbelow
ENCODING 7883
SWIDTH 705 0
DWIDTH 6 0
BBX 5 9 0 -3
BITMAP
78
B8
D0
50
58
B8
F8
50
70
ENDCHAR
STARTCHAR Odotbelow
ENCODING 7884
SWIDTH 837 0
DWIDTH 7 0
BBX 6 9 0 -3
BITMAP
7C
44
BC
BC
BC
D4
F8
38
30
ENDCHAR
STARTCHAR odotbelow
ENCODING 7885
SWIDTH 837 0
DWIDTH 7 0
BBX 6 9 0 -3
BITMAP
7C
44
BC
BC
BC
D4
F8
38
30
ENDCHAR
STARTCHAR Ohookabove
ENCODING 7886
SWIDTH 837 0
DWIDTH 7 0
BBX 6 10 0 -1
BITMAP
18
34
28
3C
44
BC
BC
BC
D4
78
ENDCHAR
STARTCHAR ohookabove
ENCODING 7887
SWIDTH 837 0
DWIDTH 7 0
BBX 6 10 0 -1
BITMAP
18
34
28
3C
44
BC
BC
BC
D4
78
ENDCHAR
STARTCHAR Ocircumflexacute
ENCODING 7888
SWIDTH 837 0
DWIDTH 7 0
BBX 6 11 0 -1
BITMAP
0C
14
3C
7C
5C
A4
BC
BC
BC
D4
78
ENDCHAR
STARTCHAR ocircumflexacute
ENCODING 7889
SWIDTH 837 0
DWIDTH 7 0
BBX 6 11 0 -1
BITMAP
0C
14
3C
7C
5C
A4
BC
BC
BC
D4
78
ENDCHAR
STARTCHAR Ocircumflexgrave
ENCODING 7890
SWIDTH 837 0
DWIDTH 7 0
BBX 6 11 0 -1
BITMAP
08
14
3C
7C
5C
A4
BC
BC
BC
D4
78
ENDCHAR
STARTCHAR ocircumflexgrave
ENCODING 7891
SWIDTH 837 0
DWIDTH 7 0
BBX 6 11 0 -1
BITMAP
08
14
3C
7C
5C
A4
BC
BC
BC
D4
78
ENDCHAR
STARTCHAR Ocircumflexhookabove
ENCODING 7892
SWIDTH 837 0
DWIDTH 7 0
BBX 7 12 0 -1
BITMAP
0C
16
1A
34
7C
5A
A4
BA
BA
BA
D4
78
ENDCHAR
STARTCHAR ocircumflexhookabove
ENCODING 7893
SWIDTH 837 0
DWIDTH 7 0
BBX 7 12 0 -1
BITMAP
0C
16
1A
34
7C
5A
A4
BA
BA
BA
D4
78
ENDCHAR
STARTCHAR Ocircumflextilde
ENCODING 7894
SWIDTH 837 0
DWIDTH 7 0
BBX 6 11 0 -1
BITMAP
34
6C
54
7C
5C
A4
BC
BC
BC
D4
78
ENDCHAR
STARTCHAR ocircumflextilde
ENCODING 7895
SWIDTH 837 0
DWIDTH 7 0
BBX 6 11 0 -1
BITMAP
34
6C
54
7C
5C
A4
BC
BC
BC
D4
78
ENDCHAR
STARTCHAR Ocircumflexdotbelow
ENCODING 7896
SWIDTH 837 0
DWIDTH 7 0
BBX 6 11 0 -3
BITMAP
10
7C
5C
A4
BC
BC
BC
D4
F8
38
30
ENDCHAR
STARTCHAR ocircumflexdotbelow
ENCODING 7897
SWIDTH 837 0
DWIDTH 7 0
BBX 6 11 0 -3
BITMAP
10
7C
5C
A4
BC
BC
BC
D4
F8
38
30
ENDCHAR
STARTCHAR Ohornacute
ENCODING 7898
SWIDTH 847 0
DWIDTH 7 0
BBX 7 9 0 -1
BITMAP
3C
56
7A
A4
BA
BA
BA
D4
78
ENDCHAR
STARTCHAR ohornacute
ENCODING 7899
SWIDTH 847 0
DWIDTH 7 0
BBX 7 9 0 -1
BITMAP
3C
56
7A
A4
BA
BA
BA
D4
78
ENDCHAR
STARTCHAR Ohorngrave
ENCODING 7900
SWIDTH 847 0
DWIDTH 7 0
BBX 7 9 0 -1
BITMAP
78
76
5A
A4
BA
BA
BA
D4
78
ENDCHAR
STARTCHAR ohorngrave
ENCODING 7901
SWIDTH 847 0
DWIDTH 7 0
BBX 7 9 0 -1
BITMAP
78
76
5A
A4
BA
BA
BA
D4
78
ENDCHAR
STARTCHAR Ohornhookabove
ENCODING 7902
SWIDTH 847 0
DWIDTH 7 0
BBX 7 10 0 -1
BITMAP
18
34
3E
5A
A4
BA
BA
BA
D4
78
ENDCHAR
STARTCHAR ohornhookabove
ENCODING 7903
SWIDTH 847 0
DWIDTH 7 0
BBX 7 10 0 -1
BITMAP
18
34
3E
5A
A4
BA
BA
BA
D4
78
ENDCHAR
STARTCHAR Ohorntilde
ENCODING 7904
SWIDTH 847 0
DWIDTH 7 0
BBX 7 9 0 -1
BITMAP
38
46
7A
A4
BA
BA
BA
D4
78
ENDCHAR
STARTCHAR ohorntilde
ENCODING 7905
SWIDTH 847 0
DWIDTH 7 0
BBX 7 9 0 -1
BITMAP
38
46
7A
A4
BA
BA
BA
D4
78
ENDCHAR
STARTCHAR Ohorndotbelow
ENCODING 7906
SWIDTH 847 0
DWIDTH 7 0
BBX 7 10 0 -3
BITMAP
06
7A
A4
BA
BA
BA
D4
38
28
30
ENDCHAR
STARTCHAR ohorndotbelow
ENCODING 7907
SWIDTH 847 0
DWIDTH 7 0
BBX 7 10 0 -3
BITMAP
06
7A
A4
BA
BA
BA
D4
38
28
30
ENDCHAR
STARTCHAR Udotbelow
ENCODING 7908
SWIDTH 846 0
DWIDTH 7 0
BBX 6 9 0 -3
BITMAP
7C
BC
BC
BC
BC
D4
38
28
30
ENDCHAR
STARTCHAR udotbelow
ENCODING 7909
SWIDTH 846 0
DWIDTH 7 0
BBX 6 9 0 -3
BITMAP
7C
BC
BC
BC
BC
D4
38
28
30
ENDCHAR
STARTCHAR Uhookabove
ENCODING 7910
SWIDTH 846 0
DWIDTH 7 0
BBX 6 10 0 -1
BITMAP
18
38
34
5C
BC
BC
BC
BC
D4
78
ENDCHAR
STARTCHAR uhookabove
ENCODING 7911
SWIDTH 846 0
DWIDTH 7 0
BBX 6 10 0 -1
BITMAP
18
38
34
5C
BC
BC
BC
BC
D4
78
ENDCHAR
STARTCHAR Uhornacute
ENCODING 7912
SWIDTH 856 0
DWIDTH 7 0
BBX 7 9 0 -1
BITMAP
3C
56
7A
BC
BC
BC
BC
D6
78
ENDCHAR
STARTCHAR uhornacute
ENCODING 7913
SWIDTH 856 0
DWIDTH 7 0
BBX 7 9 0 -1
BITMAP
3C
56
7A
BC
BC
BC
BC
D6
78
ENDCHAR
STARTCHAR Uhorngrave
ENCODING 7914
SWIDTH 856 0
DWIDTH 7 0
BBX 7 9 0 -1
BITMAP
78
76
5A
BC
BC
BC
BC
D6
78
ENDCHAR
STARTCHAR uhorngrave
ENCODING 7915
SWIDTH 856 0
DWIDTH 7 0
BBX 7 9 0 -1
BITMAP
78
76
5A
BC
BC
BC
BC
D6
78
ENDCHAR
STARTCHAR Uhornhookabove
ENCODING 7916
SWIDTH 856 0
DWIDTH 7 0
BBX 7 10 0 -1
BITMAP
18
38
36
5A
BC
BC
BC
BC
D6
78
ENDCHAR
STARTCHAR uhornhookabove
ENCODING 7917
SWIDTH 856 0
DWIDTH 7 0
BBX 7 10 0 -1
BITMAP
18
38
36
5A
BC
BC
BC
BC
D6
78
ENDCHAR
STARTCHAR Uhorntilde
ENCODING 7918
SWIDTH 856 0
DWIDTH 7 0
BBX 7 9 0 -1
BITMAP
24
7E
5A
BC
BC
BC
BC
D6
78
ENDCHAR
STARTCHAR uhorntilde
ENCODING 7919
SWIDTH 856 0
DWIDTH 7 0
BBX 7 9 0 -1
BITMAP
24
7E
5A
BC
BC
BC
BC
D6
78
ENDCHAR
STARTCHAR Uhorndotbelow
ENCODING 7920
SWIDTH 856 0
DWIDTH 7 0
BBX 7 10 0 -3
BITMAP
06
7A
BC
BC
BC
BC
D6
38
28
30
ENDCHAR
STARTCHAR uhorndotbelow
ENCODING 7921
SWIDTH 856 0
DWIDTH 7 0
BBX 7 10 0 -3
BITMAP
06
7A
BC
BC
BC
BC
D6
38
28
30
ENDCHAR
STARTCHAR Ygrave
ENCODING 7922
SWIDTH 805 0
DWIDTH 6 0
BBX 6 9 0 -1
BITMAP
78
64
5C
B4
BC
D4
78
28
30
ENDCHAR
STARTCHAR ygrave
ENCODING 7923
SWIDTH 805 0
DWIDTH 6 0
BBX 6 9 0 -1
BITMAP
78
64
5C
B4
BC
D4
78
28
30
ENDCHAR
STARTCHAR Ydotbelow
ENCODING 7924
SWIDTH 805 0
DWIDTH 6 0
BBX 6 9 0 -3
BITMAP
7C
B4
BC
D4
78
68
30
38
30
ENDCHAR
STARTCHAR ydotbelow
ENCODING 7925
SWIDTH 805 0
DWIDTH 6 0
BBX 6 9 0 -3
BITMAP
7C
B4
BC
D4
78
68
30
38
30
ENDCHAR
STARTCHAR Yhookabove
ENCODING 7926
SWIDTH 805 0
DWIDTH 6 0
BBX 6 10 0 -1
BITMAP
18
34
38
54
B4
BC
D4
78
28
30
ENDCHAR
STARTCHAR yhookabove
ENCODING 7927
SWIDTH 805 0
DWIDTH 6 0
BBX 6 10 0 -1
BITMAP
18
34
38
54
B4
BC
D4
78
28
30
ENDCHAR
STARTCHAR Ytilde
ENCODING 7928
SWIDTH 805 0
DWIDTH 6 0
BBX 6 9 0 -1
BITMAP
24
5C
7C
B4
BC
D4
78
28
30
ENDCHAR
STARTCHAR ytilde
ENCODING 7929
SWIDTH 805 0
DWIDTH 6 0
BBX 6 9 0 -1
BITMAP
24
5C
7C
B4
BC
D4
78
28
30
ENDCHAR
STARTCHAR enspace
ENCODING 8192
SWIDTH 500 0
DWIDTH 4 0
BBX 1 1 0 0
BITMAP
00
ENDCHAR
STARTCHAR emspace
ENCODING 8193
SWIDTH 1000 0
DWIDTH 8 0
BBX 1 1 0 0
BITMAP
00
ENDCHAR
STARTCHAR uni2002
ENCODING 8194
SWIDTH 500 0
DWIDTH 4 0
BBX 1 1 0 0
BITMAP
00
ENDCHAR
STARTCHAR uni2003
ENCODING 8195
SWIDTH 1000 0
DWIDTH 8 0
BBX 1 1 0 0
BITMAP
00
ENDCHAR
STARTCHAR space.tab_en
ENCODING 8199
SWIDTH 1100 0
DWIDTH 9 0
BBX 1 1 0 0
BITMAP
00
ENDCHAR
STARTCHAR uni2010
ENCODING 8208
SWIDTH 520 0
DWIDTH 4 0
BBX 4 3 0 1
BITMAP
70
B0
E0
ENDCHAR
STARTCHAR figuredash
ENCODING 8210
SWIDTH 834 0
DWIDTH 7 0
BBX 6 3 0 1
BITMAP
7C
BC
FC
ENDCHAR
STARTCHAR endash
ENCODING 8211
SWIDTH 834 0
DWIDTH 7 0
BBX 6 3 0 1
BITMAP
7C
BC
FC
ENDCHAR
STARTCHAR emdash
ENCODING 8212
SWIDTH 1234 0
DWIDTH 10 0
BBX 10 3 0 1
BITMAP
7F80
BFC0
FF80
ENDCHAR
STARTCHAR horizontalbar
ENCODING 8213
SWIDTH 1234 0
DWIDTH 10 0
BBX 10 3 0 1
BITMAP
7F80
BFC0
FF80
ENDCHAR
STARTCHAR quoteleft
ENCODING 8216
SWIDTH 484 0
DWIDTH 4 0
BBX 4 4 0 2
BITMAP
70
A0
B0
E0
ENDCHAR
STARTCHAR quoteright
ENCODING 8217
SWIDTH 484 0
DWIDTH 4 0
BBX 4 4 0 2
BITMAP
70
B0
D0
E0
ENDCHAR
STARTCHAR quotesinglbase
ENCODING 8218
SWIDTH 484 0
DWIDTH 4 0
BBX 4 5 0 -2
BITMAP
60
B0
F0
A0
C0
ENDCHAR
STARTCHAR quotedblleft
ENCODING 8220
SWIDTH 784 0
DWIDTH 6 0
BBX 6 4 0 2
BITMAP
6C
B4
BC
FC
ENDCHAR
STARTCHAR quotedblright
ENCODING 8221
SWIDTH 784 0
DWIDTH 6 0
BBX 6 4 0 2
BITMAP
7C
94
FC
D8
ENDCHAR
STARTCHAR quotedblbase
ENCODING 8222
SWIDTH 784 0
DWIDTH 6 0
BBX 6 5 0 -2
BITMAP
6C
BC
DC
BC
D8
ENDCHAR
STARTCHAR dagger
ENCODING 8224
SWIDTH 818 0
DWIDTH 7 0
BBX 6 7 0 -1
BITMAP
38
7C
BC
F4
38
28
30
ENDCHAR
STARTCHAR daggerdbl
ENCODING 8225
SWIDTH 818 0
DWIDTH 7 0
BBX 6 7 0 -1
BITMAP
78
BC
F4
7C
BC
E4
38
ENDCHAR
STARTCHAR bullet
ENCODING 8226
SWIDTH 543 0
DWIDTH 4 0
BBX 4 4 0 1
BITMAP
70
B0
B0
F0
ENDCHAR
STARTCHAR ellipsis
ENCODING 8230
SWIDTH 1210 0
DWIDTH 10 0
BBX 9 4 0 -1
BITMAP
6D80
B680
9280
FF80
ENDCHAR
STARTCHAR perthousand
ENCODING 8240
SWIDTH 1517 0
DWIDTH 12 0
BBX 12 7 0 -1
BITMAP
7E00
BE00
DF60
ADB0
F570
1570
1FE0
ENDCHAR
STARTCHAR minute
ENCODING 8242
SWIDTH 456 0
DWIDTH 4 0
BBX 4 4 0 2
BITMAP
70
A0
90
E0
ENDCHAR
STARTCHAR second
ENCODING 8243
SWIDTH 766 0
DWIDTH 6 0
BBX 6 4 0 2
BITMAP
7C
BC
94
F8
ENDCHAR
STARTCHAR guilsinglleft
ENCODING 8249
SWIDTH 663 0
DWIDTH 5 0
BBX 5 5 0 0
BITMAP
38
58
B8
D8
70
ENDCHAR
STARTCHAR guilsinglright
ENCODING 8250
SWIDTH 663 0
DWIDTH 5 0
BBX 5 5 0 0
BITMAP
70
F8
E8
78
F0
ENDCHAR
STARTCHAR fraction
ENCODING 8260
SWIDTH 417 0
DWIDTH 3 0
BBX 4 7 0 -1
BITMAP
70
60
50
A0
E0
A0
C0
ENDCHAR
STARTCHAR zero.sups
ENCODING 8304
SWIDTH 656 0
DWIDTH 5 0
BBX 5 5 0 1
BITMAP
78
B8
F8
A8
70
ENDCHAR
STARTCHAR foursuperior
ENCODING 8308
SWIDTH 608 0
DWIDTH 5 0
BBX 5 5 0 1
BITMAP
F8
F8
B8
F8
30
ENDCHAR
STARTCHAR five.sups
ENCODING 8309
SWIDTH 593 0
DWIDTH 5 0
BBX 5 5 0 1
BITMAP
70
B0
F8
78
F0
ENDCHAR
STARTCHAR six.sups
ENCODING 8310
SWIDTH 628 0
DWIDTH 5 0
BBX 5 5 0 1
BITMAP
70
B0
B8
98
F0
ENDCHAR
STARTCHAR seven.sups
ENCODING 8311
SWIDTH 577 0
DWIDTH 5 0
BBX 4 5 0 1
BITMAP
F0
F0
50
50
60
ENDCHAR
STARTCHAR eight.sups
ENCODING 8312
SWIDTH 638 0
DWIDTH 5 0
BBX 5 6 0 0
BITMAP
78
58
B8
B8
F0
60
ENDCHAR
STARTCHAR nine.sups
ENCODING 8313
SWIDTH 628 0
DWIDTH 5 0
BBX 5 5 0 1
BITMAP
78
E8
B8
78
70
ENDCHAR
STARTCHAR parenleft.sups
ENCODING 8317
SWIDTH 434 0
DWIDTH 3 0
BBX 3 6 0 1
BITMAP
20
E0
C0
C0
A0
60
ENDCHAR
STARTCHAR parenright.sups
ENCODING 8318
SWIDTH 435 0
DWIDTH 3 0
BBX 3 6 0 1
BITMAP
40
A0
E0
60
60
C0
ENDCHAR
STARTCHAR n.sups
ENCODING 8319
SWIDTH 673 0
DWIDTH 5 0
BBX 5 5 0 1
BITMAP
78
A8
A8
A8
D0
ENDCHAR
STARTCHAR zero.sinf
ENCODING 8320
SWIDTH 656 0
DWIDTH 5 0
BBX 5 5 0 -1
BITMAP
78
B8
F8
A8
70
ENDCHAR
STARTCHAR one.sinf
ENCODING 8321
SWIDTH 557 0
DWIDTH 4 0
BBX 4 5 0 -1
BITMAP
70
90
D0
70
F0
ENDCHAR
STARTCHAR two.sinf
ENCODING 8322
SWIDTH 585 0
DWIDTH 5 0
BBX 4 5 0 -1
BITMAP
70
F0
50
B0
F0
ENDCHAR
STARTCHAR three.sinf
ENCODING 8323
SWIDTH 584 0
DWIDTH 5 0
BBX 5 5 0 -1
BITMAP
78
E8
78
B8
F0
ENDCHAR
STARTCHAR four.sinf
ENCODING 8324
SWIDTH 620 0
DWIDTH 5 0
BBX 5 5 0 -1
BITMAP
F8
B8
B8
F8
30
ENDCHAR
STARTCHAR five.sinf
ENCODING 8325
SWIDTH 593 0
DWIDTH 5 0
BBX 5 5 0 -1
BITMAP
70
B0
F8
78
F0
ENDCHAR
STARTCHAR six.sinf
ENCODING 8326
SWIDTH 628 0
DWIDTH 5 0
BBX 5 5 0 -1
BITMAP
70
B0
B8
98
F0
ENDCHAR
STARTCHAR seven.sinf
ENCODING 8327
SWIDTH 577 0
DWIDTH 5 0
BBX 4 5 0 -1
BITMAP
F0
F0
50
50
60
ENDCHAR
STARTCHAR eight.sinf
ENCODING 8328
SWIDTH 638 0
DWIDTH 5 0
BBX 5 6 0 -2
BITMAP
78
58
B8
B8
F0
60
ENDCHAR
STARTCHAR nine.sinf
ENCODING 8329
SWIDTH 628 0
DWIDTH 5 0
BBX 5 5 0 -1
BITMAP
78
E8
B8
78
70
ENDCHAR
STARTCHAR parenleft.sinf
ENCODING 8333
SWIDTH 434 0
DWIDTH 3 0
BBX 3 6 0 -1
BITMAP
20
E0
C0
C0
A0
60
ENDCHAR
STARTCHAR parenright.sinf
ENCODING 8334
SWIDTH 435 0
DWIDTH 3 0
BBX 3 6 0 -1
BITMAP
40
A0
E0
60
60
C0
ENDCHAR
STARTCHAR colonsign
ENCODING 8353
SWIDTH 728 0
DWIDTH 6 0
BBX 6 8 0 -1
BITMAP
18
3C
44
B8
BC
DC
74
38
ENDCHAR
STARTCHAR lira
ENCODING 8356
SWIDTH 795 0
DWIDTH 6 0
BBX 6 7 0 -1
BITMAP
7C
58
A8
BC
B4
BC
FC
ENDCHAR
STARTCHAR naira
ENCODING 8358
SWIDTH 853 0
DWIDTH 7 0
BBX 7 7 0 -1
BITMAP
7E
AC
B6
AE
B4
9A
FC
ENDCHAR
STARTCHAR peseta
ENCODING 8359
SWIDTH 812 0
DWIDTH 7 0
BBX 7 7 0 -1
BITMAP
7C
BA
B6
BC
B8
90
E0
ENDCHAR
STARTCHAR dong
ENCODING 8363
SWIDTH 782 0
DWIDTH 6 0
BBX 6 8 0 -2
BITMAP
1C
3C
7C
AC
BC
94
F8
78
ENDCHAR
STARTCHAR Euro
ENCODING 8364
SWIDTH 748 0
DWIDTH 6 0
BBX 6 7 0 -1
BITMAP
7C
5C
B8
F8
EC
DC
78
ENDCHAR
STARTCHAR peso
ENCODING 8369
SWIDTH 812 0
DWIDTH 7 0
BBX 7 7 0 -1
BITMAP
7C
BC
B6
BE
B8
90
E0
ENDCHAR
STARTCHAR guarani
ENCODING 8370
SWIDTH 788 0
DWIDTH 6 0
BBX 6 8 0 -1
BITMAP
18
24
5C
BC
B4
DC
E4
78
ENDCHAR
STARTCHAR cedi
ENCODING 8373
SWIDTH 728 0
DWIDTH 6 0
BBX 6 8 0 -1
BITMAP
18
3C
44
B8
BC
DC
68
30
ENDCHAR
STARTCHAR indianrupee
ENCODING 8377
SWIDTH 713 0
DWIDTH 6 0
BBX 6 7 0 -1
BITMAP
7C
F4
BC
F8
F4
14
18
ENDCHAR
STARTCHAR turkishlira
ENCODING 8378
SWIDTH 795 0
DWIDTH 6 0
BBX 6 7 0 -1
BITMAP
70
F0
B4
EC
B4
BC
F8
ENDCHAR
STARTCHAR ruble
ENCODING 8381
SWIDTH 782 0
DWIDTH 6 0
BBX 6 7 0 -1
BITMAP
7C
BC
B4
BC
B8
90
E0
ENDCHAR
STARTCHAR liter
ENCODING 8467
SWIDTH 749 0
DWIDTH 6 0
BBX 6 7 0 -1
BITMAP
7C
BC
BC
A4
B8
D4
78
ENDCHAR
STARTCHAR uni2117
ENCODING 8471
SWIDTH 967 0
DWIDTH 8 0
BBX 7 9 0 -2
BITMAP
1C
7E
BA
BE
B2
BE
F6
6E
38
ENDCHAR
STARTCHAR uni2120
ENCODING 8480
SWIDTH 1003 0
DWIDTH 8 0
BBX 8 5 0 1
BITMAP
7F
FF
EF
97
FE
ENDCHAR
STARTCHAR trademark
ENCODING 8482
SWIDTH 1003 0
DWIDTH 8 0
BBX 8 5 0 1
BITMAP
FF
FF
77
77
5E
ENDCHAR
STARTCHAR Omega
ENCODING 8486
SWIDTH 877 0
DWIDTH 7 0
BBX 7 7 0 -1
BITMAP
3E
66
FE
EE
BE
8A
FC
ENDCHAR
STARTCHAR estimated
ENCODING 8494
SWIDTH 815 0
DWIDTH 7 0
BBX 6 7 0 -1
BITMAP
7C
A4
B4
BC
BC
DC
78
ENDCHAR
STARTCHAR onethird
ENCODING 8531
SWIDTH 1269 0
DWIDTH 10 0
BBX 10 7 0 -1
BITMAP
7600
DD80
5BC0
7EC0
FBC0
13C0
1F80
ENDCHAR
STARTCHAR twothirds
ENCODING 8532
SWIDTH 1269 0
DWIDTH 10 0
BBX 10 7 0 -1
BITMAP
7E00
DD80
6BC0
BEC0
FBC0
13C0
1F80
ENDCHAR
STARTCHAR oneeighth
ENCODING 8539
SWIDTH 1283 0
DWIDTH 10 0
BBX 10 7 0 -1
BITMAP
7600
DF80
5AC0
7FC0
FAC0
13C0
1F80
ENDCHAR
STARTCHAR threeeighths
ENCODING 8540
SWIDTH 1293 0
DWIDTH 10 0
BBX 10 7 0 -1
BITMAP
7E00
EF80
7AC0
7FC0
FAC0
13C0
1F80
ENDCHAR
STARTCHAR fiveeighths
ENCODING 8541
SWIDTH 1303 0
DWIDTH 10 0
BBX 10 7 0 -1
BITMAP
7600
BF80
BEC0
FFC0
FAC0
0BC0
1F80
ENDCHAR
STARTCHAR seveneighths
ENCODING 8542
SWIDTH 1241 0
DWIDTH 10 0
BBX 10 7 0 -1
BITMAP
FE00
EF00
5B40
57C0
7D40
15C0
1F80
ENDCHAR
STARTCHAR arrowleft
ENCODING 8592
SWIDTH 1100 0
DWIDTH 9 0
BBX 7 5 1 0
BITMAP
18
76
FE
64
38
ENDCHAR
STARTCHAR arrowup
ENCODING 8593
SWIDTH 1100 0
DWIDTH 9 0
BBX 5 7 2 -1
BITMAP
20
50
78
A8
E8
50
60
ENDCHAR
STARTCHAR arrowright
ENCODING 8594
SWIDTH 1100 0
DWIDTH 9 0
BBX 7 5 1 0
BITMAP
38
4C
BA
EC
30
ENDCHAR
STARTCHAR arrowdown
ENCODING 8595
SWIDTH 1100 0
DWIDTH 9 0
BBX 5 7 2 -1
BITMAP
30
70
A8
B8
F0
60
40
ENDCHAR
STARTCHAR arrowupleft
ENCODING 8598
SWIDTH 1100 0
DWIDTH 9 0
BBX 5 5 2 0
BITMAP
F8
F8
B8
A8
F0
ENDCHAR
STARTCHAR arrowupright
ENCODING 8599
SWIDTH 1100 0
DWIDTH 9 0
BBX 5 5 2 0
BITMAP
78
B8
F8
A8
F0
ENDCHAR
STARTCHAR arrowdownright
ENCODING 8600
SWIDTH 1100 0
DWIDTH 9 0
BBX 5 5 2 0
BITMAP
70
B8
F8
88
F8
ENDCHAR
STARTCHAR arrowdownleft
ENCODING 8601
SWIDTH 1100 0
DWIDTH 9 0
BBX 5 5 2 0
BITMAP
58
B8
D0
A8
F0
ENDCHAR
STARTCHAR uni21AA
ENCODING 8618
SWIDTH 1100 0
DWIDTH 9 0
BBX 7 7 1 -1
BITMAP
7E
BC
B8
BE
CE
74
38
ENDCHAR
STARTCHAR uni21AB
ENCODING 8619
SWIDTH 1100 0
DWIDTH 9 0
BBX 7 7 1 -1
BITMAP
7E
7E
1E
7E
A2
EC
30
ENDCHAR
STARTCHAR uni21B0
ENCODING 8624
SWIDTH 1100 0
DWIDTH 9 0
BBX 7 7 1 -1
BITMAP
10
28
F6
CA
7A
1A
0C
ENDCHAR
STARTCHAR uni21B1
ENCODING 8625
SWIDTH 1100 0
DWIDTH 9 0
BBX 7 7 1 -1
BITMAP
18
34
4A
B4
B8
A0
C0
ENDCHAR
STARTCHAR uni21B2
ENCODING 8626
SWIDTH 1100 0
DWIDTH 9 0
BBX 7 7 1 -1
BITMAP
04
0A
3A
6C
D4
68
30
ENDCHAR
STARTCHAR uni21B3
ENCODING 8627
SWIDTH 1100 0
DWIDTH 9 0
BBX 7 7 1 -1
BITMAP
60
E0
DC
AA
FE
28
30
ENDCHAR
STARTCHAR partialdiff
ENCODING 8706
SWIDTH 792 0
DWIDTH 6 0
BBX 6 7 0 -1
BITMAP
7C
4C
74
AC
B4
CC
78
ENDCHAR
STARTCHAR Delta
ENCODING 8710
SWIDTH 830 0
DWIDTH 7 0
BBX 6 7 0 -1
BITMAP
3C
7C
5C
74
AC
9C
FC
ENDCHAR
STARTCHAR product
ENCODING 8719
SWIDTH 859 0
DWIDTH 7 0
BBX 7 7 0 -1
BITMAP
7E
A6
BE
AE
AE
9A
EC
ENDCHAR
STARTCHAR summation
ENCODING 8721
SWIDTH 750 0
DWIDTH 6 0
BBX 6 8 0 -2
BITMAP
7C
A4
D8
78
68
BC
84
F8
ENDCHAR
STARTCHAR minus
ENCODING 8722
SWIDTH 834 0
DWIDTH 7 0
BBX 6 3 0 1
BITMAP
7C
BC
F8
ENDCHAR
STARTCHAR uni2215
ENCODING 8725
SWIDTH 417 0
DWIDTH 3 0
BBX 4 7 0 -1
BITMAP
70
60
50
A0
E0
A0
C0
ENDCHAR
STARTCHAR uni2219
ENCODING 8729
SWIDTH 464 0
DWIDTH 4 0
BBX 4 4 0 1
BITMAP
60
B0
90
E0
ENDCHAR
STARTCHAR radical
ENCODING 8730
SWIDTH 841 0
DWIDTH 7 0
BBX 7 8 0 -1
BITMAP
06
0E
6C
94
B4
DC
64
38
ENDCHAR
STARTCHAR infinity
ENCODING 8734
SWIDTH 978 0
DWIDTH 8 0
BBX 8 5 0 0
BITMAP
7F
BF
B7
95
FE
ENDCHAR
STARTCHAR integral
ENCODING 8747
SWIDTH 574 0
DWIDTH 5 0
BBX 5 9 0 -2
BITMAP
38
58
70
70
70
70
B0
B0
C0
ENDCHAR
STARTCHAR approxequal
ENCODING 8776
SWIDTH 834 0
DWIDTH 7 0
BBX 6 5 0 0
BITMAP
7C
B4
CC
B4
F8
ENDCHAR
STARTCHAR notequal
ENCODING 8800
SWIDTH 834 0
DWIDTH 7 0
BBX 6 7 0 -1
BITMAP
1C
6C
D4
F4
9C
EC
30
ENDCHAR
STARTCHAR lessequal
ENCODING 8804
SWIDTH 814 0
DWIDTH 7 0
BBX 6 7 0 -1
BITMAP
0C
74
58
FC
74
CC
F8
ENDCHAR
STARTCHAR greaterequal
ENCODING 8805
SWIDTH 814 0
DWIDTH 7 0
BBX 5 7 1 -1
BITMAP
E0
F8
E8
B8
D8
E8
F0
ENDCHAR
STARTCHAR block
ENCODING 9608
SWIDTH 1000 0
DWIDTH 8 0
BBX 8 8 0 -1
BITMAP
FF
FF
FF
FF
FF
FF
FF
FF
ENDCHAR
STARTCHAR blacksquare
ENCODING 9632
SWIDTH 1100 0
DWIDTH 9 0
BBX 5 5 2 0
BITMAP
78
B8
B8
88
F0
ENDCHAR
STARTCHAR blackuppointingtriangle
ENCODING 9650
SWIDTH 1100 0
DWIDTH 9 0
BBX 5 5 2 0
BITMAP
30
48
78
88
F0
ENDCHAR
STARTCHAR whiteuppointingtriangle
ENCODING 9651
SWIDTH 1100 0
DWIDTH 9 0
BBX 4 4 3 1
BITMAP
40
A0
90
F0
ENDCHAR
STARTCHAR blackrightpointingtriangle
ENCODING 9654
SWIDTH 1100 0
DWIDTH 9 0
BBX 5 5 2 0
BITMAP
E0
B8
A8
B0
C0
ENDCHAR
STARTCHAR whiterightpointingtriangle
ENCODING 9655
SWIDTH 1100 0
DWIDTH 9 0
BBX 4 4 3 1
BITMAP
C0
B0
90
E0
ENDCHAR
STARTCHAR blackdownpointingtriangle
ENCODING 9660
SWIDTH 1100 0
DWIDTH 9 0
BBX 5 5 2 0
BITMAP
F8
B8
C8
50
60
ENDCHAR
STARTCHAR whitedownpointingtriangle
ENCODING 9661
SWIDTH 1100 0
DWIDTH 9 0
BBX 4 4 3 1
BITMAP
F0
90
A0
40
ENDCHAR
STARTCHAR blackleftpointingtriangle
ENCODING 9664
SWIDTH 1100 0
DWIDTH 9 0
BBX 5 5 2 0
BITMAP
38
58
98
E8
30
ENDCHAR
STARTCHAR whiteleftpointingtriangle
ENCODING 9665
SWIDTH 1100 0
DWIDTH 9 0
BBX 4 4 3 1
BITMAP
30
D0
90
70
ENDCHAR
STARTCHAR blackdiamond
ENCODING 9670
SWIDTH 1100 0
DWIDTH 9 0
BBX 6 5 1 0
BITMAP
38
54
5C
E4
38
ENDCHAR
STARTCHAR lozenge
ENCODING 9674
SWIDTH 831 0
DWIDTH 7 0
BBX 6 7 0 -1
BITMAP
3C
7C
74
D4
EC
54
78
ENDCHAR
STARTCHAR uni25D6
ENCODING 9686
SWIDTH 546 0
DWIDTH 4 0
BBX 5 8 0 -1
BITMAP
38
78
F8
F8
F8
F8
78
38
ENDCHAR
STARTCHAR uni25D7
ENCODING 9687
SWIDTH 546 0
DWIDTH 4 0
BBX 4 8 0 -1
BITMAP
E0
F0
F0
F0
F0
F0
F0
E0
ENDCHAR
STARTCHAR uni25DC
ENCODING 9692
SWIDTH 1280 0
DWIDTH 10 0
BBX 8 8 1 -1
BITMAP
1F
3F
7F
FF
FF
FF
FF
FF
ENDCHAR
STARTCHAR uni25DD
ENCODING 9693
SWIDTH 1280 0
DWIDTH 10 0
BBX 8 8 1 -1
BITMAP
F8
FE
FE
FF
FF
FF
FF
FF
ENDCHAR
STARTCHAR uni25DE
ENCODING 9694
SWIDTH 1280 0
DWIDTH 10 0
BBX 8 8 1 -1
BITMAP
FF
FF
FF
FF
FF
FE
FE
F8
ENDCHAR
STARTCHAR uni25DF
ENCODING 9695
SWIDTH 1280 0
DWIDTH 10 0
BBX 8 8 1 -1
BITMAP
FF
FF
FF
FF
FF
7F
3F
1F
ENDCHAR
STARTCHAR uni261A
ENCODING 9754
SWIDTH 1100 0
DWIDTH 9 0
BBX 7 5 1 0
BITMAP
7E
E6
76
26
3C
ENDCHAR
STARTCHAR uni261B
ENCODING 9755
SWIDTH 1100 0
DWIDTH 9 0
BBX 7 5 1 0
BITMAP
FE
AE
AC
AC
F0
ENDCHAR
STARTCHAR uni261C
ENCODING 9756
SWIDTH 1100 0
DWIDTH 9 0
BBX 6 4 2 1
BITMAP
FC
44
64
7C
ENDCHAR
STARTCHAR uni261D
ENCODING 9757
SWIDTH 1100 0
DWIDTH 9 0
BBX 4 6 3 0
BITMAP
80
80
E0
90
90
F0
ENDCHAR
STARTCHAR uni261E
ENCODING 9758
SWIDTH 1100 0
DWIDTH 9 0
BBX 6 4 2 1
BITMAP
FC
98
98
F0
ENDCHAR
STARTCHAR uni261F
ENCODING 9759
SWIDTH 1100 0
DWIDTH 9 0
BBX 4 6 3 0
BITMAP
F0
90
90
D0
30
10
ENDCHAR
STARTCHAR uni27A1
ENCODING 10145
SWIDTH 650 0
DWIDTH 5 0
BBX 5 12 0 -3
BITMAP
80
C0
E0
F0
F0
F8
F8
F0
F0
E0
C0
80
ENDCHAR
STARTCHAR uni2B1B
ENCODING 11035
SWIDTH 1280 0
DWIDTH 10 0
BBX 8 8 1 -1
BITMAP
FF
FF
FF
FF
FF
FF
FF
FF
ENDCHAR
STARTCHAR uni2B24
ENCODING 11044
SWIDTH 1280 0
DWIDTH 10 0
BBX 9 9 1 -2
BITMAP
7E00
FF00
FF00
FF80
FF80
FF80
FF00
7E00
3C00
ENDCHAR
STARTCHAR A.salt
ENCODING 57600
SWIDTH 836 0
DWIDTH 7 0
BBX 6 7 0 -1
BITMAP
7C
64
BC
BC
A4
9C
FC
ENDCHAR
STARTCHAR Agrave.salt
ENCODING 57601
SWIDTH 836 0
DWIDTH 7 0
BBX 6 9 0 -1
BITMAP
38
74
5C
64
BC
BC
A4
9C
FC
ENDCHAR
STARTCHAR Aacute.salt
ENCODING 57602
SWIDTH 836 0
DWIDTH 7 0
BBX 6 9 0 -1
BITMAP
3C
4C
7C
64
BC
BC
A4
9C
FC
ENDCHAR
STARTCHAR Acircumflex.salt
ENCODING 57603
SWIDTH 836 0
DWIDTH 7 0
BBX 6 9 0 -1
BITMAP
3C
4C
7C
64
BC
BC
A4
9C
FC
ENDCHAR
STARTCHAR Atilde.salt
ENCODING 57604
SWIDTH 836 0
DWIDTH 7 0
BBX 6 9 0 -1
BITMAP
3C
54
7C
64
BC
BC
A4
9C
FC
ENDCHAR
STARTCHAR Adieresis.salt
ENCODING 57605
SWIDTH 836 0
DWIDTH 7 0
BBX 6 9 0 -1
BITMAP
7C
54
7C
64
BC
BC
A4
9C
FC
ENDCHAR
STARTCHAR Aring.salt
ENCODING 57606
SWIDTH 836 0
DWIDTH 7 0
BBX 6 9 0 -1
BITMAP
3C
5C
5C
64
BC
BC
A4
9C
FC
ENDCHAR
STARTCHAR Amacron.salt
ENCODING 57607
SWIDTH 836 0
DWIDTH 7 0
BBX 6 9 0 -1
BITMAP
38
44
7C
64
BC
BC
A4
9C
FC
ENDCHAR
STARTCHAR Abreve.salt
ENCODING 57608
SWIDTH 836 0
DWIDTH 7 0
BBX 6 9 0 -1
BITMAP
7C
6C
5C
64
BC
BC
A4
9C
FC
ENDCHAR
STARTCHAR Aogonek.salt
ENCODING 57609
SWIDTH 836 0
DWIDTH 7 0
BBX 6 8 0 -2
BITMAP
7C
64
BC
A4
BC
94
FC
1C
ENDCHAR
STARTCHAR E.salt
ENCODING 57610
SWIDTH 743 0
DWIDTH 6 0
BBX 6 7 0 -1
BITMAP
7C
64
BC
B4
BC
DC
78
ENDCHAR
STARTCHAR Egrave.salt
ENCODING 57611
SWIDTH 743 0
DWIDTH 6 0
BBX 6 9 0 -1
BITMAP
78
74
5C
64
BC
B4
BC
DC
78
ENDCHAR
STARTCHAR Eacute.salt
ENCODING 57612
SWIDTH 743 0
DWIDTH 6 0
BBX 6 9 0 -1
BITMAP
3C
5C
7C
64
BC
B4
BC
DC
78
ENDCHAR
STARTCHAR Ecircumflex.salt
ENCODING 57613
SWIDTH 743 0
DWIDTH 6 0
BBX 6 9 0 -1
BITMAP
38
44
7C
64
BC
B4
BC
DC
78
ENDCHAR
STARTCHAR Edieresis.salt
ENCODING 57614
SWIDTH 743 0
DWIDTH 6 0
BBX 6 9 0 -1
BITMAP
7C
54
7C
64
BC
B4
BC
DC
78
ENDCHAR
STARTCHAR Emacron.salt
ENCODING 57615
SWIDTH 743 0
DWIDTH 6 0
BBX 6 9 0 -1
BITMAP
38
44
7C
64
BC
B4
BC
DC
78
ENDCHAR
STARTCHAR Ebreve.salt
ENCODING 57616
SWIDTH 743 0
DWIDTH 6 0
BBX 6 9 0 -1
BITMAP
7C
6C
5C
64
BC
B4
BC
DC
78
ENDCHAR
STARTCHAR Edotaccent.salt
ENCODING 57617
SWIDTH 743 0
DWIDTH 6 0
BBX 6 9 0 -1
BITMAP
38
28
5C
64
BC
B4
BC
DC
78
ENDCHAR
STARTCHAR Eogonek.salt
ENCODING 57618
SWIDTH 743 0
DWIDTH 6 0
BBX 6 8 0 -2
BITMAP
7C
64
BC
B4
BC
DC
74
1C
ENDCHAR
STARTCHAR Ecaron.salt
ENCODING 57619
SWIDTH 743 0
DWIDTH 6 0
BBX 6 9 0 -1
BITMAP
7C
6C
5C
64
BC
B4
BC
DC
78
ENDCHAR
STARTCHAR I.salt
ENCODING 57620
SWIDTH 471 0
DWIDTH 4 0
BBX 3 7 0 -1
BITMAP
60
A0
A0
A0
A0
A0
E0
ENDCHAR
STARTCHAR Igrave.salt
ENCODING 57621
SWIDTH 471 0
DWIDTH 4 0
BBX 4 9 0 -1
BITMAP
70
B0
D0
A0
A0
A0
A0
90
E0
ENDCHAR
STARTCHAR Iacute.salt
ENCODING 57622
SWIDTH 471 0
DWIDTH 4 0
BBX 4 9 0 -1
BITMAP
70
B0
D0
A0
A0
A0
A0
90
E0
ENDCHAR
STARTCHAR Icircumflex.salt
ENCODING 57623
SWIDTH 471 0
DWIDTH 4 0
BBX 4 9 0 -1
BITMAP
70
B0
D0
A0
A0
A0
A0
90
E0
ENDCHAR
STARTCHAR Idieresis.salt
ENCODING 57624
SWIDTH 471 0
DWIDTH 4 0
BBX 4 9 0 -1
BITMAP
F0
B0
D0
A0
A0
A0
A0
90
E0
ENDCHAR
STARTCHAR Itilde.salt
ENCODING 57625
SWIDTH 471 0
DWIDTH 4 0
BBX 4 9 0 -1
BITMAP
70
90
F0
A0
A0
A0
A0
90
E0
ENDCHAR
STARTCHAR Imacron.salt
ENCODING 57626
SWIDTH 471 0
DWIDTH 4 0
BBX 4 9 0 -1
BITMAP
70
90
F0
A0
A0
A0
A0
90
E0
ENDCHAR
STARTCHAR Ibreve.salt
ENCODING 57627
SWIDTH 471 0
DWIDTH 4 0
BBX 4 9 0 -1
BITMAP
F0
90
F0
A0
A0
A0
A0
90
E0
ENDCHAR
STARTCHAR Iogonek.salt
ENCODING 57628
SWIDTH 471 0
DWIDTH 4 0
BBX 3 8 0 -2
BITMAP
60
E0
E0
E0
E0
E0
A0
E0
ENDCHAR
STARTCHAR Idotaccent.salt
ENCODING 57629
SWIDTH 471 0
DWIDTH 4 0
BBX 3 9 0 -1
BITMAP
60
A0
E0
A0
A0
A0
A0
A0
E0
ENDCHAR
STARTCHAR L.salt
ENCODING 57630
SWIDTH 715 0
DWIDTH 6 0
BBX 6 7 0 -1
BITMAP
70
A0
A0
A0
BC
9C
F8
ENDCHAR
STARTCHAR Lacute.salt
ENCODING 57631
SWIDTH 715 0
DWIDTH 6 0
BBX 6 9 0 -1
BITMAP
78
98
F0
A0
A0
A0
BC
9C
F8
ENDCHAR
STARTCHAR Lcommaaccent.salt
ENCODING 57632
SWIDTH 715 0
DWIDTH 6 0
BBX 6 10 0 -4
BITMAP
70
A0
A0
A0
BC
9C
F8
38
30
20
ENDCHAR
STARTCHAR Lcaron.salt
ENCODING 57633
SWIDTH 715 0
DWIDTH 6 0
BBX 6 7 0 -1
BITMAP
7C
BC
B8
A0
BC
9C
F8
ENDCHAR
STARTCHAR Ldot.salt
ENCODING 57634
SWIDTH 715 0
DWIDTH 6 0
BBX 6 7 0 -1
BITMAP
70
A0
BC
BC
A4
9C
F8
ENDCHAR
STARTCHAR Lslash.salt
ENCODING 57635
SWIDTH 725 0
DWIDTH 6 0
BBX 6 7 0 -1
BITMAP
70
F0
A8
B0
EC
DC
F8
ENDCHAR
STARTCHAR M.salt
ENCODING 57636
SWIDTH 1170 0
DWIDTH 9 0
BBX 9 7 0 -1
BITMAP
7F80
6580
B680
B680
B680
9280
FF00
ENDCHAR
STARTCHAR N.salt
ENCODING 57637
SWIDTH 846 0
DWIDTH 7 0
BBX 6 7 0 -1
BITMAP
7C
64
BC
BC
BC
9C
FC
ENDCHAR
STARTCHAR Ntilde.salt
ENCODING 57638
SWIDTH 846 0
DWIDTH 7 0
BBX 6 9 0 -1
BITMAP
3C
54
7C
64
BC
BC
BC
9C
FC
ENDCHAR
STARTCHAR Nacute.salt
ENCODING 57639
SWIDTH 846 0
DWIDTH 7 0
BBX 6 9 0 -1
BITMAP
3C
4C
7C
64
BC
BC
BC
9C
FC
ENDCHAR
STARTCHAR Ncommaaccent.salt
ENCODING 57640
SWIDTH 846 0
DWIDTH 7 0
BBX 6 10 0 -4
BITMAP
7C
64
BC
BC
BC
9C
E4
38
38
30
ENDCHAR
STARTCHAR Ncaron.salt
ENCODING 57641
SWIDTH 846 0
DWIDTH 7 0
BBX 6 9 0 -1
BITMAP
7C
6C
5C
64
BC
BC
BC
9C
FC
ENDCHAR
STARTCHAR W.salt
ENCODING 57642
SWIDTH 1170 0
DWIDTH 9 0
BBX 9 7 0 -1
BITMAP
7F80
B680
B680
B680
B680
C980
7F00
ENDCHAR
STARTCHAR Wcircumflex.salt
ENCODING 57643
SWIDTH 1170 0
DWIDTH 9 0
BBX 9 9 0 -1
BITMAP
1E00
3E00
5380
B680
B680
B680
B680
C980
7F00
ENDCHAR
STARTCHAR Wgrave.salt
ENCODING 57644
SWIDTH 1170 0
DWIDTH 9 0
BBX 9 9 0 -1
BITMAP
1C00
3A00
5780
B680
B680
B680
B680
C980
7F00
ENDCHAR
STARTCHAR Wacute.salt
ENCODING 57645
SWIDTH 1170 0
DWIDTH 9 0
BBX 9 9 0 -1
BITMAP
0E00
3600
5B80
B680
B680
B680
B680
C980
7F00
ENDCHAR
STARTCHAR Wdieresis.salt
ENCODING 57646
SWIDTH 1170 0
DWIDTH 9 0
BBX 9 9 0 -1
BITMAP
1F00
2500
5A80
B680
B680
B680
B680
C980
7F00
ENDCHAR
STARTCHAR X.salt
ENCODING 57647
SWIDTH 837 0
DWIDTH 7 0
BBX 6 7 0 -1
BITMAP
7C
F4
6C
B4
BC
9C
FC
ENDCHAR
STARTCHAR Y.salt
ENCODING 57648
SWIDTH 806 0
DWIDTH 6 0
BBX 6 7 0 -1
BITMAP
7C
B4
B4
AC
F8
28
30
ENDCHAR
STARTCHAR Yacute.salt
ENCODING 57649
SWIDTH 806 0
DWIDTH 6 0
BBX 6 9 0 -1
BITMAP
3C
5C
74
B4
B4
AC
F8
28
30
ENDCHAR
STARTCHAR Ycircumflex.salt
ENCODING 57650
SWIDTH 806 0
DWIDTH 6 0
BBX 6 9 0 -1
BITMAP
38
44
7C
B4
B4
AC
F8
28
30
ENDCHAR
STARTCHAR Ydieresis.salt
ENCODING 57651
SWIDTH 806 0
DWIDTH 6 0
BBX 6 9 0 -1
BITMAP
7C
54
7C
B4
B4
AC
F8
28
30
ENDCHAR
STARTCHAR Ygrave.salt
ENCODING 57652
SWIDTH 806 0
DWIDTH 6 0
BBX 6 9 0 -1
BITMAP
78
74
5C
B4
B4
AC
F8
28
30
ENDCHAR
STARTCHAR AE.salt
ENCODING 57653
SWIDTH 1113 0
DWIDTH 9 0
BBX 9 7 0 -1
BITMAP
3F80
4480
BB00
BE80
A780
9B80
FF00
ENDCHAR
STARTCHAR IJ.salt
ENCODING 57654
SWIDTH 1133 0
DWIDTH 9 0
BBX 9 7 0 -1
BITMAP
7380
A380
AF80
B380
BB80
9480
FF00
ENDCHAR
STARTCHAR IJ.stack
ENCODING 57655
SWIDTH 1363 0
DWIDTH 11 0
BBX 11 7 0 -1
BITMAP
7CE0
94E0
DBE0
54E0
5EE0
AD20
FFC0
ENDCHAR
STARTCHAR quoteleft.salt
ENCODING 57656
SWIDTH 407 0
DWIDTH 3 0
BBX 3 3 0 3
BITMAP
60
E0
E0
ENDCHAR
STARTCHAR quoteright.salt
ENCODING 57657
SWIDTH 407 0
DWIDTH 3 0
BBX 3 3 0 3
BITMAP
60
E0
C0
ENDCHAR
STARTCHAR ampersand.salt
ENCODING 57658
SWIDTH 732 0
DWIDTH 6 0
BBX 6 9 0 -2
BITMAP
38
5C
64
78
58
B4
9C
68
30
ENDCHAR
STARTCHAR caron.2
ENCODING 57659
SWIDTH 600 0
DWIDTH 5 0
BBX 3 3 1 3
BITMAP
E0
E0
C0
ENDCHAR
STARTCHAR indexup
ENCODING 57660
SWIDTH 1100 0
DWIDTH 9 0
BBX 5 7 2 -1
BITMAP
40
A0
B0
88
F8
88
F0
ENDCHAR
STARTCHAR indexdown
ENCODING 57661
SWIDTH 1100 0
DWIDTH 9 0
BBX 5 7 2 -1
BITMAP
F8
F8
88
B0
B0
A0
C0
ENDCHAR
STARTCHAR indexupleft
ENCODING 57662
SWIDTH 1100 0
DWIDTH 9 0
BBX 7 7 1 -1
BITMAP
70
68
6C
4A
CC
78
30
ENDCHAR
STARTCHAR indexupright
ENCODING 57663
SWIDTH 1100 0
DWIDTH 9 0
BBX 7 7 1 -1
BITMAP
0E
14
24
62
D4
68
30
ENDCHAR
STARTCHAR indexdownleft
ENCODING 57664
SWIDTH 1100 0
DWIDTH 9 0
BBX 7 7 1 -1
BITMAP
08
14
2A
46
B4
F8
10
ENDCHAR
STARTCHAR indexdownright
ENCODING 57665
SWIDTH 1100 0
DWIDTH 9 0
BBX 7 7 1 -1
BITMAP
10
28
54
A2
CE
7E
20
ENDCHAR
STARTCHAR indexdownleft.outline
ENCODING 57666
SWIDTH 1100 0
DWIDTH 9 0
BBX 6 6 2 0
BITMAP
10
28
54
8C
E8
30
ENDCHAR
STARTCHAR indexdownright.outline
ENCODING 57667
SWIDTH 1100 0
DWIDTH 9 0
BBX 6 6 2 0
BITMAP
20
60
D0
88
5C
30
ENDCHAR
STARTCHAR indexupleft.outline
ENCODING 57668
SWIDTH 1100 0
DWIDTH 9 0
BBX 6 6 2 0
BITMAP
C0
70
D0
8C
58
30
ENDCHAR
STARTCHAR indexupright.outline
ENCODING 57669
SWIDTH 1100 0
DWIDTH 9 0
BBX 6 6 2 0
BITMAP
1C
38
48
C4
68
30
ENDCHAR
STARTCHAR uni261A.salt
ENCODING 57670
SWIDTH 1100 0
DWIDTH 9 0
BBX 7 5 1 0
BITMAP
7E
F6
2E
3E
34
ENDCHAR
STARTCHAR uni261B.salt
ENCODING 57671
SWIDTH 1100 0
DWIDTH 9 0
BBX 7 5 1 0
BITMAP
FE
AE
B8
E8
B0
ENDCHAR
STARTCHAR indexdown.salt
ENCODING 57672
SWIDTH 1100 0
DWIDTH 9 0
BBX 5 7 2 -1
BITMAP
78
F8
68
D8
78
18
10
ENDCHAR
STARTCHAR indexdownleft.salt
ENCODING 57673
SWIDTH 1100 0
DWIDTH 9 0
BBX 7 5 1 0
BITMAP
1C
2A
56
6C
BC
ENDCHAR
STARTCHAR indexdownright.salt
ENCODING 57674
SWIDTH 1100 0
DWIDTH 9 0
BBX 7 5 1 0
BITMAP
30
6C
AC
D6
7E
ENDCHAR
STARTCHAR indexup.salt
ENCODING 57675
SWIDTH 1100 0
DWIDTH 9 0
BBX 5 7 2 -1
BITMAP
40
A0
B0
88
F0
88
F0
ENDCHAR
STARTCHAR indexupleft.salt
ENCODING 57676
SWIDTH 1100 0
DWIDTH 9 0
BBX 6 7 1 -1
BITMAP
60
D8
78
64
5C
E8
30
ENDCHAR
STARTCHAR indexupright.salt
ENCODING 57677
SWIDTH 1100 0
DWIDTH 9 0
BBX 6 7 1 -1
BITMAP
0C
14
24
6C
D4
6C
30
ENDCHAR
STARTCHAR uni261C.salt
ENCODING 57678
SWIDTH 1100 0
DWIDTH 9 0
BBX 6 4 2 1
BITMAP
FC
64
2C
34
ENDCHAR
STARTCHAR uni261D.salt
ENCODING 57679
SWIDTH 1100 0
DWIDTH 9 0
BBX 4 6 3 0
BITMAP
80
80
E0
D0
A0
F0
ENDCHAR
STARTCHAR uni261E.salt
ENCODING 57680
SWIDTH 1100 0
DWIDTH 9 0
BBX 6 4 2 1
BITMAP
FC
98
F0
A0
ENDCHAR
STARTCHAR uni261F.salt
ENCODING 57681
SWIDTH 1100 0
DWIDTH 9 0
BBX 4 6 3 0
BITMAP
F0
50
90
70
30
30
ENDCHAR
STARTCHAR indexdownleft.salt_outline
ENCODING 57682
SWIDTH 1100 0
DWIDTH 9 0
BBX 6 5 2 0
BITMAP
18
74
4C
F8
88
ENDCHAR
STARTCHAR indexdownright.salt_outline
ENCODING 57683
SWIDTH 1100 0
DWIDTH 9 0
BBX 6 5 2 0
BITMAP
60
D8
88
7C
44
ENDCHAR
STARTCHAR indexupleft.salt_outline
ENCODING 57684
SWIDTH 1100 0
DWIDTH 9 0
BBX 5 6 2 0
BITMAP
C0
60
50
48
D8
30
ENDCHAR
STARTCHAR indexupright.salt_outline
ENCODING 57685
SWIDTH 1100 0
DWIDTH 9 0
BBX 5 6 2 0
BITMAP
08
38
38
D8
68
30
ENDCHAR
STARTCHAR block.v
ENCODING 57687
SWIDTH 1000 0
DWIDTH 8 0
BBX 8 8 0 -1
BITMAP
FF
FF
FF
FF
FF
FF
FF
FF
ENDCHAR
STARTCHAR uni25D6.v
ENCODING 57688
SWIDTH 1335 0
DWIDTH 11 0
BBX 9 4 1 1
BITMAP
3E00
7F00
FF00
FF80
ENDCHAR
STARTCHAR uni25D7.v
ENCODING 57689
SWIDTH 1335 0
DWIDTH 11 0
BBX 9 4 1 1
BITMAP
FF80
FF00
7F00
7E00
ENDCHAR
STARTCHAR uni27A1.w
ENCODING 57690
SWIDTH 650 0
DWIDTH 5 0
BBX 6 12 0 -3
BITMAP
08
18
3C
3C
7C
FC
FC
7C
3C
3C
18
08
ENDCHAR
STARTCHAR uni27A1.n
ENCODING 57691
SWIDTH 1000 0
DWIDTH 8 0
BBX 12 6 -2 0
BITMAP
3FC0
FFF0
7FE0
3FC0
0F00
0600
ENDCHAR
STARTCHAR uni27A1.s
ENCODING 57692
SWIDTH 1000 0
DWIDTH 8 0
BBX 12 6 -2 0
BITMAP
0600
0F00
1F80
7FE0
FFF0
3FC0
ENDCHAR
STARTCHAR uni2B24.salt
ENCODING 57693
SWIDTH 1280 0
DWIDTH 10 0
BBX 8 9 1 -2
BITMAP
7E
FF
FF
FF
FF
FF
FF
7F
1C
ENDCHAR
STARTCHAR uni25DD.curve
ENCODING 57694
SWIDTH 1280 0
DWIDTH 10 0
BBX 8 8 1 -1
BITMAP
FE
FF
FF
FF
FF
FF
FF
FF
ENDCHAR
STARTCHAR uni2B1B.trapezoid_e
ENCODING 57695
SWIDTH 1280 0
DWIDTH 10 0
BBX 9 8 1 -1
BITMAP
FF80
FF80
FF80
FF80
FF00
FF00
FF00
FF00
ENDCHAR
STARTCHAR uni2B1B.trapezoid_w
ENCODING 57696
SWIDTH 1280 0
DWIDTH 10 0
BBX 9 8 0 -1
BITMAP
FF80
FF80
7F80
7F80
7F80
7F80
7F80
7F80
ENDCHAR
STARTCHAR arrowleft.chevron
ENCODING 57697
SWIDTH 1330 0
DWIDTH 11 0
BBX 11 12 0 -3
BITMAP
0800
0800
1FE0
3FC0
7FC0
FF80
FF80
7FC0
3FC0
1FC0
1820
0800
ENDCHAR
STARTCHAR arrowup.chevron
ENCODING 57698
SWIDTH 1280 0
DWIDTH 10 0
BBX 12 12 -1 -3
BITMAP
0200
0700
1F80
3FC0
7FE0
BFD0
3FC0
3FC0
3FC0
3FC0
39C0
6040
ENDCHAR
STARTCHAR arrowright.chevron
ENCODING 57699
SWIDTH 1330 0
DWIDTH 11 0
BBX 11 12 0 -3
BITMAP
0400
0200
FF00
7F80
7F80
7FC0
7FE0
7FC0
7F80
FF00
0200
0400
ENDCHAR
STARTCHAR arrowdown.chevron
ENCODING 57700
SWIDTH 1280 0
DWIDTH 10 0
BBX 12 12 -1 -3
BITMAP
2020
38C0
3FC0
3FC0
3FC0
3FC0
3FC0
FFF0
3FC0
1F80
0F00
0600
ENDCHAR
STARTCHAR uni25D6.deco
ENCODING 57701
SWIDTH 560 0
DWIDTH 4 0
BBX 5 10 0 -2
BITMAP
10
38
78
78
F8
F8
F8
78
38
30
ENDCHAR
STARTCHAR uni25D7.deco
ENCODING 57702
SWIDTH 560 0
DWIDTH 4 0
BBX 4 10 0 -2
BITMAP
80
E0
F0
F0
F0
F0
F0
F0
E0
C0
ENDCHAR
STARTCHAR uni25D6.v_deco
ENCODING 57703
SWIDTH 1280 0
DWIDTH 10 0
BBX 10 5 0 0
BITMAP
1E00
3F80
7FC0
FFC0
7F80
ENDCHAR
STARTCHAR uni25D7.v_deco
ENCODING 57704
SWIDTH 1280 0
DWIDTH 10 0
BBX 10 4 0 1
BITMAP
FFC0
7FC0
3F80
3F00
ENDCHAR
STARTCHAR uni25D6.bevel
ENCODING 57705
SWIDTH 350 0
DWIDTH 3 0
BBX 2 8 1 -1
BITMAP
C0
C0
C0
C0
C0
C0
C0
C0
ENDCHAR
STARTCHAR uni25D7.bevel
ENCODING 57706
SWIDTH 350 0
DWIDTH 3 0
BBX 2 8 0 -1
BITMAP
80
C0
C0
C0
C0
C0
C0
C0
ENDCHAR
STARTCHAR uni25D6.v_bevel
ENCODING 57707
SWIDTH 1280 0
DWIDTH 10 0
BBX 8 2 1 2
BITMAP
FE
FF
ENDCHAR
STARTCHAR uni25D7.v_bevel
ENCODING 57708
SWIDTH 1280 0
DWIDTH 10 0
BBX 8 2 1 2
BITMAP
FF
7F
ENDCHAR
STARTCHAR uni25D6.spike
ENCODING 57709
SWIDTH 350 0
DWIDTH 3 0
BBX 3 9 0 -2
BITMAP
60
60
60
60
E0
60
60
60
40
ENDCHAR
STARTCHAR uni25D7.spike
ENCODING 57710
SWIDTH 350 0
DWIDTH 3 0
BBX 3 9 0 -2
BITMAP
C0
80
80
C0
E0
80
80
C0
40
ENDCHAR
STARTCHAR uni25D6.v_spike
ENCODING 57711
SWIDTH 1280 0
DWIDTH 10 0
BBX 9 3 1 1
BITMAP
9980
FF80
FF00
ENDCHAR
STARTCHAR uni25D7.v_spike
ENCODING 57712
SWIDTH 1280 0
DWIDTH 10 0
BBX 9 3 1 1
BITMAP
FF00
9D80
0800
ENDCHAR
STARTCHAR uni25D6.square
ENCODING 57713
SWIDTH 350 0
DWIDTH 3 0
BBX 2 8 1 -1
BITMAP
C0
C0
C0
C0
C0
C0
C0
C0
ENDCHAR
STARTCHAR uni25D7.square
ENCODING 57714
SWIDTH 350 0
DWIDTH 3 0
BBX 2 8 0 -1
BITMAP
C0
C0
C0
C0
C0
C0
C0
C0
ENDCHAR
STARTCHAR uni25D6.v_square
ENCODING 57715
SWIDTH 1280 0
DWIDTH 10 0
BBX 8 2 1 2
BITMAP
FF
FF
ENDCHAR
STARTCHAR uni25D7.v_square
ENCODING 57716
SWIDTH 1280 0
DWIDTH 10 0
BBX 8 2 1 2
BITMAP
FF
FF
ENDCHAR
STARTCHAR uni25D6.rounded
ENCODING 57717
SWIDTH 350 0
DWIDTH 3 0
BBX 2 8 1 -1
BITMAP
C0
C0
C0
C0
C0
C0
C0
C0
ENDCHAR
STARTCHAR uni25D7.rounded
ENCODING 57718
SWIDTH 350 0
DWIDTH 3 0
BBX 2 8 0 -1
BITMAP
C0
C0
C0
C0
C0
C0
C0
C0
ENDCHAR
STARTCHAR uni25D6.v_rounded
ENCODING 57719
SWIDTH 1280 0
DWIDTH 10 0
BBX 8 2 1 2
BITMAP
FF
FF
ENDCHAR
STARTCHAR uni25D7.v_rounded
ENCODING 57720
SWIDTH 1280 0
DWIDTH 10 0
BBX 8 2 1 2
BITMAP
FF
FF
ENDCHAR
STARTCHAR uni21AB.arrow
ENCODING 57721
SWIDTH 1000 0
DWIDTH 8 0
BBX 11 14 -1 -7
BITMAP
7C00
7F00
7F00
7F80
7F80
7F80
7F80
7F80
3F80
FFE0
7FC0
3F80
1F00
0E00
ENDCHAR
STARTCHAR uni21AC.arrow
ENCODING 57722
SWIDTH 1000 0
DWIDTH 8 0
BBX 10 14 -1 -1
BITMAP
0C00
1E00
3F00
7FC0
FFC0
3F80
7F80
7F80
7F80
7F80
7F80
7F00
7F00
7E00
ENDCHAR
STARTCHAR uni21AB.v_arrow
ENCODING 57723
SWIDTH 1335 0
DWIDTH 11 0
BBX 15 11 -5 -3
BITMAP
0800
0BFE
1FFE
3FFE
7FFE
FFFC
7FFC
3FF8
1FF0
0800
0800
ENDCHAR
STARTCHAR uni21AC.v_arrow
ENCODING 57724
SWIDTH 1335 0
DWIDTH 11 0
BBX 15 11 1 -3
BITMAP
0040
FFA0
FFF0
FFF8
FFFC
FFFE
7FFC
3FF8
1FF0
0020
0040
ENDCHAR
STARTCHAR uni25D6.wings
ENCODING 57725
SWIDTH 900 0
DWIDTH 7 0
BBX 8 12 0 -3
BITMAP
3C
3C
FF
FF
FF
FF
FF
FF
FF
FF
3E
3C
ENDCHAR
STARTCHAR uni25D7.wings
ENCODING 57726
SWIDTH 900 0
DWIDTH 7 0
BBX 7 12 0 -3
BITMAP
7C
7C
FE
FE
FE
FE
FE
FE
FE
FE
FC
7C
ENDCHAR
STARTCHAR uni25D6.v_wings
ENCODING 57727
SWIDTH 1280 0
DWIDTH 10 0
BBX 12 8 -1 -1
BITMAP
3FC0
3FC0
FFF0
FFF0
FFF0
FFF0
7FE0
3FC0
ENDCHAR
STARTCHAR uni25D7.v_wings
ENCODING 57728
SWIDTH 1280 0
DWIDTH 10 0
BBX 12 8 -1 -1
BITMAP
3FC0
3FE0
FFF0
FFF0
FFF0
FFF0
3FC0
3FC0
ENDCHAR
STARTCHAR uni2B1B.chevron_e
ENCODING 57729
SWIDTH 1280 0
DWIDTH 10 0
BBX 10 8 0 -1
BITMAP
FF80
7F80
7FC0
7FC0
7FC0
7FC0
7F80
FF80
ENDCHAR
STARTCHAR uni2B1B.chevron_n
ENCODING 57730
SWIDTH 1280 0
DWIDTH 10 0
BBX 8 10 1 -2
BITMAP
1C
FF
FF
FF
FF
FF
FF
FF
FF
C3
ENDCHAR
STARTCHAR uni2B1B.chevron_s
ENCODING 57731
SWIDTH 1280 0
DWIDTH 10 0
BBX 8 10 1 -2
BITMAP
C1
FF
FF
FF
FF
FF
FF
FF
FF
3C
ENDCHAR
STARTCHAR uni2B1B.chevron_w
ENCODING 57732
SWIDTH 1280 0
DWIDTH 10 0
BBX 10 8 0 -1
BITMAP
7FC0
7FC0
7F80
FF80
FF80
7F80
7FC0
7FC0
ENDCHAR
STARTCHAR uni2B1B.semichevron_e
ENCODING 57733
SWIDTH 650 0
DWIDTH 5 0
BBX 6 8 0 -1
BITMAP
FC
7C
7C
7C
7C
7C
7C
FC
ENDCHAR
STARTCHAR uni2B1B.semichevron_w
ENCODING 57734
SWIDTH 650 0
DWIDTH 5 0
BBX 5 8 0 -1
BITMAP
F8
F8
F0
F0
F0
F0
F8
F8
ENDCHAR
STARTCHAR uni2B1B.semichevron_n
ENCODING 57735
SWIDTH 1000 0
DWIDTH 8 0
BBX 8 6 0 0
BITMAP
81
E7
FF
FF
FF
FF
ENDCHAR
STARTCHAR uni2B1B.semichevron_s
ENCODING 57736
SWIDTH 1000 0
DWIDTH 8 0
BBX 8 6 0 0
BITMAP
FF
FF
FF
FF
E7
81
ENDCHAR
STARTCHAR space.v
ENCODING 57737
SWIDTH 1000 0
DWIDTH 8 0
BBX 1 1 0 0
BITMAP
00
ENDCHAR
STARTCHAR Agrave.v
ENCODING 57738
SWIDTH 1000 0
DWIDTH 8 0
BBX 6 9 1 -1
BITMAP
20
58
78
68
5C
C4
FC
94
F8
ENDCHAR
STARTCHAR Aacute.v
ENCODING 57739
SWIDTH 1000 0
DWIDTH 8 0
BBX 6 9 1 -1
BITMAP
08
74
78
68
5C
C4
FC
94
F8
ENDCHAR
STARTCHAR Acircumflex.v
ENCODING 57740
SWIDTH 1000 0
DWIDTH 8 0
BBX 6 9 1 -1
BITMAP
38
44
78
68
5C
C4
FC
94
F8
ENDCHAR
STARTCHAR Atilde.v
ENCODING 57741
SWIDTH 1000 0
DWIDTH 8 0
BBX 6 8 1 -1
BITMAP
7C
78
68
5C
C4
FC
94
F8
ENDCHAR
STARTCHAR Adieresis.v
ENCODING 57742
SWIDTH 1000 0
DWIDTH 8 0
BBX 6 8 1 -1
BITMAP
78
78
68
5C
C4
FC
94
F8
ENDCHAR
STARTCHAR Aring.v
ENCODING 57743
SWIDTH 1000 0
DWIDTH 8 0
BBX 6 9 1 -1
BITMAP
10
68
78
68
BC
FC
C4
94
F8
ENDCHAR
STARTCHAR Amacron.v
ENCODING 57744
SWIDTH 1000 0
DWIDTH 8 0
BBX 6 8 1 -1
BITMAP
7C
78
68
5C
C4
FC
94
F8
ENDCHAR
STARTCHAR Abreve.v
ENCODING 57745
SWIDTH 1000 0
DWIDTH 8 0
BBX 6 9 1 -1
BITMAP
7C
68
78
68
5C
C4
FC
94
F8
ENDCHAR
STARTCHAR Aogonek.v
ENCODING 57746
SWIDTH 1000 0
DWIDTH 8 0
BBX 6 8 1 -2
BITMAP
78
68
BC
EC
D4
BC
DC
1C
ENDCHAR
STARTCHAR Ccedilla.v
ENCODING 57747
SWIDTH 1000 0
DWIDTH 8 0
BBX 6 8 1 -2
BITMAP
7C
A4
D8
E0
BC
D4
78
60
ENDCHAR
STARTCHAR Cacute.v
ENCODING 57748
SWIDTH 1000 0
DWIDTH 8 0
BBX 6 8 1 -1
BITMAP
7C
7C
A4
D8
E0
BC
9C
78
ENDCHAR
STARTCHAR Ccircumflex.v
ENCODING 57749
SWIDTH 1000 0
DWIDTH 8 0
BBX 6 9 1 -1
BITMAP
30
4C
7C
A4
D8
E0
BC
9C
78
ENDCHAR
STARTCHAR Cdotaccent.v
ENCODING 57750
SWIDTH 1000 0
DWIDTH 8 0
BBX 6 8 1 -1
BITMAP
38
7C
A4
D8
E0
BC
9C
78
ENDCHAR
STARTCHAR Ccaron.v
ENCODING 57751
SWIDTH 1000 0
DWIDTH 8 0
BBX 6 9 1 -1
BITMAP
28
54
7C
A4
D8
E0
BC
9C
78
ENDCHAR
STARTCHAR Dcaron.v
ENCODING 57752
SWIDTH 1000 0
DWIDTH 8 0
BBX 6 9 1 -1
BITMAP
68
54
78
AC
B4
B4
A4
9C
F8
ENDCHAR
STARTCHAR Egrave.v
ENCODING 57753
SWIDTH 1000 0
DWIDTH 8 0
BBX 6 9 1 -1
BITMAP
20
58
7C
A4
B8
A4
BC
84
F8
ENDCHAR
STARTCHAR Eacute.v
ENCODING 57754
SWIDTH 1000 0
DWIDTH 8 0
BBX 6 9 1 -1
BITMAP
08
74
7C
A4
B8
A4
BC
84
F8
ENDCHAR
STARTCHAR Ecircumflex.v
ENCODING 57755
SWIDTH 1000 0
DWIDTH 8 0
BBX 6 9 1 -1
BITMAP
38
44
7C
A4
B8
A4
BC
84
F8
ENDCHAR
STARTCHAR Edieresis.v
ENCODING 57756
SWIDTH 1000 0
DWIDTH 8 0
BBX 6 8 1 -1
BITMAP
78
7C
A4
B8
A4
BC
84
F8
ENDCHAR
STARTCHAR Emacron.v
ENCODING 57757
SWIDTH 1000 0
DWIDTH 8 0
BBX 6 8 1 -1
BITMAP
7C
7C
A4
B8
A4
BC
84
F8
ENDCHAR
STARTCHAR Ebreve.v
ENCODING 57758
SWIDTH 1000 0
DWIDTH 8 0
BBX 6 9 1 -1
BITMAP
7C
68
7C
A4
B8
A4
BC
84
F8
ENDCHAR
STARTCHAR Edotaccent.v
ENCODING 57759
SWIDTH 1000 0
DWIDTH 8 0
BBX 6 8 1 -1
BITMAP
38
7C
A4
B8
A4
BC
84
F8
ENDCHAR
STARTCHAR Eogonek.v
ENCODING 57760
SWIDTH 1000 0
DWIDTH 8 0
BBX 6 8 1 -2
BITMAP
FC
AC
B4
AC
B4
8C
FC
18
ENDCHAR
STARTCHAR Ecaron.v
ENCODING 57761
SWIDTH 1000 0
DWIDTH 8 0
BBX 6 9 1 -1
BITMAP
68
54
7C
A4
B8
A4
BC
84
F8
ENDCHAR
STARTCHAR Gcircumflex.v
ENCODING 57762
SWIDTH 1000 0
DWIDTH 8 0
BBX 6 9 1 -1
BITMAP
38
44
78
A4
D8
F4
A4
9C
78
ENDCHAR
STARTCHAR Gbreve.v
ENCODING 57763
SWIDTH 1000 0
DWIDTH 8 0
BBX 6 9 1 -1
BITMAP
7C
68
78
A4
D8
F4
A4
9C
78
ENDCHAR
STARTCHAR Gdotaccent.v
ENCODING 57764
SWIDTH 1000 0
DWIDTH 8 0
BBX 6 8 1 -1
BITMAP
38
78
A4
D8
F4
A4
9C
78
ENDCHAR
STARTCHAR Gcommaaccent.v
ENCODING 57765
SWIDTH 1000 0
DWIDTH 8 0
BBX 6 9 1 -3
BITMAP
7C
A4
D8
D4
AC
D4
68
78
30
ENDCHAR
STARTCHAR Hcircumflex.v
ENCODING 57766
SWIDTH 1000 0
DWIDTH 8 0
BBX 6 9 1 -1
BITMAP
38
44
7C
B4
A4
BC
B4
94
F8
ENDCHAR
STARTCHAR Igrave.v
ENCODING 57767
SWIDTH 1000 0
DWIDTH 8 0
BBX 6 9 1 -1
BITMAP
20
58
7C
94
F8
78
54
AC
F8
ENDCHAR
STARTCHAR Iacute.v
ENCODING 57768
SWIDTH 1000 0
DWIDTH 8 0
BBX 6 9 1 -1
BITMAP
08
74
7C
94
F8
78
54
AC
F8
ENDCHAR
STARTCHAR Icircumflex.v
ENCODING 57769
SWIDTH 1000 0
DWIDTH 8 0
BBX 6 9 1 -1
BITMAP
38
44
7C
94
F8
78
54
AC
F8
ENDCHAR
STARTCHAR Idieresis.v
ENCODING 57770
SWIDTH 1000 0
DWIDTH 8 0
BBX 6 8 1 -1
BITMAP
78
7C
94
F8
78
54
AC
F8
ENDCHAR
STARTCHAR Itilde.v
ENCODING 57771
SWIDTH 1000 0
DWIDTH 8 0
BBX 6 8 1 -1
BITMAP
7C
7C
94
F8
78
54
AC
F8
ENDCHAR
STARTCHAR Imacron.v
ENCODING 57772
SWIDTH 1000 0
DWIDTH 8 0
BBX 6 8 1 -1
BITMAP
7C
7C
94
F8
78
54
AC
F8
ENDCHAR
STARTCHAR Ibreve.v
ENCODING 57773
SWIDTH 1000 0
DWIDTH 8 0
BBX 6 9 1 -1
BITMAP
7C
68
7C
94
F8
78
54
AC
F8
ENDCHAR
STARTCHAR Iogonek.v
ENCODING 57774
SWIDTH 1000 0
DWIDTH 8 0
BBX 6 8 1 -2
BITMAP
7C
94
F8
78
B4
8C
FC
18
ENDCHAR
STARTCHAR Idotaccent.v
ENCODING 57775
SWIDTH 1000 0
DWIDTH 8 0
BBX 6 8 1 -1
BITMAP
38
7C
94
F8
78
54
AC
F8
ENDCHAR
STARTCHAR Jcircumflex.v
ENCODING 57776
SWIDTH 1000 0
DWIDTH 8 0
BBX 6 9 1 -1
BITMAP
08
34
7C
1C
7C
9C
BC
84
78
ENDCHAR
STARTCHAR Kcommaaccent.v
ENCODING 57777
SWIDTH 1000 0
DWIDTH 8 0
BBX 6 9 1 -3
BITMAP
FC
A8
B4
AC
B4
94
E8
78
30
ENDCHAR
STARTCHAR Lacute.v
ENCODING 57778
SWIDTH 1000 0
DWIDTH 8 0
BBX 6 9 1 -1
BITMAP
40
B8
F0
A0
A8
B4
A4
9C
F8
ENDCHAR
STARTCHAR Lcommaaccent.v
ENCODING 57779
SWIDTH 1000 0
DWIDTH 8 0
BBX 6 9 1 -3
BITMAP
E0
A0
A8
B4
AC
94
E8
78
30
ENDCHAR
STARTCHAR Lcaron.v
ENCODING 57780
SWIDTH 1000 0
DWIDTH 8 0
BBX 6 7 1 -1
BITMAP
EC
B4
B8
B4
A4
9C
F8
ENDCHAR
STARTCHAR Ntilde.v
ENCODING 57781
SWIDTH 1000 0
DWIDTH 8 0
BBX 6 8 1 -1
BITMAP
7C
7C
B4
B4
AC
BC
94
F8
ENDCHAR
STARTCHAR Nacute.v
ENCODING 57782
SWIDTH 1000 0
DWIDTH 8 0
BBX 6 9 1 -1
BITMAP
08
74
7C
B4
B4
AC
BC
94
F8
ENDCHAR
STARTCHAR Ncommaaccent.v
ENCODING 57783
SWIDTH 1000 0
DWIDTH 8 0
BBX 6 9 1 -3
BITMAP
FC
B4
B4
AC
B4
94
E8
78
30
ENDCHAR
STARTCHAR Ncaron.v
ENCODING 57784
SWIDTH 1000 0
DWIDTH 8 0
BBX 6 9 1 -1
BITMAP
68
54
7C
B4
B4
AC
BC
94
F8
ENDCHAR
STARTCHAR Ograve.v
ENCODING 57785
SWIDTH 1000 0
DWIDTH 8 0
BBX 6 9 1 -1
BITMAP
20
58
78
BC
D4
D4
B4
8C
F8
ENDCHAR
STARTCHAR Oacute.v
ENCODING 57786
SWIDTH 1000 0
DWIDTH 8 0
BBX 6 9 1 -1
BITMAP
08
74
58
BC
D4
D4
B4
8C
F8
ENDCHAR
STARTCHAR Ocircumflex.v
ENCODING 57787
SWIDTH 1000 0
DWIDTH 8 0
BBX 6 9 1 -1
BITMAP
38
44
78
BC
D4
D4
B4
8C
F8
ENDCHAR
STARTCHAR Otilde.v
ENCODING 57788
SWIDTH 1000 0
DWIDTH 8 0
BBX 6 8 1 -1
BITMAP
7C
68
BC
D4
D4
B4
8C
F8
ENDCHAR
STARTCHAR Odieresis.v
ENCODING 57789
SWIDTH 1000 0
DWIDTH 8 0
BBX 6 8 1 -1
BITMAP
78
48
BC
D4
D4
B4
8C
F8
ENDCHAR
STARTCHAR Omacron.v
ENCODING 57790
SWIDTH 1000 0
DWIDTH 8 0
BBX 6 8 1 -1
BITMAP
7C
68
BC
D4
D4
B4
8C
F8
ENDCHAR
STARTCHAR Obreve.v
ENCODING 57791
SWIDTH 1000 0
DWIDTH 8 0
BBX 6 9 1 -1
BITMAP
7C
68
58
BC
D4
D4
B4
8C
F8
ENDCHAR
STARTCHAR Ohungarumlaut.v
ENCODING 57792
SWIDTH 1000 0
DWIDTH 8 0
BBX 6 9 1 -1
BITMAP
7C
54
68
BC
D4
D4
B4
8C
F8
ENDCHAR
STARTCHAR Racute.v
ENCODING 57793
SWIDTH 1000 0
DWIDTH 8 0
BBX 6 9 1 -1
BITMAP
08
74
78
AC
BC
BC
B4
94
F8
ENDCHAR
STARTCHAR Rcommaaccent.v
ENCODING 57794
SWIDTH 1000 0
DWIDTH 8 0
BBX 6 9 1 -3
BITMAP
FC
AC
B4
AC
B4
94
E8
78
30
ENDCHAR
STARTCHAR Rcaron.v
ENCODING 57795
SWIDTH 1000 0
DWIDTH 8 0
BBX 6 9 1 -1
BITMAP
68
54
78
AC
BC
BC
B4
94
F8
ENDCHAR
STARTCHAR Sacute.v
ENCODING 57796
SWIDTH 1000 0
DWIDTH 8 0
BBX 6 9 1 -1
BITMAP
08
74
7C
A4
B8
9C
F4
8C
F8
ENDCHAR
STARTCHAR Scircumflex.v
ENCODING 57797
SWIDTH 1000 0
DWIDTH 8 0
BBX 6 9 1 -1
BITMAP
38
44
7C
A4
B8
9C
F4
8C
F8
ENDCHAR
STARTCHAR Scedilla.v
ENCODING 57798
SWIDTH 1000 0
DWIDTH 8 0
BBX 6 8 1 -2
BITMAP
7C
BC
A4
FC
8C
BC
D0
60
ENDCHAR
STARTCHAR Scaron.v
ENCODING 57799
SWIDTH 1000 0
DWIDTH 8 0
BBX 6 9 1 -1
BITMAP
68
54
7C
A4
B8
9C
F4
8C
F8
ENDCHAR
STARTCHAR Scommaaccent.v
ENCODING 57800
SWIDTH 1000 0
DWIDTH 8 0
BBX 6 9 1 -3
BITMAP
7C
AC
B4
CC
BC
94
E8
78
30
ENDCHAR
STARTCHAR Tcommaaccent.v
ENCODING 57801
SWIDTH 1000 0
DWIDTH 8 0
BBX 6 8 1 -2
BITMAP
FC
94
F8
78
68
78
68
30
ENDCHAR
STARTCHAR Tcaron.v
ENCODING 57802
SWIDTH 1000 0
DWIDTH 8 0
BBX 6 9 1 -1
BITMAP
68
54
7C
94
F8
78
78
68
70
ENDCHAR
STARTCHAR Ugrave.v
ENCODING 57803
SWIDTH 1000 0
DWIDTH 8 0
BBX 6 9 1 -1
BITMAP
20
58
7C
B4
B4
B4
BC
84
78
ENDCHAR
STARTCHAR Uacute.v
ENCODING 57804
SWIDTH 1000 0
DWIDTH 8 0
BBX 6 9 1 -1
BITMAP
20
5C
7C
B4
B4
B4
BC
84
78
ENDCHAR
STARTCHAR Ucircumflex.v
ENCODING 57805
SWIDTH 1000 0
DWIDTH 8 0
BBX 6 9 1 -1
BITMAP
38
44
7C
B4
B4
B4
BC
84
78
ENDCHAR
STARTCHAR Udieresis.v
ENCODING 57806
SWIDTH 1000 0
DWIDTH 8 0
BBX 6 8 1 -1
BITMAP
78
7C
B4
B4
B4
BC
84
78
ENDCHAR
STARTCHAR Utilde.v
ENCODING 57807
SWIDTH 1000 0
DWIDTH 8 0
BBX 6 8 1 -1
BITMAP
7C
7C
B4
B4
B4
BC
84
78
ENDCHAR
STARTCHAR Umacron.v
ENCODING 57808
SWIDTH 1000 0
DWIDTH 8 0
BBX 6 8 1 -1
BITMAP
7C
7C
B4
B4
B4
BC
84
78
ENDCHAR
STARTCHAR Ubreve.v
ENCODING 57809
SWIDTH 1000 0
DWIDTH 8 0
BBX 6 9 1 -1
BITMAP
7C
68
7C
B4
B4
B4
BC
84
78
ENDCHAR
STARTCHAR Uring.v
ENCODING 57810
SWIDTH 1000 0
DWIDTH 8 0
BBX 6 10 1 -1
BITMAP
3C
58
68
7C
B4
B4
B4
BC
84
78
ENDCHAR
STARTCHAR Uhungarumlaut.v
ENCODING 57811
SWIDTH 1000 0
DWIDTH 8 0
BBX 6 9 1 -1
BITMAP
7C
54
7C
B4
B4
B4
BC
84
78
ENDCHAR
STARTCHAR Uogonek.v
ENCODING 57812
SWIDTH 1000 0
DWIDTH 8 0
BBX 6 8 1 -2
BITMAP
FC
B4
B4
B4
AC
D4
68
30
ENDCHAR
STARTCHAR Wcircumflex.v
ENCODING 57813
SWIDTH 1000 0
DWIDTH 8 0
BBX 6 9 1 -1
BITMAP
38
44
7C
D4
EC
D4
D4
BC
F8
ENDCHAR
STARTCHAR Wgrave.v
ENCODING 57814
SWIDTH 1000 0
DWIDTH 8 0
BBX 6 9 1 -1
BITMAP
20
58
7C
D4
EC
D4
D4
BC
F8
ENDCHAR
STARTCHAR Wacute.v
ENCODING 57815
SWIDTH 1000 0
DWIDTH 8 0
BBX 6 8 1 -1
BITMAP
7C
7C
D4
EC
D4
D4
BC
F8
ENDCHAR
STARTCHAR Wdieresis.v
ENCODING 57816
SWIDTH 1000 0
DWIDTH 8 0
BBX 6 8 1 -1
BITMAP
7C
7C
D4
EC
D4
D4
BC
F8
ENDCHAR
STARTCHAR Yacute.v
ENCODING 57817
SWIDTH 1000 0
DWIDTH 8 0
BBX 6 9 1 -1
BITMAP
20
5C
7C
B4
BC
E8
58
68
70
ENDCHAR
STARTCHAR Ycircumflex.v
ENCODING 57818
SWIDTH 1000 0
DWIDTH 8 0
BBX 6 9 1 -1
BITMAP
38
44
7C
B4
BC
E8
58
68
70
ENDCHAR
STARTCHAR Ydieresis.v
ENCODING 57819
SWIDTH 1000 0
DWIDTH 8 0
BBX 6 8 1 -1
BITMAP
78
7C
B4
BC
E8
58
68
70
ENDCHAR
STARTCHAR Ygrave.v
ENCODING 57820
SWIDTH 1000 0
DWIDTH 8 0
BBX 6 9 1 -1
BITMAP
20
58
7C
B4
BC
E8
58
68
70
ENDCHAR
STARTCHAR Zacute.v
ENCODING 57821
SWIDTH 1000 0
DWIDTH 8 0
BBX 6 9 1 -1
BITMAP
20
5C
7C
84
FC
58
A4
9C
F8
ENDCHAR
STARTCHAR Zdotaccent.v
ENCODING 57822
SWIDTH 1000 0
DWIDTH 8 0
BBX 6 8 1 -1
BITMAP
38
7C
84
FC
58
A4
9C
F8
ENDCHAR
STARTCHAR Zcaron.v
ENCODING 57823
SWIDTH 1000 0
DWIDTH 8 0
BBX 6 9 1 -1
BITMAP
68
54
7C
84
FC
58
A4
9C
F8
ENDCHAR
STARTCHAR AE.v
ENCODING 57824
SWIDTH 1000 0
DWIDTH 8 0
BBX 6 7 1 -1
BITMAP
7C
6C
D4
FC
CC
A4
F8
ENDCHAR
STARTCHAR Eth.v
ENCODING 57825
SWIDTH 1000 0
DWIDTH 8 0
BBX 6 7 1 -1
BITMAP
FC
AC
B4
F4
AC
94
F8
ENDCHAR
STARTCHAR Oslash.v
ENCODING 57826
SWIDTH 1000 0
DWIDTH 8 0
BBX 6 8 1 -2
BITMAP
7C
AC
F4
EC
B4
EC
B8
40
ENDCHAR
STARTCHAR Thorn.v
ENCODING 57827
SWIDTH 1000 0
DWIDTH 8 0
BBX 6 7 1 -1
BITMAP
E0
BC
A4
B4
AC
98
E0
ENDCHAR
STARTCHAR Dcroat.v
ENCODING 57828
SWIDTH 1000 0
DWIDTH 8 0
BBX 6 7 1 -1
BITMAP
FC
AC
B4
F4
AC
94
F8
ENDCHAR
STARTCHAR Hbar.v
ENCODING 57829
SWIDTH 1000 0
DWIDTH 8 0
BBX 6 7 1 -1
BITMAP
FC
EC
B4
A4
BC
94
F8
ENDCHAR
STARTCHAR IJ.v
ENCODING 57830
SWIDTH 1000 0
DWIDTH 8 0
BBX 6 7 1 -1
BITMAP
FC
B4
B4
F4
4C
B4
F8
ENDCHAR
STARTCHAR Ldot.v
ENCODING 57831
SWIDTH 1000 0
DWIDTH 8 0
BBX 6 9 1 -3
BITMAP
E0
A0
A8
B4
AC
94
E8
28
30
ENDCHAR
STARTCHAR Lslash.v
ENCODING 57832
SWIDTH 1000 0
DWIDTH 8 0
BBX 6 7 1 -1
BITMAP
E0
A0
B8
B4
A4
9C
F8
ENDCHAR
STARTCHAR Eng.v
ENCODING 57833
SWIDTH 1000 0
DWIDTH 8 0
BBX 6 8 1 -2
BITMAP
7C
AC
BC
BC
BC
9C
EC
30
ENDCHAR
STARTCHAR OE.v
ENCODING 57834
SWIDTH 1000 0
DWIDTH 8 0
BBX 6 7 1 -1
BITMAP
7C
EC
EC
EC
CC
B4
F8
ENDCHAR
STARTCHAR Tbar.v
ENCODING 57835
SWIDTH 1000 0
DWIDTH 8 0
BBX 6 7 1 -1
BITMAP
FC
FC
78
78
78
68
70
ENDCHAR
STARTCHAR Germandbls.v
ENCODING 57836
SWIDTH 1000 0
DWIDTH 8 0
BBX 6 7 1 -1
BITMAP
FC
AC
BC
AC
B4
9C
F8
ENDCHAR
STARTCHAR A.salt_v
ENCODING 57837
SWIDTH 1000 0
DWIDTH 8 0
BBX 6 7 1 -1
BITMAP
7C
AC
D4
EC
D4
94
F8
ENDCHAR
STARTCHAR Agrave.salt_v
ENCODING 57838
SWIDTH 1000 0
DWIDTH 8 0
BBX 6 9 1 -1
BITMAP
20
58
78
BC
D4
FC
C4
94
F8
ENDCHAR
STARTCHAR Aacute.salt_v
ENCODING 57839
SWIDTH 1000 0
DWIDTH 8 0
BBX 6 9 1 -1
BITMAP
08
74
58
BC
D4
FC
C4
94
F8
ENDCHAR
STARTCHAR Acircumflex.salt_v
ENCODING 57840
SWIDTH 1000 0
DWIDTH 8 0
BBX 6 9 1 -1
BITMAP
38
44
78
BC
D4
FC
C4
94
F8
ENDCHAR
STARTCHAR Atilde.salt_v
ENCODING 57841
SWIDTH 1000 0
DWIDTH 8 0
BBX 6 8 1 -1
BITMAP
7C
68
BC
D4
FC
C4
94
F8
ENDCHAR
STARTCHAR Adieresis.salt_v
ENCODING 57842
SWIDTH 1000 0
DWIDTH 8 0
BBX 6 8 1 -1
BITMAP
78
48
BC
D4
FC
C4
94
F8
ENDCHAR
STARTCHAR Aring.salt_v
ENCODING 57843
SWIDTH 1000 0
DWIDTH 8 0
BBX 6 9 1 -1
BITMAP
38
78
78
AC
D4
FC
C4
94
F8
ENDCHAR
STARTCHAR Amacron.salt_v
ENCODING 57844
SWIDTH 1000 0
DWIDTH 8 0
BBX 6 8 1 -1
BITMAP
7C
68
BC
D4
FC
C4
94
F8
ENDCHAR
STARTCHAR Abreve.salt_v
ENCODING 57845
SWIDTH 1000 0
DWIDTH 8 0
BBX 6 9 1 -1
BITMAP
7C
68
58
BC
D4
FC
C4
94
F8
ENDCHAR
STARTCHAR Aogonek.salt_v
ENCODING 57846
SWIDTH 1000 0
DWIDTH 8 0
BBX 6 8 1 -2
BITMAP
78
BC
D4
FC
C4
9C
FC
1C
ENDCHAR
STARTCHAR E.salt_v
ENCODING 57847
SWIDTH 1000 0
DWIDTH 8 0
BBX 6 7 1 -1
BITMAP
7C
A4
BC
BC
BC
9C
78
ENDCHAR
STARTCHAR Egrave.salt_v
ENCODING 57848
SWIDTH 1000 0
DWIDTH 8 0
BBX 6 9 1 -1
BITMAP
20
58
7C
A4
B8
A4
BC
84
78
ENDCHAR
STARTCHAR Eacute.salt_v
ENCODING 57849
SWIDTH 1000 0
DWIDTH 8 0
BBX 6 9 1 -1
BITMAP
08
74
7C
A4
B8
A4
BC
84
78
ENDCHAR
STARTCHAR Ecircumflex.salt_v
ENCODING 57850
SWIDTH 1000 0
DWIDTH 8 0
BBX 6 9 1 -1
BITMAP
38
44
7C
A4
B8
A4
BC
84
78
ENDCHAR
STARTCHAR Edieresis.salt_v
ENCODING 57851
SWIDTH 1000 0
DWIDTH 8 0
BBX 6 8 1 -1
BITMAP
78
7C
A4
B8
A4
BC
84
78
ENDCHAR
STARTCHAR Emacron.salt_v
ENCODING 57852
SWIDTH 1000 0
DWIDTH 8 0
BBX 6 8 1 -1
BITMAP
7C
7C
A4
B8
A4
BC
84
78
ENDCHAR
STARTCHAR Ebreve.salt_v
ENCODING 57853
SWIDTH 1000 0
DWIDTH 8 0
BBX 6 9 1 -1
BITMAP
7C
68
7C
A4
B8
A4
BC
84
78
ENDCHAR
STARTCHAR Edotaccent.salt_v
ENCODING 57854
SWIDTH 1000 0
DWIDTH 8 0
BBX 6 8 1 -1
BITMAP
38
7C
A4
B8
A4
BC
84
78
ENDCHAR
STARTCHAR Eogonek.salt_v
ENCODING 57855
SWIDTH 1000 0
DWIDTH 8 0
BBX 6 8 1 -2
BITMAP
7C
AC
B4
AC
B4
CC
7C
18
ENDCHAR
STARTCHAR Ecaron.salt_v
ENCODING 57856
SWIDTH 1000 0
DWIDTH 8 0
BBX 6 9 1 -1
BITMAP
68
54
7C
A4
B8
A4
BC
84
78
ENDCHAR
STARTCHAR I.salt_v
ENCODING 57857
SWIDTH 1000 0
DWIDTH 8 0
BBX 4 7 2 -1
BITMAP
70
F0
F0
F0
F0
D0
E0
ENDCHAR
STARTCHAR I_I.salt_v
ENCODING 57858
SWIDTH 1000 0
DWIDTH 8 0
BBX 6 7 1 -1
BITMAP
FC
B4
B4
B4
B4
94
F8
ENDCHAR
STARTCHAR Igrave.salt_v
ENCODING 57859
SWIDTH 1000 0
DWIDTH 8 0
BBX 4 9 2 -1
BITMAP
40
B0
F0
70
F0
F0
F0
D0
E0
ENDCHAR
STARTCHAR Iacute.salt_v
ENCODING 57860
SWIDTH 1000 0
DWIDTH 8 0
BBX 4 8 2 -1
BITMAP
F0
E0
70
F0
F0
F0
D0
E0
ENDCHAR
STARTCHAR Icircumflex.salt_v
ENCODING 57861
SWIDTH 1000 0
DWIDTH 8 0
BBX 4 9 2 -1
BITMAP
60
90
F0
70
F0
F0
F0
D0
E0
ENDCHAR
STARTCHAR Idieresis.salt_v
ENCODING 57862
SWIDTH 1000 0
DWIDTH 8 0
BBX 4 8 2 -1
BITMAP
F0
F0
70
F0
F0
F0
D0
E0
ENDCHAR
STARTCHAR Itilde.salt_v
ENCODING 57863
SWIDTH 1000 0
DWIDTH 8 0
BBX 4 8 2 -1
BITMAP
F0
F0
70
F0
F0
F0
D0
E0
ENDCHAR
STARTCHAR Imacron.salt_v
ENCODING 57864
SWIDTH 1000 0
DWIDTH 8 0
BBX 4 8 2 -1
BITMAP
F0
F0
70
F0
F0
F0
D0
E0
ENDCHAR
STARTCHAR Ibreve.salt_v
ENCODING 57865
SWIDTH 1000 0
DWIDTH 8 0
BBX 4 9 2 -1
BITMAP
F0
D0
E0
70
F0
F0
F0
D0
E0
ENDCHAR
STARTCHAR Iogonek.salt_v
ENCODING 57866
SWIDTH 1000 0
DWIDTH 8 0
BBX 4 8 2 -2
BITMAP
20
50
50
50
50
70
50
E0
ENDCHAR
STARTCHAR Idotaccent.salt_v
ENCODING 57867
SWIDTH 1000 0
DWIDTH 8 0
BBX 4 8 2 -1
BITMAP
70
E0
70
F0
F0
F0
D0
E0
ENDCHAR
STARTCHAR L.salt_v
ENCODING 57868
SWIDTH 1000 0
DWIDTH 8 0
BBX 6 7 1 -1
BITMAP
E0
A0
A0
A0
BC
9C
F8
ENDCHAR
STARTCHAR Lacute.salt_v
ENCODING 57869
SWIDTH 1000 0
DWIDTH 8 0
BBX 6 9 1 -1
BITMAP
40
B8
F0
A0
A0
A0
BC
9C
F8
ENDCHAR
STARTCHAR Lcommaaccent.salt_v
ENCODING 57870
SWIDTH 1000 0
DWIDTH 8 0
BBX 6 9 1 -3
BITMAP
E0
A0
A0
A0
BC
94
E8
78
30
ENDCHAR
STARTCHAR Lcaron.salt_v
ENCODING 57871
SWIDTH 1000 0
DWIDTH 8 0
BBX 7 7 1 -1
BITMAP
EE
AE
BC
A0
BC
9C
F8
ENDCHAR
STARTCHAR Ldot.salt_v
ENCODING 57872
SWIDTH 1000 0
DWIDTH 8 0
BBX 6 9 1 -3
BITMAP
E0
A0
A0
A0
BC
B4
C8
48
70
ENDCHAR
STARTCHAR Lslash.salt_v
ENCODING 57873
SWIDTH 1000 0
DWIDTH 8 0
BBX 6 7 1 -1
BITMAP
E0
A0
F0
A0
BC
9C
F8
ENDCHAR
STARTCHAR L.salt_s_v
ENCODING 57874
SWIDTH 1000 0
DWIDTH 8 0
BBX 6 7 1 -1
BITMAP
60
A0
A0
A0
BC
9C
F8
ENDCHAR
STARTCHAR M.salt_v
ENCODING 57875
SWIDTH 1000 0
DWIDTH 8 0
BBX 6 7 1 -1
BITMAP
7C
D4
FC
FC
FC
AC
FC
ENDCHAR
STARTCHAR N.salt_v
ENCODING 57876
SWIDTH 1000 0
DWIDTH 8 0
BBX 6 7 1 -1
BITMAP
7C
AC
BC
BC
BC
94
F8
ENDCHAR
STARTCHAR Ntilde.salt_v
ENCODING 57877
SWIDTH 1000 0
DWIDTH 8 0
BBX 6 8 1 -1
BITMAP
7C
68
BC
BC
BC
BC
94
F8
ENDCHAR
STARTCHAR Nacute.salt_v
ENCODING 57878
SWIDTH 1000 0
DWIDTH 8 0
BBX 6 9 1 -1
BITMAP
08
74
58
BC
BC
BC
BC
94
F8
ENDCHAR
STARTCHAR Ncommaaccent.salt_v
ENCODING 57879
SWIDTH 1000 0
DWIDTH 8 0
BBX 6 8 1 -2
BITMAP
7C
AC
BC
BC
94
F8
68
30
ENDCHAR
STARTCHAR Ncaron.salt_v
ENCODING 57880
SWIDTH 1000 0
DWIDTH 8 0
BBX 6 9 1 -1
BITMAP
68
54
68
BC
BC
BC
BC
94
F8
ENDCHAR
STARTCHAR W.salt_v
ENCODING 57881
SWIDTH 1000 0
DWIDTH 8 0
BBX 6 7 1 -1
BITMAP
FC
FC
FC
FC
FC
84
F8
ENDCHAR
STARTCHAR Wcircumflex.salt_v
ENCODING 57882
SWIDTH 1000 0
DWIDTH 8 0
BBX 6 9 1 -1
BITMAP
38
44
7C
FC
FC
FC
FC
84
F8
ENDCHAR
STARTCHAR Wgrave.salt_v
ENCODING 57883
SWIDTH 1000 0
DWIDTH 8 0
BBX 6 9 1 -1
BITMAP
20
58
7C
FC
FC
FC
FC
84
F8
ENDCHAR
STARTCHAR Wacute.salt_v
ENCODING 57884
SWIDTH 1000 0
DWIDTH 8 0
BBX 6 9 1 -1
BITMAP
08
74
7C
FC
FC
FC
FC
84
F8
ENDCHAR
STARTCHAR Wdieresis.salt_v
ENCODING 57885
SWIDTH 1000 0
DWIDTH 8 0
BBX 6 8 1 -1
BITMAP
78
7C
FC
FC
FC
FC
84
F8
ENDCHAR
STARTCHAR X.salt_v
ENCODING 57886
SWIDTH 1100 0
DWIDTH 9 0
BBX 6 7 1 -1
BITMAP
7C
74
5C
64
BC
9C
FC
ENDCHAR
STARTCHAR Y.salt_v
ENCODING 57887
SWIDTH 1000 0
DWIDTH 8 0
BBX 6 7 1 -1
BITMAP
FC
B4
B4
AC
F8
68
70
ENDCHAR
STARTCHAR Yacute.salt_v
ENCODING 57888
SWIDTH 1000 0
DWIDTH 8 0
BBX 6 9 1 -1
BITMAP
08
74
7C
B4
B4
AC
F8
68
70
ENDCHAR
STARTCHAR Ycircumflex.salt_v
ENCODING 57889
SWIDTH 1000 0
DWIDTH 8 0
BBX 6 9 1 -1
BITMAP
38
44
7C
B4
B4
AC
F8
68
70
ENDCHAR
STARTCHAR Ydieresis.salt_v
ENCODING 57890
SWIDTH 1000 0
DWIDTH 8 0
BBX 6 8 1 -1
BITMAP
78
7C
B4
B4
AC
F8
68
70
ENDCHAR
STARTCHAR Ygrave.salt_v
ENCODING 57891
SWIDTH 1000 0
DWIDTH 8 0
BBX 6 9 1 -1
BITMAP
20
58
7C
B4
B4
AC
F8
68
70
ENDCHAR
STARTCHAR AE.salt_v
ENCODING 57892
SWIDTH 1000 0
DWIDTH 8 0
BBX 6 7 1 -1
BITMAP
7C
EC
EC
FC
CC
A4
F8
ENDCHAR
STARTCHAR IJ.salt_v
ENCODING 57893
SWIDTH 1000 0
DWIDTH 8 0
BBX 6 13 1 -4
BITMAP
10
38
78
78
78
68
7C
14
74
94
BC
84
78
ENDCHAR
STARTCHAR IJ.stack_v
ENCODING 57894
SWIDTH 1000 0
DWIDTH 8 0
BBX 6 13 1 -4
BITMAP
7C
94
F8
78
BC
84
FC
1C
7C
9C
AC
94
78
ENDCHAR
STARTCHAR commaaccent.v
ENCODING 57895
SWIDTH 1000 0
DWIDTH 8 0
BBX 4 4 2 -4
BITMAP
70
F0
70
40
ENDCHAR
STARTCHAR hyphen.v
ENCODING 57896
SWIDTH 1000 0
DWIDTH 8 0
BBX 2 3 3 1
BITMAP
C0
C0
C0
ENDCHAR
STARTCHAR endash.v
ENCODING 57897
SWIDTH 1000 0
DWIDTH 8 0
BBX 2 5 3 0
BITMAP
C0
C0
C0
C0
C0
ENDCHAR
STARTCHAR emdash.v
ENCODING 57898
SWIDTH 1000 0
DWIDTH 8 0
BBX 2 9 3 -2
BITMAP
C0
C0
C0
C0
C0
C0
C0
C0
C0
ENDCHAR
STARTCHAR parenleft.v
ENCODING 57899
SWIDTH 1000 0
DWIDTH 8 0
BBX 8 3 0 1
BITMAP
7F
C1
FF
ENDCHAR
STARTCHAR parenright.v
ENCODING 57900
SWIDTH 1000 0
DWIDTH 8 0
BBX 8 3 0 1
BITMAP
E3
BF
FE
ENDCHAR
STARTCHAR bracketleft.v
ENCODING 57901
SWIDTH 1000 0
DWIDTH 8 0
BBX 8 3 0 1
BITMAP
FF
C1
FF
ENDCHAR
STARTCHAR bracketright.v
ENCODING 57902
SWIDTH 1000 0
DWIDTH 8 0
BBX 8 3 0 1
BITMAP
E3
FF
FF
ENDCHAR
STARTCHAR braceleft.v
ENCODING 57903
SWIDTH 1000 0
DWIDTH 8 0
BBX 8 5 0 0
BITMAP
08
7F
C9
BF
C6
ENDCHAR
STARTCHAR braceright.v
ENCODING 57904
SWIDTH 1000 0
DWIDTH 8 0
BBX 8 5 0 0
BITMAP
63
DD
B7
FE
10
ENDCHAR
STARTCHAR quoteleft.v
ENCODING 57905
SWIDTH 1000 0
DWIDTH 8 0
BBX 4 4 2 1
BITMAP
70
A0
B0
E0
ENDCHAR
STARTCHAR quoteright.v
ENCODING 57906
SWIDTH 1000 0
DWIDTH 8 0
BBX 4 4 2 1
BITMAP
70
90
F0
E0
ENDCHAR
STARTCHAR quotedblleft.v
ENCODING 57907
SWIDTH 1000 0
DWIDTH 8 0
BBX 6 4 1 1
BITMAP
7C
B4
BC
F8
ENDCHAR
STARTCHAR quotedblright.v
ENCODING 57908
SWIDTH 1000 0
DWIDTH 8 0
BBX 6 4 1 1
BITMAP
FC
94
FC
F8
ENDCHAR
STARTCHAR quotesinglbase.v
ENCODING 57909
SWIDTH 1000 0
DWIDTH 8 0
BBX 4 5 2 0
BITMAP
70
B0
F0
E0
C0
ENDCHAR
STARTCHAR quotedblbase.v
ENCODING 57910
SWIDTH 1000 0
DWIDTH 8 0
BBX 6 4 1 1
BITMAP
FC
94
FC
F8
ENDCHAR
STARTCHAR guilsinglleft.v
ENCODING 57911
SWIDTH 1000 0
DWIDTH 8 0
BBX 6 5 1 0
BITMAP
38
78
78
54
F8
ENDCHAR
STARTCHAR guilsinglright.v
ENCODING 57912
SWIDTH 1000 0
DWIDTH 8 0
BBX 6 5 1 0
BITMAP
7C
F8
68
58
70
ENDCHAR
STARTCHAR guillemotleft.v
ENCODING 57913
SWIDTH 1000 0
DWIDTH 8 0
BBX 6 7 1 -1
BITMAP
38
78
54
F8
68
54
78
ENDCHAR
STARTCHAR guillemotright.v
ENCODING 57914
SWIDTH 1000 0
DWIDTH 8 0
BBX 6 7 1 -1
BITMAP
7C
FC
48
74
E8
58
70
ENDCHAR
STARTCHAR period.v
ENCODING 57915
SWIDTH 1000 0
DWIDTH 8 0
BBX 4 4 2 1
BITMAP
70
B0
90
E0
ENDCHAR
STARTCHAR comma.v
ENCODING 57916
SWIDTH 1000 0
DWIDTH 8 0
BBX 4 5 2 0
BITMAP
70
B0
F0
E0
C0
ENDCHAR
STARTCHAR ellipsis.v
ENCODING 57917
SWIDTH 1000 0
DWIDTH 8 0
BBX 10 4 -1 1
BITMAP
3F80
6EC0
CA40
FF80
ENDCHAR
STARTCHAR exclamdown.v
ENCODING 57918
SWIDTH 1000 0
DWIDTH 8 0
BBX 4 7 2 -1
BITMAP
70
F0
E0
70
F0
90
E0
ENDCHAR
STARTCHAR questiondown.v
ENCODING 57919
SWIDTH 1000 0
DWIDTH 8 0
BBX 6 7 1 -1
BITMAP
3C
28
38
74
BC
9C
F8
ENDCHAR
STARTCHAR dagger.v
ENCODING 57920
SWIDTH 1000 0
DWIDTH 8 0
BBX 6 7 1 -1
BITMAP
38
74
BC
FC
30
28
30
ENDCHAR
STARTCHAR daggerdbl.v
ENCODING 57921
SWIDTH 1000 0
DWIDTH 8 0
BBX 6 7 1 -1
BITMAP
78
BC
FC
7C
BC
EC
30
ENDCHAR
STARTCHAR perthousand.v
ENCODING 57922
SWIDTH 1000 0
DWIDTH 8 0
BBX 8 7 0 -1
BITMAP
7E
D4
A8
FF
7B
5F
FE
ENDCHAR
STARTCHAR ampersand.salt_v
ENCODING 57923
SWIDTH 1000 0
DWIDTH 8 0
BBX 6 9 1 -2
BITMAP
18
7C
64
7C
BC
DC
BC
E8
30
ENDCHAR
STARTCHAR quoteleft.salt_v
ENCODING 57924
SWIDTH 1000 0
DWIDTH 8 0
BBX 3 3 1 1
BITMAP
60
E0
C0
ENDCHAR
STARTCHAR quoteright.salt_v
ENCODING 57925
SWIDTH 1000 0
DWIDTH 8 0
BBX 3 3 1 1
BITMAP
E0
E0
C0
ENDCHAR
STARTCHAR A.s_v
ENCODING 57926
SWIDTH 1000 0
DWIDTH 8 0
BBX 6 7 1 -1
BITMAP
38
68
5C
C4
FC
94
F8
ENDCHAR
STARTCHAR C.s_v
ENCODING 57927
SWIDTH 1000 0
DWIDTH 8 0
BBX 6 7 1 -1
BITMAP
7C
A4
D8
E0
BC
9C
78
ENDCHAR
STARTCHAR D.s_v
ENCODING 57928
SWIDTH 1000 0
DWIDTH 8 0
BBX 6 7 1 -1
BITMAP
78
AC
B4
B4
A4
9C
F8
ENDCHAR
STARTCHAR E.s_v
ENCODING 57929
SWIDTH 1000 0
DWIDTH 8 0
BBX 6 7 1 -1
BITMAP
7C
A4
B8
A4
BC
84
F8
ENDCHAR
STARTCHAR G.s_v
ENCODING 57930
SWIDTH 1000 0
DWIDTH 8 0
BBX 6 7 1 -1
BITMAP
78
A4
D8
F4
A4
9C
78
ENDCHAR
STARTCHAR H.s_v
ENCODING 57931
SWIDTH 1000 0
DWIDTH 8 0
BBX 6 7 1 -1
BITMAP
6C
B4
A4
BC
B4
94
F8
ENDCHAR
STARTCHAR I.s_v
ENCODING 57932
SWIDTH 1000 0
DWIDTH 8 0
BBX 6 7 1 -1
BITMAP
7C
94
F8
78
54
AC
F8
ENDCHAR
STARTCHAR J.s_v
ENCODING 57933
SWIDTH 1000 0
DWIDTH 8 0
BBX 6 7 1 -1
BITMAP
0C
1C
7C
9C
BC
84
78
ENDCHAR
STARTCHAR K.s_v
ENCODING 57934
SWIDTH 1000 0
DWIDTH 8 0
BBX 6 7 1 -1
BITMAP
6C
BC
A8
BC
B4
94
F8
ENDCHAR
STARTCHAR L.s_v
ENCODING 57935
SWIDTH 1000 0
DWIDTH 8 0
BBX 6 7 1 -1
BITMAP
60
A0
A8
B4
A4
9C
F8
ENDCHAR
STARTCHAR N.s_v
ENCODING 57936
SWIDTH 1000 0
DWIDTH 8 0
BBX 6 7 1 -1
BITMAP
4C
B4
B4
AC
BC
94
F8
ENDCHAR
STARTCHAR O.s_v
ENCODING 57937
SWIDTH 1000 0
DWIDTH 8 0
BBX 6 7 1 -1
BITMAP
78
BC
D4
D4
B4
8C
F8
ENDCHAR
STARTCHAR R.s_v
ENCODING 57938
SWIDTH 1000 0
DWIDTH 8 0
BBX 6 7 1 -1
BITMAP
78
AC
BC
BC
B4
94
F8
ENDCHAR
STARTCHAR S.s_v
ENCODING 57939
SWIDTH 1000 0
DWIDTH 8 0
BBX 6 7 1 -1
BITMAP
7C
A4
B8
9C
F4
8C
F8
ENDCHAR
STARTCHAR T.s_v
ENCODING 57940
SWIDTH 1000 0
DWIDTH 8 0
BBX 6 7 1 -1
BITMAP
7C
94
F8
78
78
68
70
ENDCHAR
STARTCHAR U.s_v
ENCODING 57941
SWIDTH 1000 0
DWIDTH 8 0
BBX 6 7 1 -1
BITMAP
6C
B4
B4
B4
BC
84
78
ENDCHAR
STARTCHAR W.s_v
ENCODING 57942
SWIDTH 1000 0
DWIDTH 8 0
BBX 6 7 1 -1
BITMAP
6C
D4
EC
D4
D4
BC
F8
ENDCHAR
STARTCHAR Y.s_v
ENCODING 57943
SWIDTH 1000 0
DWIDTH 8 0
BBX 6 7 1 -1
BITMAP
6C
B4
BC
E8
58
68
70
ENDCHAR
STARTCHAR Z.s_v
ENCODING 57944
SWIDTH 1000 0
DWIDTH 8 0
BBX 6 7 1 -1
BITMAP
7C
84
FC
58
A4
9C
F8
ENDCHAR
STARTCHAR A.salt_s_v
ENCODING 57945
SWIDTH 1000 0
DWIDTH 8 0
BBX 6 7 1 -1
BITMAP
78
BC
D4
FC
C4
94
F8
ENDCHAR
STARTCHAR E.salt_s_v
ENCODING 57946
SWIDTH 1000 0
DWIDTH 8 0
BBX 6 7 1 -1
BITMAP
7C
A4
B8
A4
BC
84
78
ENDCHAR
STARTCHAR I.salt_s_v
ENCODING 57947
SWIDTH 1000 0
DWIDTH 8 0
BBX 4 7 2 -1
BITMAP
20
70
F0
F0
F0
D0
E0
ENDCHAR
STARTCHAR N.salt_s_v
ENCODING 57948
SWIDTH 1000 0
DWIDTH 8 0
BBX 6 7 1 -1
BITMAP
78
BC
BC
BC
BC
94
F8
ENDCHAR
STARTCHAR W.salt_s_v
ENCODING 57949
SWIDTH 1000 0
DWIDTH 8 0
BBX 6 7 1 -1
BITMAP
54
FC
FC
FC
FC
84
F8
ENDCHAR
STARTCHAR Y.salt_s_v
ENCODING 57950
SWIDTH 1000 0
DWIDTH 8 0
BBX 6 7 1 -1
BITMAP
6C
B4
B4
AC
F8
68
70
ENDCHAR
STARTCHAR uniF6C3
ENCODING 63171
SWIDTH 600 0
DWIDTH 5 0
BBX 3 3 1 -3
BITMAP
60
E0
E0
ENDCHAR
STARTCHAR fi
ENCODING 64257
SWIDTH 1423 0
DWIDTH 11 0
BBX 11 7 0 -1
BITMAP
7FE0
BAE0
BF40
B540
B960
92E0
E3E0
ENDCHAR
STARTCHAR fl
ENCODING 64258
SWIDTH 1513 0
DWIDTH 12 0
BBX 12 7 0 -1
BITMAP
7FC0
BA80
BEB0
B6F0
BAF0
92F0
E3E0
ENDCHAR
STARTCHAR exclam.v
ENCODING 65281
SWIDTH 1000 0
DWIDTH 8 0
BBX 4 7 2 -1
BITMAP
70
F0
F0
D0
E0
F0
E0
ENDCHAR
STARTCHAR quotedbl.v
ENCODING 65282
SWIDTH 1000 0
DWIDTH 8 0
BBX 6 4 1 1
BITMAP
7C
BC
BC
F8
ENDCHAR
STARTCHAR percent.v
ENCODING 65285
SWIDTH 1000 0
DWIDTH 8 0
BBX 6 7 1 -1
BITMAP
7C
D8
F8
EC
74
5C
F8
ENDCHAR
STARTCHAR ampersand.v
ENCODING 65286
SWIDTH 1000 0
DWIDTH 8 0
BBX 6 7 1 -1
BITMAP
78
68
F0
CC
D4
AC
F8
ENDCHAR
STARTCHAR quotesingle.v
ENCODING 65287
SWIDTH 1000 0
DWIDTH 8 0
BBX 4 4 2 1
BITMAP
70
F0
F0
60
ENDCHAR
STARTCHAR asterisk.v
ENCODING 65290
SWIDTH 1000 0
DWIDTH 8 0
BBX 6 6 1 -1
BITMAP
38
74
BC
54
F8
50
ENDCHAR
STARTCHAR zero.v
ENCODING 65296
SWIDTH 1000 0
DWIDTH 8 0
BBX 6 7 1 -1
BITMAP
7C
AC
B4
B4
BC
84
78
ENDCHAR
STARTCHAR one.v
ENCODING 65297
SWIDTH 1000 0
DWIDTH 8 0
BBX 6 7 1 -1
BITMAP
78
98
F8
38
54
AC
F8
ENDCHAR
STARTCHAR two.v
ENCODING 65298
SWIDTH 1000 0
DWIDTH 8 0
BBX 6 7 1 -1
BITMAP
7C
8C
FC
B4
BC
9C
F8
ENDCHAR
STARTCHAR three.v
ENCODING 65299
SWIDTH 1000 0
DWIDTH 8 0
BBX 6 7 1 -1
BITMAP
FC
88
F8
7C
B4
BC
F8
ENDCHAR
STARTCHAR four.v
ENCODING 65300
SWIDTH 1000 0
DWIDTH 8 0
BBX 6 7 1 -1
BITMAP
FC
B4
B4
BC
C4
74
18
ENDCHAR
STARTCHAR five.v
ENCODING 65301
SWIDTH 1000 0
DWIDTH 8 0
BBX 6 7 1 -1
BITMAP
7C
A4
BC
9C
F4
BC
F8
ENDCHAR
STARTCHAR six.v
ENCODING 65302
SWIDTH 1000 0
DWIDTH 8 0
BBX 6 7 1 -1
BITMAP
7C
A4
DC
AC
D4
AC
F8
ENDCHAR
STARTCHAR seven.v
ENCODING 65303
SWIDTH 1000 0
DWIDTH 8 0
BBX 6 7 1 -1
BITMAP
FC
84
F4
5C
68
50
60
ENDCHAR
STARTCHAR eight.v
ENCODING 65304
SWIDTH 1000 0
DWIDTH 8 0
BBX 6 7 1 -1
BITMAP
7C
BC
C4
BC
D4
AC
F8
ENDCHAR
STARTCHAR nine.v
ENCODING 65305
SWIDTH 1000 0
DWIDTH 8 0
BBX 6 7 1 -1
BITMAP
7C
A4
D4
AC
F4
7C
78
ENDCHAR
STARTCHAR colon.v
ENCODING 65306
SWIDTH 1000 0
DWIDTH 8 0
BBX 4 7 2 -1
BITMAP
70
90
B0
F0
B0
90
E0
ENDCHAR
STARTCHAR semicolon.v
ENCODING 65307
SWIDTH 1000 0
DWIDTH 8 0
BBX 4 7 2 -1
BITMAP
70
B0
F0
70
90
F0
E0
ENDCHAR
STARTCHAR question.v
ENCODING 65311
SWIDTH 1000 0
DWIDTH 8 0
BBX 6 7 1 -1
BITMAP
7C
B4
FC
64
78
70
60
ENDCHAR
STARTCHAR A.v
ENCODING 65313
SWIDTH 1000 0
DWIDTH 8 0
BBX 6 7 1 -1
BITMAP
78
68
BC
FC
C4
94
F8
ENDCHAR
STARTCHAR B.v
ENCODING 65314
SWIDTH 1000 0
DWIDTH 8 0
BBX 6 7 1 -1
BITMAP
FC
AC
B8
BC
B4
8C
F8
ENDCHAR
STARTCHAR C.v
ENCODING 65315
SWIDTH 1000 0
DWIDTH 8 0
BBX 6 7 1 -1
BITMAP
7C
A4
D8
E0
BC
9C
78
ENDCHAR
STARTCHAR D.v
ENCODING 65316
SWIDTH 1000 0
DWIDTH 8 0
BBX 6 7 1 -1
BITMAP
FC
AC
B4
B4
A4
9C
F8
ENDCHAR
STARTCHAR E.v
ENCODING 65317
SWIDTH 1000 0
DWIDTH 8 0
BBX 6 7 1 -1
BITMAP
FC
A4
BC
B4
BC
9C
F8
ENDCHAR
STARTCHAR F.v
ENCODING 65318
SWIDTH 1000 0
DWIDTH 8 0
BBX 6 7 1 -1
BITMAP
FC
A4
B8
A4
B8
A0
C0
ENDCHAR
STARTCHAR G.v
ENCODING 65319
SWIDTH 1000 0
DWIDTH 8 0
BBX 6 7 1 -1
BITMAP
7C
A4
D8
D4
A4
9C
78
ENDCHAR
STARTCHAR H.v
ENCODING 65320
SWIDTH 1000 0
DWIDTH 8 0
BBX 6 7 1 -1
BITMAP
FC
B4
A4
BC
B4
94
F8
ENDCHAR
STARTCHAR I.v
ENCODING 65321
SWIDTH 1000 0
DWIDTH 8 0
BBX 6 7 1 -1
BITMAP
7C
94
F8
78
54
AC
F8
ENDCHAR
STARTCHAR J.v
ENCODING 65322
SWIDTH 1000 0
DWIDTH 8 0
BBX 6 7 1 -1
BITMAP
1C
1C
7C
9C
BC
84
78
ENDCHAR
STARTCHAR K.v
ENCODING 65323
SWIDTH 1000 0
DWIDTH 8 0
BBX 6 7 1 -1
BITMAP
FC
A8
B4
AC
B4
94
F8
ENDCHAR
STARTCHAR L.v
ENCODING 65324
SWIDTH 1000 0
DWIDTH 8 0
BBX 6 7 1 -1
BITMAP
E0
A0
A8
B4
A4
9C
F8
ENDCHAR
STARTCHAR M.v
ENCODING 65325
SWIDTH 1000 0
DWIDTH 8 0
BBX 6 7 1 -1
BITMAP
EC
D4
D4
EC
D4
B4
D8
ENDCHAR
STARTCHAR N.v
ENCODING 65326
SWIDTH 1000 0
DWIDTH 8 0
BBX 6 7 1 -1
BITMAP
FC
B4
B4
AC
B4
94
F8
ENDCHAR
STARTCHAR O.v
ENCODING 65327
SWIDTH 1000 0
DWIDTH 8 0
BBX 6 7 1 -1
BITMAP
7C
AC
D4
D4
B4
8C
F8
ENDCHAR
STARTCHAR P.v
ENCODING 65328
SWIDTH 1000 0
DWIDTH 8 0
BBX 6 7 1 -1
BITMAP
FC
AC
B4
AC
B8
A0
C0
ENDCHAR
STARTCHAR Q.v
ENCODING 65329
SWIDTH 1000 0
DWIDTH 8 0
BBX 6 8 1 -2
BITMAP
7C
AC
D4
D4
B4
9C
68
30
ENDCHAR
STARTCHAR R.v
ENCODING 65330
SWIDTH 1000 0
DWIDTH 8 0
BBX 6 7 1 -1
BITMAP
FC
AC
B4
AC
B4
94
F8
ENDCHAR
STARTCHAR S.v
ENCODING 65331
SWIDTH 1000 0
DWIDTH 8 0
BBX 6 7 1 -1
BITMAP
7C
A4
BC
DC
B4
BC
F8
ENDCHAR
STARTCHAR T.v
ENCODING 65332
SWIDTH 1000 0
DWIDTH 8 0
BBX 6 7 1 -1
BITMAP
FC
94
F8
78
78
68
70
ENDCHAR
STARTCHAR U.v
ENCODING 65333
SWIDTH 1000 0
DWIDTH 8 0
BBX 6 7 1 -1
BITMAP
FC
B4
B4
B4
BC
84
78
ENDCHAR
STARTCHAR V.v
ENCODING 65334
SWIDTH 1000 0
DWIDTH 8 0
BBX 6 7 1 -1
BITMAP
FC
D4
D4
BC
EC
54
78
ENDCHAR
STARTCHAR W.v
ENCODING 65335
SWIDTH 1000 0
DWIDTH 8 0
BBX 6 7 1 -1
BITMAP
EC
D4
EC
D4
D4
BC
F8
ENDCHAR
STARTCHAR X.v
ENCODING 65336
SWIDTH 1100 0
DWIDTH 9 0
BBX 6 7 1 -1
BITMAP
7C
F4
DC
5C
74
DC
FC
ENDCHAR
STARTCHAR Y.v
ENCODING 65337
SWIDTH 1000 0
DWIDTH 8 0
BBX 6 7 1 -1
BITMAP
FC
B4
BC
E8
58
68
70
ENDCHAR
STARTCHAR Z.v
ENCODING 65338
SWIDTH 1000 0
DWIDTH 8 0
BBX 6 7 1 -1
BITMAP
7C
94
E8
58
A4
9C
F8
ENDCHAR
STARTCHAR uni2B24.salt_v
ENCODING 65339
SWIDTH 1280 0
DWIDTH 10 0
BBX 9 8 1 -1
BITMAP
7F00
FF00
FF00
FF80
FF80
FF80
FF00
7F00
ENDCHAR
STARTCHAR uni25DD.curve_v
ENCODING 65340
SWIDTH 1280 0
DWIDTH 10 0
BBX 8 8 1 -1
BITMAP
7F
FF
FF
FF
FF
FF
FF
FF
ENDCHAR
STARTCHAR uni2B1B.trapezoid_e_v
ENCODING 65341
SWIDTH 1280 0
DWIDTH 10 0
BBX 8 9 1 -1
BITMAP
E0
FF
FF
FF
FF
FF
FF
FF
FF
ENDCHAR
STARTCHAR uni2B1B.trapezoid_w_v
ENCODING 65342
SWIDTH 1280 0
DWIDTH 10 0
BBX 8 9 1 -2
BITMAP
FF
FF
FF
FF
FF
FF
FF
FF
F0
ENDCHAR
STARTCHAR .notdef
ENCODING -1
SWIDTH 1100 0
DWIDTH 9 0
BBX 7 7 1 -1
BITMAP
FE
82
82
82
82
82
FE
ENDCHAR
STARTCHAR one.sups
ENCODING -1
SWIDTH 557 0
DWIDTH 4 0
BBX 4 5 0 1
BITMAP
70
90
D0
70
F0
ENDCHAR
STARTCHAR two.sups
ENCODING -1
SWIDTH 585 0
DWIDTH 5 0
BBX 4 5 0 1
BITMAP
70
F0
50
B0
F0
ENDCHAR
STARTCHAR three.sups
ENCODING -1
SWIDTH 584 0
DWIDTH 5 0
BBX 5 5 0 1
BITMAP
78
E8
78
B8
F0
ENDCHAR
STARTCHAR four.sups
ENCODING -1
SWIDTH 620 0
DWIDTH 5 0
BBX 5 5 0 1
BITMAP
F8
B8
B8
F8
30
ENDCHAR
ENDFONT
